# This file was created with Minddesk Qubicle 3.0
# Get Qubicle at www.getqubicle.com

vn 0.0 0.0 1.0
vn 0.0 0.0 -1.0
vn -1.0 0.0 0.0
vn 1.0 0.0 0.0
vn 0.0 1.0 0.0
vn 0.0 -1.0 0.0

v 0.32000 0.20000 -1.00000
v 0.32000 0.12000 -1.00000
v -1.80000 0.12000 -1.00000
v -1.80000 0.20000 -1.00000
v 0.32000 0.32000 -1.00000
v 0.32000 0.24000 -1.00000
v -1.80000 0.24000 -1.00000
v -1.80000 0.32000 -1.00000
v 0.32000 0.44000 -1.00000
v 0.32000 0.36000 -1.00000
v -1.80000 0.36000 -1.00000
v -1.80000 0.44000 -1.00000
v -1.80000 0.20000 -0.92000
v -1.80000 0.12000 -0.92000
v 0.32000 0.12000 -0.92000
v 0.32000 0.20000 -0.92000
v -1.80000 0.32000 -0.92000
v -1.80000 0.24000 -0.92000
v 0.32000 0.24000 -0.92000
v 0.32000 0.32000 -0.92000
v -1.80000 0.44000 -0.92000
v -1.80000 0.36000 -0.92000
v 0.32000 0.36000 -0.92000
v 0.32000 0.44000 -0.92000

vt 0.01563 0.04688
vt 0.01563 0.01563
vt 0.84375 0.01563
vt 0.84375 0.04688
vt 0.01563 0.10938
vt 0.01563 0.07813
vt 0.84375 0.07813
vt 0.84375 0.10938
vt 0.01563 0.17188
vt 0.01563 0.14063
vt 0.84375 0.14063
vt 0.84375 0.17188
vt 0.01563 0.23438
vt 0.01563 0.20313
vt 0.84375 0.20313
vt 0.84375 0.23438
vt 0.01563 0.29688
vt 0.01563 0.26563
vt 0.84375 0.26563
vt 0.84375 0.29688
vt 0.01563 0.35938
vt 0.01563 0.32813
vt 0.84375 0.32813
vt 0.84375 0.35938
vt 0.01563 0.42188
vt 0.01563 0.39063
vt 0.84375 0.39063
vt 0.84375 0.42188
vt 0.01563 0.48438
vt 0.01563 0.45313
vt 0.84375 0.45313
vt 0.84375 0.48438
vt 0.01563 0.54688
vt 0.01563 0.51563
vt 0.84375 0.51563
vt 0.84375 0.54688
vt 0.01563 0.60938
vt 0.01563 0.57813
vt 0.84375 0.57813
vt 0.84375 0.60938
vt 0.01563 0.67188
vt 0.01563 0.64063
vt 0.84375 0.64063
vt 0.84375 0.67188
vt 0.01563 0.73438
vt 0.01563 0.70313
vt 0.84375 0.70313
vt 0.84375 0.73438
vt 0.87500 0.04688
vt 0.87500 0.01563
vt 0.90625 0.01563
vt 0.90625 0.04688
vt 0.93750 0.04688
vt 0.93750 0.01563
vt 0.96875 0.01563
vt 0.96875 0.04688
vt 0.87500 0.10938
vt 0.87500 0.07813
vt 0.90625 0.07813
vt 0.90625 0.10938
vt 0.93750 0.10938
vt 0.93750 0.07813
vt 0.96875 0.07813
vt 0.96875 0.10938
vt 0.87500 0.17188
vt 0.87500 0.14063
vt 0.90625 0.14063
vt 0.90625 0.17188
vt 0.93750 0.17188
vt 0.93750 0.14063
vt 0.96875 0.14063
vt 0.96875 0.17188

g NeonSign_ItemShop_Stripes
f 1/9/2 2/10/2 3/11/2 4/12/2
f 5/5/2 6/6/2 7/7/2 8/8/2
f 9/1/2 10/2/2 11/3/2 12/4/2
f 13/21/1 14/22/1 15/23/1 16/24/1
f 17/17/1 18/18/1 19/19/1 20/20/1
f 21/13/1 22/14/1 23/15/1 24/16/1
f 4/61/3 3/62/3 14/63/3 13/64/3
f 8/65/3 7/66/3 18/67/3 17/68/3
f 12/69/3 11/70/3 22/71/3 21/72/3
f 16/49/4 15/50/4 2/51/4 1/52/4
f 20/53/4 19/54/4 6/55/4 5/56/4
f 24/57/4 23/58/4 10/59/4 9/60/4
f 4/37/5 13/38/5 16/39/5 1/40/5
f 8/41/5 17/42/5 20/43/5 5/44/5
f 12/45/5 21/46/5 24/47/5 9/48/5
f 14/25/6 3/26/6 2/27/6 15/28/6
f 18/29/6 7/30/6 6/31/6 19/32/6
f 22/33/6 11/34/6 10/35/6 23/36/6
