# This file was created with Minddesk Qubicle 3.0
# Get Qubicle at www.getqubicle.com

vn 0.0 0.0 1.0
vn 0.0 0.0 -1.0
vn -1.0 0.0 0.0
vn 1.0 0.0 0.0
vn 0.0 1.0 0.0
vn 0.0 -1.0 0.0

v 0.02000 0.02000 -0.02000
v 0.02000 -0.08000 -0.02000
v -0.02000 -0.08000 -0.02000
v -0.02000 0.02000 -0.02000
v -0.04000 -0.02000 -0.02000
v -0.04000 -0.08000 -0.02000
v -0.08000 -0.08000 -0.02000
v -0.08000 -0.02000 -0.02000
v 0.08000 -0.02000 -0.02000
v 0.08000 -0.08000 -0.02000
v 0.04000 -0.08000 -0.02000
v 0.04000 -0.02000 -0.02000
v 0.08000 0.08000 -0.02000
v 0.08000 0.04000 -0.02000
v -0.08000 0.04000 -0.02000
v -0.08000 0.08000 -0.02000
v -0.04000 0.04000 -0.02000
v -0.04000 0.00000 -0.02000
v -0.08000 0.00000 -0.02000
v 0.08000 0.00000 -0.02000
v 0.04000 0.00000 -0.02000
v 0.04000 0.04000 -0.02000
v -0.02000 0.02000 0.00000
v -0.02000 -0.08000 0.00000
v 0.02000 -0.08000 0.00000
v 0.02000 0.02000 0.00000
v -0.08000 -0.02000 0.00000
v -0.08000 -0.08000 0.00000
v -0.04000 -0.08000 0.00000
v -0.04000 -0.02000 0.00000
v 0.04000 -0.02000 0.00000
v 0.04000 -0.08000 0.00000
v 0.08000 -0.08000 0.00000
v 0.08000 -0.02000 0.00000
v -0.08000 0.08000 0.00000
v -0.08000 0.04000 0.00000
v 0.08000 0.04000 0.00000
v 0.08000 0.08000 0.00000
v -0.08000 0.00000 0.00000
v -0.04000 0.00000 0.00000
v -0.04000 0.04000 0.00000
v 0.04000 0.04000 0.00000
v 0.04000 0.00000 0.00000
v 0.08000 0.00000 0.00000

vt 0.03125 0.18750
vt 0.03125 0.03125
vt 0.09375 0.03125
vt 0.09375 0.18750
vt 0.15625 0.18750
vt 0.15625 0.03125
vt 0.21875 0.03125
vt 0.21875 0.18750
vt 0.28125 0.18750
vt 0.28125 0.03125
vt 0.31250 0.03125
vt 0.31250 0.18750
vt 0.37500 0.18750
vt 0.37500 0.03125
vt 0.40625 0.03125
vt 0.40625 0.18750
vt 0.46875 0.15625
vt 0.46875 0.03125
vt 0.50000 0.03125
vt 0.50000 0.15625
vt 0.56250 0.15625
vt 0.56250 0.03125
vt 0.59375 0.03125
vt 0.59375 0.15625
vt 0.65625 0.12500
vt 0.65625 0.03125
vt 0.71875 0.03125
vt 0.71875 0.12500
vt 0.78125 0.12500
vt 0.78125 0.03125
vt 0.84375 0.03125
vt 0.84375 0.12500
vt 0.90625 0.12500
vt 0.90625 0.03125
vt 0.96875 0.03125
vt 0.96875 0.12500
vt 0.03125 0.34375
vt 0.03125 0.25000
vt 0.09375 0.25000
vt 0.09375 0.34375
vt 0.15625 0.34375
vt 0.15625 0.25000
vt 0.18750 0.25000
vt 0.18750 0.34375
vt 0.25000 0.34375
vt 0.25000 0.25000
vt 0.28125 0.25000
vt 0.28125 0.34375
vt 0.34375 0.34375
vt 0.34375 0.25000
vt 0.37500 0.25000
vt 0.37500 0.34375
vt 0.43750 0.34375
vt 0.43750 0.25000
vt 0.46875 0.25000
vt 0.46875 0.34375
vt 0.53125 0.31250
vt 0.53125 0.25000
vt 0.78125 0.25000
vt 0.78125 0.31250
vt 0.03125 0.46875
vt 0.03125 0.40625
vt 0.28125 0.40625
vt 0.28125 0.46875
vt 0.84375 0.31250
vt 0.84375 0.25000
vt 0.90625 0.25000
vt 0.90625 0.31250
vt 0.34375 0.46875
vt 0.34375 0.40625
vt 0.40625 0.40625
vt 0.40625 0.46875
vt 0.46875 0.46875
vt 0.46875 0.40625
vt 0.53125 0.40625
vt 0.53125 0.46875
vt 0.59375 0.46875
vt 0.59375 0.40625
vt 0.65625 0.40625
vt 0.65625 0.46875
vt 0.71875 0.46875
vt 0.71875 0.40625
vt 0.75000 0.40625
vt 0.75000 0.46875
vt 0.81250 0.46875
vt 0.81250 0.40625
vt 0.84375 0.40625
vt 0.84375 0.46875
vt 0.03125 0.56250
vt 0.03125 0.53125
vt 0.28125 0.53125
vt 0.28125 0.56250
vt 0.34375 0.56250
vt 0.34375 0.53125
vt 0.46875 0.53125
vt 0.46875 0.56250
vt 0.90625 0.43750
vt 0.90625 0.40625
vt 0.96875 0.40625
vt 0.96875 0.43750
vt 0.53125 0.56250
vt 0.53125 0.53125
vt 0.59375 0.53125
vt 0.59375 0.56250
vt 0.65625 0.56250
vt 0.65625 0.53125
vt 0.71875 0.53125
vt 0.71875 0.56250
vt 0.78125 0.56250
vt 0.78125 0.53125
vt 0.84375 0.53125
vt 0.84375 0.56250
vt 0.90625 0.56250
vt 0.90625 0.53125
vt 0.96875 0.53125
vt 0.96875 0.56250
vt 0.03125 0.65625
vt 0.03125 0.62500
vt 0.09375 0.62500
vt 0.09375 0.65625
vt 0.15625 0.65625
vt 0.15625 0.62500
vt 0.21875 0.62500
vt 0.21875 0.65625
vt 0.28125 0.65625
vt 0.28125 0.62500
vt 0.34375 0.62500
vt 0.34375 0.65625

g NeonSign_Eat_T
f 1/5/2 2/6/2 3/7/2 4/8/2
f 5/29/2 6/30/2 7/31/2 8/32/2
f 9/37/2 10/38/2 11/39/2 12/40/2
f 13/61/2 14/62/2 15/63/2 16/64/2
f 17/77/2 18/78/2 19/79/2 15/80/2
f 14/73/2 20/74/2 21/75/2 22/76/2
f 23/1/1 24/2/1 25/3/1 26/4/1
f 27/25/1 28/26/1 29/27/1 30/28/1
f 31/33/1 32/34/1 33/35/1 34/36/1
f 35/57/1 36/58/1 37/59/1 38/60/1
f 36/65/1 39/66/1 40/67/1 41/68/1
f 42/69/1 43/70/1 44/71/1 37/72/1
f 4/9/3 3/10/3 24/11/3 23/12/3
f 8/45/3 7/46/3 28/47/3 27/48/3
f 16/17/3 19/18/3 39/19/3 35/20/3
f 12/49/3 11/50/3 32/51/3 31/52/3
f 22/81/3 21/82/3 43/83/3 42/84/3
f 26/13/4 25/14/4 2/15/4 1/16/4
f 30/41/4 29/42/4 6/43/4 5/44/4
f 34/53/4 33/54/4 10/55/4 9/56/4
f 38/21/4 44/22/4 20/23/4 13/24/4
f 41/85/4 40/86/4 18/87/4 17/88/4
f 16/89/5 35/90/5 38/91/5 13/92/5
f 8/113/5 27/114/5 30/115/5 5/116/5
f 4/109/5 23/110/5 26/111/5 1/112/5
f 12/117/5 31/118/5 34/119/5 9/120/5
f 41/93/6 17/94/6 22/95/6 42/96/6
f 28/125/6 7/126/6 6/127/6 29/128/6
f 39/121/6 19/122/6 18/123/6 40/124/6
f 24/97/6 3/98/6 2/99/6 25/100/6
f 32/105/6 11/106/6 10/107/6 33/108/6
f 43/101/6 21/102/6 20/103/6 44/104/6
