# This file was created with Minddesk Qubicle 3.0
# Get Qubicle at www.getqubicle.com

vn 0.0 0.0 1.0
vn 0.0 0.0 -1.0
vn -1.0 0.0 0.0
vn 1.0 0.0 0.0
vn 0.0 1.0 0.0
vn 0.0 -1.0 0.0

v -0.04000 0.04000 -0.02000
v -0.04000 -0.08000 -0.02000
v -0.08000 -0.08000 -0.02000
v -0.08000 0.04000 -0.02000
v 0.02000 0.02000 -0.02000
v 0.02000 -0.08000 -0.02000
v -0.02000 -0.08000 -0.02000
v -0.02000 0.02000 -0.02000
v 0.08000 0.04000 -0.02000
v 0.08000 -0.08000 -0.02000
v 0.04000 -0.08000 -0.02000
v 0.04000 0.04000 -0.02000
v 0.08000 0.08000 -0.02000
v -0.08000 0.08000 -0.02000
v -0.08000 0.04000 0.00000
v -0.08000 -0.08000 0.00000
v -0.04000 -0.08000 0.00000
v -0.04000 0.04000 0.00000
v -0.02000 0.02000 0.00000
v -0.02000 -0.08000 0.00000
v 0.02000 -0.08000 0.00000
v 0.02000 0.02000 0.00000
v 0.04000 0.04000 0.00000
v 0.04000 -0.08000 0.00000
v 0.08000 -0.08000 0.00000
v 0.08000 0.04000 0.00000
v -0.08000 0.08000 0.00000
v 0.08000 0.08000 0.00000

vt 0.03125 0.28125
vt 0.03125 0.03125
vt 0.06250 0.03125
vt 0.06250 0.28125
vt 0.12500 0.28125
vt 0.12500 0.03125
vt 0.15625 0.03125
vt 0.15625 0.28125
vt 0.21875 0.21875
vt 0.21875 0.03125
vt 0.28125 0.03125
vt 0.28125 0.21875
vt 0.34375 0.21875
vt 0.34375 0.03125
vt 0.40625 0.03125
vt 0.40625 0.21875
vt 0.46875 0.21875
vt 0.46875 0.03125
vt 0.53125 0.03125
vt 0.53125 0.21875
vt 0.59375 0.21875
vt 0.59375 0.03125
vt 0.65625 0.03125
vt 0.65625 0.21875
vt 0.71875 0.21875
vt 0.71875 0.03125
vt 0.75000 0.03125
vt 0.75000 0.21875
vt 0.81250 0.21875
vt 0.81250 0.03125
vt 0.84375 0.03125
vt 0.84375 0.21875
vt 0.90625 0.18750
vt 0.90625 0.03125
vt 0.96875 0.03125
vt 0.96875 0.18750
vt 0.03125 0.50000
vt 0.03125 0.34375
vt 0.09375 0.34375
vt 0.09375 0.50000
vt 0.15625 0.50000
vt 0.15625 0.34375
vt 0.18750 0.34375
vt 0.18750 0.50000
vt 0.25000 0.50000
vt 0.25000 0.34375
vt 0.28125 0.34375
vt 0.28125 0.50000
vt 0.34375 0.40625
vt 0.34375 0.34375
vt 0.59375 0.34375
vt 0.59375 0.40625
vt 0.65625 0.40625
vt 0.65625 0.34375
vt 0.90625 0.34375
vt 0.90625 0.40625
vt 0.34375 0.50000
vt 0.34375 0.46875
vt 0.59375 0.46875
vt 0.59375 0.50000
vt 0.65625 0.50000
vt 0.65625 0.46875
vt 0.78125 0.46875
vt 0.78125 0.50000
vt 0.84375 0.50000
vt 0.84375 0.46875
vt 0.90625 0.46875
vt 0.90625 0.50000
vt 0.03125 0.59375
vt 0.03125 0.56250
vt 0.09375 0.56250
vt 0.09375 0.59375
vt 0.15625 0.59375
vt 0.15625 0.56250
vt 0.21875 0.56250
vt 0.21875 0.59375
vt 0.28125 0.59375
vt 0.28125 0.56250
vt 0.34375 0.56250
vt 0.34375 0.59375

g NeonSign_Eat_A
f 1/17/2 2/18/2 3/19/2 4/20/2
f 5/33/2 6/34/2 7/35/2 8/36/2
f 9/21/2 10/22/2 11/23/2 12/24/2
f 13/49/2 9/50/2 4/51/2 14/52/2
f 15/13/1 16/14/1 17/15/1 18/16/1
f 19/37/1 20/38/1 21/39/1 22/40/1
f 23/9/1 24/10/1 25/11/1 26/12/1
f 27/53/1 15/54/1 26/55/1 28/56/1
f 14/5/3 3/6/3 16/7/3 27/8/3
f 8/41/3 7/42/3 20/43/3 19/44/3
f 12/29/3 11/30/3 24/31/3 23/32/3
f 18/25/4 17/26/4 2/27/4 1/28/4
f 22/45/4 21/46/4 6/47/4 5/48/4
f 28/1/4 25/2/4 10/3/4 13/4/4
f 14/57/5 27/58/5 28/59/5 13/60/5
f 8/73/5 19/74/5 22/75/5 5/76/5
f 18/61/6 1/62/6 12/63/6 23/64/6
f 16/77/6 3/78/6 2/79/6 17/80/6
f 20/65/6 7/66/6 6/67/6 21/68/6
f 24/69/6 11/70/6 10/71/6 25/72/6
