# This file was created with Minddesk Qubicle 3.0
# Get Qubicle at www.getqubicle.com

vn 0.0 0.0 1.0
vn 0.0 0.0 -1.0
vn -1.0 0.0 0.0
vn 1.0 0.0 0.0
vn 0.0 1.0 0.0
vn 0.0 -1.0 0.0

v -0.04000 0.04000 -0.02000
v -0.04000 -0.04000 -0.02000
v -0.08000 -0.04000 -0.02000
v -0.08000 0.04000 -0.02000
v 0.08000 -0.04000 -0.02000
v 0.08000 -0.08000 -0.02000
v -0.08000 -0.08000 -0.02000
v 0.08000 0.08000 -0.02000
v 0.08000 0.04000 -0.02000
v -0.08000 0.08000 -0.02000
v 0.08000 0.02000 -0.02000
v 0.08000 -0.02000 -0.02000
v -0.02000 -0.02000 -0.02000
v -0.02000 0.02000 -0.02000
v -0.08000 0.04000 0.00000
v -0.08000 -0.04000 0.00000
v -0.04000 -0.04000 0.00000
v -0.04000 0.04000 0.00000
v -0.08000 -0.08000 0.00000
v 0.08000 -0.08000 0.00000
v 0.08000 -0.04000 0.00000
v -0.08000 0.08000 0.00000
v 0.08000 0.04000 0.00000
v 0.08000 0.08000 0.00000
v -0.02000 0.02000 0.00000
v -0.02000 -0.02000 0.00000
v 0.08000 -0.02000 0.00000
v 0.08000 0.02000 0.00000

vt 0.03125 0.28125
vt 0.03125 0.03125
vt 0.06250 0.03125
vt 0.06250 0.28125
vt 0.12500 0.15625
vt 0.12500 0.03125
vt 0.18750 0.03125
vt 0.18750 0.15625
vt 0.25000 0.15625
vt 0.25000 0.03125
vt 0.31250 0.03125
vt 0.31250 0.15625
vt 0.37500 0.15625
vt 0.37500 0.03125
vt 0.40625 0.03125
vt 0.40625 0.15625
vt 0.46875 0.09375
vt 0.46875 0.03125
vt 0.71875 0.03125
vt 0.71875 0.09375
vt 0.12500 0.28125
vt 0.12500 0.21875
vt 0.37500 0.21875
vt 0.37500 0.28125
vt 0.43750 0.28125
vt 0.43750 0.21875
vt 0.68750 0.21875
vt 0.68750 0.28125
vt 0.03125 0.40625
vt 0.03125 0.34375
vt 0.28125 0.34375
vt 0.28125 0.40625
vt 0.78125 0.09375
vt 0.78125 0.03125
vt 0.93750 0.03125
vt 0.93750 0.09375
vt 0.75000 0.28125
vt 0.75000 0.21875
vt 0.90625 0.21875
vt 0.90625 0.28125
vt 0.34375 0.40625
vt 0.34375 0.34375
vt 0.37500 0.34375
vt 0.37500 0.40625
vt 0.43750 0.40625
vt 0.43750 0.34375
vt 0.46875 0.34375
vt 0.46875 0.40625
vt 0.53125 0.40625
vt 0.53125 0.34375
vt 0.56250 0.34375
vt 0.56250 0.40625
vt 0.62500 0.40625
vt 0.62500 0.34375
vt 0.65625 0.34375
vt 0.65625 0.40625
vt 0.71875 0.37500
vt 0.71875 0.34375
vt 0.96875 0.34375
vt 0.96875 0.37500
vt 0.03125 0.50000
vt 0.03125 0.46875
vt 0.28125 0.46875
vt 0.28125 0.50000
vt 0.34375 0.50000
vt 0.34375 0.46875
vt 0.53125 0.46875
vt 0.53125 0.50000
vt 0.59375 0.50000
vt 0.59375 0.46875
vt 0.78125 0.46875
vt 0.78125 0.50000
vt 0.03125 0.59375
vt 0.03125 0.56250
vt 0.18750 0.56250
vt 0.18750 0.59375
vt 0.25000 0.59375
vt 0.25000 0.56250
vt 0.40625 0.56250
vt 0.40625 0.59375

g NeonSign_Eat_E
f 1/9/2 2/10/2 3/11/2 4/12/2
f 5/29/2 6/30/2 7/31/2 3/32/2
f 8/25/2 9/26/2 4/27/2 10/28/2
f 11/33/2 12/34/2 13/35/2 14/36/2
f 15/5/1 16/6/1 17/7/1 18/8/1
f 16/21/1 19/22/1 20/23/1 21/24/1
f 22/17/1 15/18/1 23/19/1 24/20/1
f 25/37/1 26/38/1 27/39/1 28/40/1
f 10/1/3 7/2/3 19/3/3 22/4/3
f 14/41/3 13/42/3 26/43/3 25/44/3
f 18/13/4 17/14/4 2/15/4 1/16/4
f 21/53/4 20/54/4 6/55/4 5/56/4
f 28/49/4 27/50/4 12/51/4 11/52/4
f 24/45/4 23/46/4 9/47/4 8/48/4
f 10/61/5 22/62/5 24/63/5 8/64/5
f 2/69/5 17/70/5 21/71/5 5/72/5
f 14/77/5 25/78/5 28/79/5 11/80/5
f 19/57/6 7/58/6 6/59/6 20/60/6
f 18/65/6 1/66/6 9/67/6 23/68/6
f 26/73/6 13/74/6 12/75/6 27/76/6
