# This file was created with Minddesk Qubicle 3.0
# Get Qubicle at www.getqubicle.com

vn 0.0 0.0 1.0
vn 0.0 0.0 -1.0
vn -1.0 0.0 0.0
vn 1.0 0.0 0.0
vn 0.0 1.0 0.0
vn 0.0 -1.0 0.0

v -0.06000 0.10000 -0.04000
v -0.06000 -0.02000 -0.04000
v -0.10000 -0.02000 -0.04000
v -0.10000 0.10000 -0.04000
v -0.06000 -0.06000 -0.04000
v -0.06000 -0.14000 -0.04000
v -0.10000 -0.14000 -0.04000
v -0.10000 -0.06000 -0.04000
v 0.06000 0.02000 -0.04000
v 0.06000 -0.06000 -0.04000
v 0.02000 -0.06000 -0.04000
v 0.02000 0.02000 -0.04000
v 0.10000 0.14000 -0.04000
v 0.10000 0.10000 -0.04000
v -0.10000 0.14000 -0.04000
v 0.10000 -0.10000 -0.04000
v 0.10000 -0.14000 -0.04000
v -0.02000 -0.14000 -0.04000
v -0.02000 -0.10000 -0.04000
v 0.10000 0.06000 -0.04000
v 0.10000 0.02000 -0.04000
v -0.02000 0.02000 -0.04000
v -0.02000 0.06000 -0.04000
v -0.02000 -0.02000 -0.04000
v -0.02000 -0.06000 -0.04000
v -0.10000 0.10000 0.00000
v -0.10000 -0.02000 0.00000
v -0.06000 -0.02000 0.00000
v -0.06000 0.10000 0.00000
v -0.10000 -0.06000 0.00000
v -0.10000 -0.14000 0.00000
v -0.06000 -0.14000 0.00000
v -0.06000 -0.06000 0.00000
v 0.02000 0.02000 0.00000
v 0.02000 -0.06000 0.00000
v 0.06000 -0.06000 0.00000
v 0.06000 0.02000 0.00000
v -0.10000 0.14000 0.00000
v 0.10000 0.10000 0.00000
v 0.10000 0.14000 0.00000
v -0.02000 -0.10000 0.00000
v -0.02000 -0.14000 0.00000
v 0.10000 -0.14000 0.00000
v 0.10000 -0.10000 0.00000
v -0.02000 0.06000 0.00000
v -0.02000 0.02000 0.00000
v 0.10000 0.02000 0.00000
v 0.10000 0.06000 0.00000
v -0.02000 -0.06000 0.00000
v -0.02000 -0.02000 0.00000

vt 0.01563 0.46875
vt 0.01563 0.03125
vt 0.04688 0.03125
vt 0.04688 0.46875
vt 0.07813 0.21875
vt 0.07813 0.03125
vt 0.10938 0.03125
vt 0.10938 0.21875
vt 0.14063 0.21875
vt 0.14063 0.03125
vt 0.17188 0.03125
vt 0.17188 0.21875
vt 0.20313 0.21875
vt 0.20313 0.03125
vt 0.23438 0.03125
vt 0.23438 0.21875
vt 0.26563 0.15625
vt 0.26563 0.03125
vt 0.29688 0.03125
vt 0.29688 0.15625
vt 0.32813 0.15625
vt 0.32813 0.03125
vt 0.35938 0.03125
vt 0.35938 0.15625
vt 0.39063 0.15625
vt 0.39063 0.03125
vt 0.42188 0.03125
vt 0.42188 0.15625
vt 0.45313 0.15625
vt 0.45313 0.03125
vt 0.48438 0.03125
vt 0.48438 0.15625
vt 0.51563 0.15625
vt 0.51563 0.03125
vt 0.54688 0.03125
vt 0.54688 0.15625
vt 0.57813 0.15625
vt 0.57813 0.03125
vt 0.60938 0.03125
vt 0.60938 0.15625
vt 0.64063 0.15625
vt 0.64063 0.03125
vt 0.67188 0.03125
vt 0.67188 0.15625
vt 0.70313 0.09375
vt 0.70313 0.03125
vt 0.85938 0.03125
vt 0.85938 0.09375
vt 0.07813 0.34375
vt 0.07813 0.28125
vt 0.23438 0.28125
vt 0.23438 0.34375
vt 0.26563 0.34375
vt 0.26563 0.28125
vt 0.42188 0.28125
vt 0.42188 0.34375
vt 0.45313 0.34375
vt 0.45313 0.28125
vt 0.57813 0.28125
vt 0.57813 0.34375
vt 0.89063 0.09375
vt 0.89063 0.03125
vt 0.98438 0.03125
vt 0.98438 0.09375
vt 0.60938 0.34375
vt 0.60938 0.28125
vt 0.70313 0.28125
vt 0.70313 0.34375
vt 0.73438 0.34375
vt 0.73438 0.28125
vt 0.82813 0.28125
vt 0.82813 0.34375
vt 0.85938 0.34375
vt 0.85938 0.28125
vt 0.95313 0.28125
vt 0.95313 0.34375
vt 0.07813 0.46875
vt 0.07813 0.40625
vt 0.17188 0.40625
vt 0.17188 0.46875
vt 0.20313 0.46875
vt 0.20313 0.40625
vt 0.29688 0.40625
vt 0.29688 0.46875
vt 0.32813 0.46875
vt 0.32813 0.40625
vt 0.42188 0.40625
vt 0.42188 0.46875
vt 0.45313 0.46875
vt 0.45313 0.40625
vt 0.51563 0.40625
vt 0.51563 0.46875
vt 0.54688 0.46875
vt 0.54688 0.40625
vt 0.60938 0.40625
vt 0.60938 0.46875
vt 0.64063 0.46875
vt 0.64063 0.40625
vt 0.67188 0.40625
vt 0.67188 0.46875
vt 0.70313 0.46875
vt 0.70313 0.40625
vt 0.73438 0.40625
vt 0.73438 0.46875
vt 0.76563 0.46875
vt 0.76563 0.40625
vt 0.79688 0.40625
vt 0.79688 0.46875
vt 0.82813 0.46875
vt 0.82813 0.40625
vt 0.85938 0.40625
vt 0.85938 0.46875
vt 0.89063 0.46875
vt 0.89063 0.40625
vt 0.92188 0.40625
vt 0.92188 0.46875
vt 0.95313 0.46875
vt 0.95313 0.40625
vt 0.98438 0.40625
vt 0.98438 0.46875
vt 0.01563 0.59375
vt 0.01563 0.53125
vt 0.04688 0.53125
vt 0.04688 0.59375
vt 0.07813 0.59375
vt 0.07813 0.53125
vt 0.10938 0.53125
vt 0.10938 0.59375
vt 0.14063 0.59375
vt 0.14063 0.53125
vt 0.17188 0.53125
vt 0.17188 0.59375
vt 0.20313 0.59375
vt 0.20313 0.53125
vt 0.23438 0.53125
vt 0.23438 0.59375
vt 0.26563 0.59375
vt 0.26563 0.53125
vt 0.29688 0.53125
vt 0.29688 0.59375
vt 0.32813 0.59375
vt 0.32813 0.53125
vt 0.35938 0.53125
vt 0.35938 0.59375

g NeonSign_Loft
f 1/13/2 2/14/2 3/15/2 4/16/2
f 5/37/2 6/38/2 7/39/2 8/40/2
f 9/25/2 10/26/2 11/27/2 12/28/2
f 13/45/2 14/46/2 4/47/2 15/48/2
f 16/69/2 17/70/2 18/71/2 19/72/2
f 20/85/2 21/86/2 22/87/2 23/88/2
f 24/89/2 25/90/2 8/91/2 3/92/2
f 26/5/1 27/6/1 28/7/1 29/8/1
f 30/21/1 31/22/1 32/23/1 33/24/1
f 34/17/1 35/18/1 36/19/1 37/20/1
f 38/53/1 26/54/1 39/55/1 40/56/1
f 41/61/1 42/62/1 43/63/1 44/64/1
f 45/65/1 46/66/1 47/67/1 48/68/1
f 27/93/1 30/94/1 49/95/1 50/96/1
f 15/1/3 7/2/3 31/3/3 38/4/3
f 12/33/3 11/34/3 35/35/3 34/36/3
f 19/129/3 18/130/3 42/131/3 41/132/3
f 23/125/3 22/126/3 46/127/3 45/128/3
f 29/9/4 28/10/4 2/11/4 1/12/4
f 33/41/4 32/42/4 6/43/4 5/44/4
f 37/29/4 36/30/4 10/31/4 9/32/4
f 50/121/4 49/122/4 25/123/4 24/124/4
f 44/141/4 43/142/4 17/143/4 16/144/4
f 48/137/4 47/138/4 21/139/4 20/140/4
f 40/133/4 39/134/4 14/135/4 13/136/4
f 15/49/5 38/50/5 40/51/5 13/52/5
f 19/77/5 41/78/5 44/79/5 16/80/5
f 23/73/5 45/74/5 48/75/5 20/76/5
f 2/105/5 28/106/5 50/107/5 24/108/5
f 29/57/6 1/58/6 14/59/6 39/60/6
f 42/81/6 18/82/6 17/83/6 43/84/6
f 31/101/6 7/102/6 6/103/6 32/104/6
f 33/97/6 5/98/6 25/99/6 49/100/6
f 46/117/6 22/118/6 12/119/6 34/120/6
f 35/113/6 11/114/6 10/115/6 36/116/6
f 37/109/6 9/110/6 21/111/6 47/112/6
