# This file was created with Minddesk Qubicle 3.0
# Get Qubicle at www.getqubicle.com

vn 0.0 0.0 1.0
vn 0.0 0.0 -1.0
vn -1.0 0.0 0.0
vn 1.0 0.0 0.0
vn 0.0 1.0 0.0
vn 0.0 -1.0 0.0

v -1.14000 0.66000 -1.50000
v -1.14000 0.18000 -1.50000
v -1.38000 0.18000 -1.50000
v -1.38000 0.66000 -1.50000
v -0.42000 0.66000 -1.50000
v -0.42000 0.18000 -1.50000
v -0.66000 0.18000 -1.50000
v -0.66000 0.66000 -1.50000
v -0.06000 0.06000 -1.50000
v -0.06000 -0.36000 -1.50000
v -0.30000 -0.36000 -1.50000
v -0.30000 0.06000 -1.50000
v -0.06000 0.66000 -1.50000
v -0.06000 0.30000 -1.50000
v -0.30000 0.30000 -1.50000
v -0.30000 0.66000 -1.50000
v 0.54000 0.06000 -1.50000
v 0.54000 -0.36000 -1.50000
v 0.30000 -0.36000 -1.50000
v 0.30000 0.06000 -1.50000
v 0.54000 0.66000 -1.50000
v 0.54000 0.30000 -1.50000
v 0.30000 0.30000 -1.50000
v 0.30000 0.66000 -1.50000
v -0.60000 -0.12000 -1.50000
v -0.60000 -0.36000 -1.50000
v -1.20000 -0.36000 -1.50000
v -1.20000 -0.12000 -1.50000
v 1.38000 -0.12000 -1.50000
v 1.38000 -0.36000 -1.50000
v 0.66000 -0.36000 -1.50000
v 0.66000 -0.12000 -1.50000
v 1.38000 0.24000 -1.50000
v 1.38000 0.00000 -1.50000
v 0.66000 0.00000 -1.50000
v 0.66000 0.24000 -1.50000
v 1.38000 0.66000 -1.50000
v 1.38000 0.42000 -1.50000
v 0.66000 0.42000 -1.50000
v 0.66000 0.66000 -1.50000
v -0.96000 0.18000 -1.50000
v -0.96000 -0.06000 -1.50000
v -1.38000 -0.06000 -1.50000
v -0.42000 -0.06000 -1.50000
v -0.84000 -0.06000 -1.50000
v -0.84000 0.18000 -1.50000
v 0.90000 0.42000 -1.50000
v 0.90000 0.24000 -1.50000
v 1.14000 -0.12000 -1.50000
v 1.14000 0.00000 -1.50000
v -0.96000 -0.12000 -1.50000
v -1.20000 -0.06000 -1.50000
v -0.60000 -0.06000 -1.50000
v -0.84000 -0.12000 -1.50000
v -1.38000 0.66000 -1.38000
v -1.38000 0.18000 -1.38000
v -1.14000 0.18000 -1.38000
v -1.14000 0.66000 -1.38000
v -0.66000 0.66000 -1.38000
v -0.66000 0.18000 -1.38000
v -0.42000 0.18000 -1.38000
v -0.42000 0.66000 -1.38000
v -0.30000 0.06000 -1.38000
v -0.30000 -0.36000 -1.38000
v -0.06000 -0.36000 -1.38000
v -0.06000 0.06000 -1.38000
v -0.30000 0.66000 -1.38000
v -0.30000 0.30000 -1.38000
v -0.06000 0.30000 -1.38000
v -0.06000 0.66000 -1.38000
v 0.30000 0.06000 -1.38000
v 0.30000 -0.36000 -1.38000
v 0.54000 -0.36000 -1.38000
v 0.54000 0.06000 -1.38000
v 0.30000 0.66000 -1.38000
v 0.30000 0.30000 -1.38000
v 0.54000 0.30000 -1.38000
v 0.54000 0.66000 -1.38000
v -1.20000 -0.12000 -1.38000
v -1.20000 -0.36000 -1.38000
v -0.60000 -0.36000 -1.38000
v -0.60000 -0.12000 -1.38000
v 0.66000 -0.12000 -1.38000
v 0.66000 -0.36000 -1.38000
v 1.38000 -0.36000 -1.38000
v 1.38000 -0.12000 -1.38000
v 0.66000 0.24000 -1.38000
v 0.66000 0.00000 -1.38000
v 1.38000 0.00000 -1.38000
v 1.38000 0.24000 -1.38000
v 0.66000 0.66000 -1.38000
v 0.66000 0.42000 -1.38000
v 1.38000 0.42000 -1.38000
v 1.38000 0.66000 -1.38000
v -1.38000 -0.06000 -1.38000
v -0.96000 -0.06000 -1.38000
v -0.96000 0.18000 -1.38000
v -0.84000 0.18000 -1.38000
v -0.84000 -0.06000 -1.38000
v -0.42000 -0.06000 -1.38000
v 0.90000 0.24000 -1.38000
v 0.90000 0.42000 -1.38000
v 1.14000 0.00000 -1.38000
v 1.14000 -0.12000 -1.38000
v -1.20000 -0.06000 -1.38000
v -0.96000 -0.12000 -1.38000
v -0.84000 -0.12000 -1.38000
v -0.60000 -0.06000 -1.38000

vt 0.01563 0.28125
vt 0.01563 0.01563
vt 0.04688 0.01563
vt 0.04688 0.28125
vt 0.07813 0.28125
vt 0.07813 0.01563
vt 0.10938 0.01563
vt 0.10938 0.28125
vt 0.14063 0.20313
vt 0.14063 0.01563
vt 0.17188 0.01563
vt 0.17188 0.20313
vt 0.20313 0.20313
vt 0.20313 0.01563
vt 0.23438 0.01563
vt 0.23438 0.20313
vt 0.26563 0.18750
vt 0.26563 0.01563
vt 0.29688 0.01563
vt 0.29688 0.18750
vt 0.32813 0.17188
vt 0.32813 0.01563
vt 0.35938 0.01563
vt 0.35938 0.17188
vt 0.39063 0.14063
vt 0.39063 0.01563
vt 0.45313 0.01563
vt 0.45313 0.14063
vt 0.48438 0.14063
vt 0.48438 0.01563
vt 0.54688 0.01563
vt 0.54688 0.14063
vt 0.57813 0.14063
vt 0.57813 0.01563
vt 0.64063 0.01563
vt 0.64063 0.14063
vt 0.67188 0.14063
vt 0.67188 0.01563
vt 0.73438 0.01563
vt 0.73438 0.14063
vt 0.76563 0.14063
vt 0.76563 0.01563
vt 0.79688 0.01563
vt 0.79688 0.14063
vt 0.82813 0.14063
vt 0.82813 0.01563
vt 0.85938 0.01563
vt 0.85938 0.14063
vt 0.89063 0.12500
vt 0.89063 0.01563
vt 0.95313 0.01563
vt 0.95313 0.12500
vt 0.01563 0.42188
vt 0.01563 0.31250
vt 0.07813 0.31250
vt 0.07813 0.42188
vt 0.10938 0.42188
vt 0.10938 0.31250
vt 0.17188 0.31250
vt 0.17188 0.42188
vt 0.20313 0.42188
vt 0.20313 0.31250
vt 0.26563 0.31250
vt 0.26563 0.42188
vt 0.29688 0.42188
vt 0.29688 0.31250
vt 0.32813 0.31250
vt 0.32813 0.42188
vt 0.35938 0.42188
vt 0.35938 0.31250
vt 0.39063 0.31250
vt 0.39063 0.42188
vt 0.42188 0.40625
vt 0.42188 0.31250
vt 0.48438 0.31250
vt 0.48438 0.40625
vt 0.51563 0.40625
vt 0.51563 0.31250
vt 0.57813 0.31250
vt 0.57813 0.40625
vt 0.60938 0.40625
vt 0.60938 0.31250
vt 0.67188 0.31250
vt 0.67188 0.40625
vt 0.70313 0.40625
vt 0.70313 0.31250
vt 0.76563 0.31250
vt 0.76563 0.40625
vt 0.79688 0.40625
vt 0.79688 0.31250
vt 0.82813 0.31250
vt 0.82813 0.40625
vt 0.85938 0.40625
vt 0.85938 0.31250
vt 0.89063 0.31250
vt 0.89063 0.40625
vt 0.92188 0.39063
vt 0.92188 0.31250
vt 0.95313 0.31250
vt 0.95313 0.39063
vt 0.01563 0.53125
vt 0.01563 0.45313
vt 0.04688 0.45313
vt 0.04688 0.53125
vt 0.07813 0.53125
vt 0.07813 0.45313
vt 0.10938 0.45313
vt 0.10938 0.53125
vt 0.14063 0.53125
vt 0.14063 0.45313
vt 0.17188 0.45313
vt 0.17188 0.53125
vt 0.20313 0.51563
vt 0.20313 0.45313
vt 0.42188 0.45313
vt 0.42188 0.51563
vt 0.45313 0.51563
vt 0.45313 0.45313
vt 0.67188 0.45313
vt 0.67188 0.51563
vt 0.70313 0.51563
vt 0.70313 0.45313
vt 0.89063 0.45313
vt 0.89063 0.51563
vt 0.01563 0.62500
vt 0.01563 0.56250
vt 0.20313 0.56250
vt 0.20313 0.62500
vt 0.23438 0.62500
vt 0.23438 0.56250
vt 0.42188 0.56250
vt 0.42188 0.62500
vt 0.45313 0.62500
vt 0.45313 0.56250
vt 0.64063 0.56250
vt 0.64063 0.62500
vt 0.67188 0.62500
vt 0.67188 0.56250
vt 0.85938 0.56250
vt 0.85938 0.62500
vt 0.01563 0.71875
vt 0.01563 0.65625
vt 0.20313 0.65625
vt 0.20313 0.71875
vt 0.23438 0.71875
vt 0.23438 0.65625
vt 0.39063 0.65625
vt 0.39063 0.71875
vt 0.42188 0.71875
vt 0.42188 0.65625
vt 0.57813 0.65625
vt 0.57813 0.71875
vt 0.60938 0.71875
vt 0.60938 0.65625
vt 0.71875 0.65625
vt 0.71875 0.71875
vt 0.75000 0.71875
vt 0.75000 0.65625
vt 0.85938 0.65625
vt 0.85938 0.71875
vt 0.01563 0.81250
vt 0.01563 0.75000
vt 0.12500 0.75000
vt 0.12500 0.81250
vt 0.15625 0.81250
vt 0.15625 0.75000
vt 0.26563 0.75000
vt 0.26563 0.81250
vt 0.92188 0.51563
vt 0.92188 0.45313
vt 0.95313 0.45313
vt 0.95313 0.51563
vt 0.89063 0.62500
vt 0.89063 0.56250
vt 0.92188 0.56250
vt 0.92188 0.62500
vt 0.14063 0.28125
vt 0.14063 0.23438
vt 0.20313 0.23438
vt 0.20313 0.28125
vt 0.23438 0.28125
vt 0.23438 0.23438
vt 0.29688 0.23438
vt 0.29688 0.28125
vt 0.32813 0.28125
vt 0.32813 0.23438
vt 0.35938 0.23438
vt 0.35938 0.28125
vt 0.39063 0.26563
vt 0.39063 0.23438
vt 0.57813 0.23438
vt 0.57813 0.26563
vt 0.60938 0.26563
vt 0.60938 0.23438
vt 0.79688 0.23438
vt 0.79688 0.26563
vt 0.82813 0.26563
vt 0.82813 0.23438
vt 0.98438 0.23438
vt 0.98438 0.26563
vt 0.29688 0.78125
vt 0.29688 0.75000
vt 0.42188 0.75000
vt 0.42188 0.78125
vt 0.45313 0.78125
vt 0.45313 0.75000
vt 0.57813 0.75000
vt 0.57813 0.78125
vt 0.60938 0.78125
vt 0.60938 0.75000
vt 0.73438 0.75000
vt 0.73438 0.78125
vt 0.76563 0.78125
vt 0.76563 0.75000
vt 0.89063 0.75000
vt 0.89063 0.78125
vt 0.89063 0.68750
vt 0.89063 0.65625
vt 0.98438 0.65625
vt 0.98438 0.68750
vt 0.01563 0.87500
vt 0.01563 0.84375
vt 0.10938 0.84375
vt 0.10938 0.87500
vt 0.92188 0.78125
vt 0.92188 0.75000
vt 0.98438 0.75000
vt 0.98438 0.78125
vt 0.14063 0.87500
vt 0.14063 0.84375
vt 0.20313 0.84375
vt 0.20313 0.87500
vt 0.23438 0.87500
vt 0.23438 0.84375
vt 0.29688 0.84375
vt 0.29688 0.87500
vt 0.32813 0.87500
vt 0.32813 0.84375
vt 0.39063 0.84375
vt 0.39063 0.87500
vt 0.42188 0.87500
vt 0.42188 0.84375
vt 0.48438 0.84375
vt 0.48438 0.87500
vt 0.51563 0.87500
vt 0.51563 0.84375
vt 0.57813 0.84375
vt 0.57813 0.87500
vt 0.60938 0.87500
vt 0.60938 0.84375
vt 0.67188 0.84375
vt 0.67188 0.87500
vt 0.70313 0.87500
vt 0.70313 0.84375
vt 0.76563 0.84375
vt 0.76563 0.87500
vt 0.79688 0.87500
vt 0.79688 0.84375
vt 0.84375 0.84375
vt 0.84375 0.87500
vt 0.87500 0.87500
vt 0.87500 0.84375
vt 0.92188 0.84375
vt 0.92188 0.87500
vt 0.01563 0.93750
vt 0.01563 0.90625
vt 0.06250 0.90625
vt 0.06250 0.93750
vt 0.09375 0.93750
vt 0.09375 0.90625
vt 0.14063 0.90625
vt 0.14063 0.93750
vt 0.95313 0.59375
vt 0.95313 0.56250
vt 0.98438 0.56250
vt 0.98438 0.59375
vt 0.95313 0.87500
vt 0.95313 0.84375
vt 0.98438 0.84375
vt 0.98438 0.87500
vt 0.17188 0.92188
vt 0.17188 0.90625
vt 0.23438 0.90625
vt 0.23438 0.92188
vt 0.26563 0.92188
vt 0.26563 0.90625
vt 0.32813 0.90625
vt 0.32813 0.92188
vt 0.35938 0.92188
vt 0.35938 0.90625
vt 0.42188 0.90625
vt 0.42188 0.92188
vt 0.45313 0.92188
vt 0.45313 0.90625
vt 0.51563 0.90625
vt 0.51563 0.92188

g NeonSign_PixelVhs
f 1/25/2 2/26/2 3/27/2 4/28/2
f 5/29/2 6/30/2 7/31/2 8/32/2
f 9/61/2 10/62/2 11/63/2 12/64/2
f 13/85/2 14/86/2 15/87/2 16/88/2
f 17/53/2 18/54/2 19/55/2 20/56/2
f 21/73/2 22/74/2 23/75/2 24/76/2
f 25/149/2 26/150/2 27/151/2 28/152/2
f 22/117/2 17/118/2 12/119/2 15/120/2
f 29/141/2 30/142/2 31/143/2 32/144/2
f 33/125/2 34/126/2 35/127/2 36/128/2
f 37/121/2 38/122/2 39/123/2 40/124/2
f 41/165/2 42/166/2 43/167/2 3/168/2
f 6/153/2 44/154/2 45/155/2 46/156/2
f 47/181/2 48/182/2 36/183/2 39/184/2
f 34/225/2 29/226/2 49/227/2 50/228/2
f 42/281/2 51/282/2 28/283/2 52/284/2
f 53/285/2 25/286/2 54/287/2 45/288/2
f 55/37/1 56/38/1 57/39/1 58/40/1
f 59/33/1 60/34/1 61/35/1 62/36/1
f 63/57/1 64/58/1 65/59/1 66/60/1
f 67/81/1 68/82/1 69/83/1 70/84/1
f 71/49/1 72/50/1 73/51/1 74/52/1
f 75/77/1 76/78/1 77/79/1 78/80/1
f 79/145/1 80/146/1 81/147/1 82/148/1
f 68/113/1 63/114/1 74/115/1 77/116/1
f 83/133/1 84/134/1 85/135/1 86/136/1
f 87/129/1 88/130/1 89/131/1 90/132/1
f 91/137/1 92/138/1 93/139/1 94/140/1
f 56/161/1 95/162/1 96/163/1 97/164/1
f 98/157/1 99/158/1 100/159/1 61/160/1
f 92/177/1 87/178/1 101/179/1 102/180/1
f 103/249/1 104/250/1 86/251/1 89/252/1
f 105/293/1 79/294/1 106/295/1 96/296/1
f 99/289/1 107/290/1 82/291/1 108/292/1
f 16/5/3 11/6/3 64/7/3 67/8/3
f 4/13/3 43/14/3 95/15/3 55/16/3
f 40/17/3 35/18/3 88/19/3 91/20/3
f 52/105/3 27/106/3 80/107/3 105/108/3
f 46/97/3 54/98/3 107/99/3 98/100/3
f 8/41/3 7/42/3 60/43/3 59/44/3
f 20/69/3 19/70/3 72/71/3 71/72/3
f 24/89/3 23/90/3 76/91/3 75/92/3
f 32/169/3 31/170/3 84/171/3 83/172/3
f 50/277/3 49/278/3 104/279/3 103/280/3
f 78/1/4 73/2/4 18/3/4 21/4/4
f 62/9/4 100/10/4 44/11/4 5/12/4
f 90/21/4 85/22/4 30/23/4 33/24/4
f 58/45/4 57/46/4 2/47/4 1/48/4
f 97/101/4 106/102/4 51/103/4 41/104/4
f 108/109/4 81/110/4 26/111/4 53/112/4
f 66/65/4 65/66/4 10/67/4 9/68/4
f 70/93/4 69/94/4 14/95/4 13/96/4
f 102/185/4 101/186/4 48/187/4 47/188/4
f 94/173/4 93/174/4 38/175/4 37/176/4
f 40/193/5 91/194/5 94/195/5 37/196/5
f 14/217/5 69/218/5 76/219/5 23/220/5
f 32/213/5 83/214/5 104/215/5 49/216/5
f 48/209/5 101/210/5 90/211/5 33/212/5
f 4/237/5 55/238/5 58/239/5 1/240/5
f 2/261/5 57/262/5 97/263/5 41/264/5
f 46/269/5 98/270/5 60/271/5 7/272/5
f 8/233/5 59/234/5 62/235/5 5/236/5
f 16/253/5 67/254/5 70/255/5 13/256/5
f 24/245/5 75/246/5 78/247/5 21/248/5
f 51/273/5 106/274/5 107/275/5 54/276/5
f 80/197/6 27/198/6 26/199/6 81/200/6
f 84/189/6 31/190/6 30/191/6 85/192/6
f 66/221/6 9/222/6 20/223/6 71/224/6
f 88/205/6 35/206/6 50/207/6 103/208/6
f 102/201/6 47/202/6 38/203/6 93/204/6
f 95/257/6 43/258/6 52/259/6 105/260/6
f 108/265/6 53/266/6 44/267/6 100/268/6
f 64/241/6 11/242/6 10/243/6 65/244/6
f 72/229/6 19/230/6 18/231/6 73/232/6
