# Blender v2.79 (sub 0) OBJ File: 'rocks.blend'
# www.blender.org
mtllib rock1_collision.mtl
o rock_1_collision_Plane.001
v 0.133317 0.473586 0.012809
v 0.401321 0.393992 -0.272951
v 0.703037 0.386195 0.043424
v 0.771034 -0.044945 0.167955
v 0.597447 -0.377166 -0.109214
v -0.494171 -0.441840 -0.299915
v -0.834730 -0.060196 0.147146
v 0.243865 -0.265191 0.800422
v 0.282550 0.113747 0.745170
v -0.432595 -0.097703 -0.680710
v 0.131090 0.144888 0.808675
v -0.124457 -0.269822 0.829421
v -0.314239 0.270696 0.583649
v 0.803515 0.225313 0.116660
v 0.381164 0.288859 0.453217
v 0.100023 0.343882 0.444196
v -0.391443 0.361114 0.424289
v 0.613064 -0.202322 -0.232008
v 0.036919 -0.471674 0.328800
v 0.097994 0.235342 -0.702221
v -0.163392 0.445081 -0.531061
v 0.168728 0.406601 -0.491740
v -0.533392 -0.311603 0.710242
v -0.376724 -0.275560 0.811539
v -0.498022 -0.187223 0.797602
v -0.629774 -0.170355 0.707226
v 0.614642 0.435589 0.191787
v 0.491104 0.465213 0.213193
v 0.526093 0.406769 0.306434
v 0.199334 -0.137298 -0.842044
v 0.246991 -0.071180 -0.830128
v 0.329776 -0.151845 -0.786478
v 0.296541 -0.208229 -0.799914
v -0.707805 -0.085183 0.638699
v -0.668625 0.084779 0.564708
v -0.693393 0.109886 0.507985
v -0.749945 0.076855 0.426527
v -0.818329 -0.007153 0.398388
v 0.373287 -0.405901 -0.516221
v 0.230530 -0.428231 -0.575439
v 0.232629 -0.383875 -0.622274
v 0.318190 -0.347258 -0.684014
v -0.227864 0.462454 -0.501939
v -0.349272 0.269407 -0.542978
v -0.413082 0.366742 -0.335988
v -0.381958 0.410232 -0.308450
v -0.327560 0.444528 -0.302337
v -0.242087 0.478821 -0.401160
vn 0.6100 0.4991 -0.6155
vn 0.1305 0.7695 0.6252
vn 0.1949 0.9595 -0.2034
vn 0.0785 0.0015 0.9969
vn -0.7584 0.6460 -0.0867
vn 0.9277 -0.2665 -0.2615
vn -0.6205 0.7829 0.0444
vn 0.6827 -0.6443 0.3447
vn -0.8368 0.3486 -0.4223
vn 0.7107 0.2062 -0.6727
vn 0.0107 0.8719 0.4895
vn 0.7435 0.4322 0.5104
vn 0.3501 0.8344 0.4257
vn -0.1741 -0.6682 -0.7233
vn -0.1825 0.9670 0.1777
vn -0.8646 -0.2952 -0.4066
vn -0.1944 -0.9738 0.1180
vn -0.4943 0.3653 0.7888
vn 0.3446 -0.9061 0.2455
vn -0.2416 -0.6991 -0.6729
vn -0.3713 0.2732 0.8874
vn 0.0419 -0.9219 0.3852
vn -0.2818 0.3924 -0.8755
vn 0.1630 0.7378 -0.6551
vn -0.5580 -0.3648 0.7454
vn -0.3993 0.7009 0.5911
vn 0.2804 0.8572 0.4320
vn 0.6796 0.3881 0.6225
vn 0.3908 -0.0110 -0.9204
vn 0.8246 -0.3399 -0.4522
vn -0.8057 0.3826 0.4522
vn -0.8059 -0.5613 0.1884
vn 0.1310 -0.9217 -0.3651
vn 0.1599 -0.9871 -0.0132
vn -0.6992 0.5395 -0.4692
vn 0.1335 0.9759 -0.1726
vn -0.6042 0.6875 -0.4029
vn 0.7376 0.5320 -0.4158
vn 0.6056 0.5053 -0.6147
vn 0.8653 0.2786 -0.4167
vn -0.1323 0.9520 0.2760
vn -0.1067 0.8240 0.5565
vn 0.2137 0.9602 -0.1801
vn 0.1152 0.9796 -0.1648
vn 0.4011 0.0920 0.9114
vn -0.7703 0.6265 -0.1187
vn -0.7581 0.6463 -0.0869
vn 0.9376 -0.1703 -0.3033
vn -0.6169 0.7789 0.1124
vn -0.5366 0.8424 0.0495
vn 0.7654 0.0157 0.6434
vn -0.8371 0.3483 -0.4218
vn 0.7522 0.1815 -0.6334
vn 0.0061 0.8779 0.4788
vn 0.6282 0.0716 0.7748
vn 0.1443 0.8263 0.5444
vn -0.2236 -0.6652 -0.7124
vn -0.2479 -0.6428 -0.7248
vn -0.1317 0.9861 0.1016
vn 0.0218 0.9570 0.2894
vn -0.0053 -0.9280 0.3725
vn -0.0196 -0.9320 0.3619
vn -0.2758 0.4364 0.8564
vn -0.3061 0.5011 0.8095
vn -0.2423 -0.7000 -0.6718
vn 0.1600 0.3644 0.9174
vn -0.0739 0.3912 0.9173
vn -0.2965 0.3733 -0.8791
vn -0.1838 0.3011 -0.9357
vn -0.2197 0.2898 -0.9315
vn -0.2876 0.3644 -0.8857
vn -0.4132 -0.4418 0.7963
vn -0.4570 0.7222 0.5192
vn 0.6296 0.1698 0.7581
vn 0.7628 0.5934 0.2569
vn 0.3794 -0.1079 -0.9189
vn 0.7755 -0.3286 -0.5391
vn 0.8898 -0.2522 -0.3803
vn 0.8234 -0.3735 -0.4271
vn -0.7493 0.4460 0.4895
vn -0.8397 0.2550 0.4795
vn -0.7066 -0.7048 0.0634
vn -0.8042 -0.5436 0.2401
vn -0.8013 -0.5726 0.1732
vn 0.3684 -0.6832 -0.6305
vn 0.1545 -0.9879 -0.0154
vn 0.0006 -0.9989 -0.0479
vn 0.1461 0.9819 -0.1201
vn 0.1645 0.9792 -0.1185
vn 0.2033 0.9706 -0.1289
vn -0.5148 0.8437 -0.1525
vn -0.5907 0.7791 -0.2099
usemtl None
s off
f 2//1 32//1 20//1
f 15//2 28//2 16//2
f 28//3 27//3 3//3
f 8//4 11//4 12//4
f 37//5 46//5 7//5
f 18//6 4//6 5//6
f 46//7 37//7 17//7
f 4//8 8//8 5//8
f 45//9 10//9 7//9
f 3//10 18//10 2//10
f 13//11 16//11 17//11
f 4//12 15//12 9//12
f 9//13 16//13 11//13
f 33//14 41//14 30//14
f 1//15 48//15 47//15
f 6//16 7//16 10//16
f 23//17 6//17 19//17
f 25//18 35//18 26//18
f 8//19 19//19 5//19
f 40//20 10//20 41//20
f 12//21 11//21 13//21
f 8//22 12//22 19//22
f 20//23 10//23 44//23
f 20//24 21//24 22//24
f 23//25 25//25 26//25
f 17//26 35//26 13//26
f 27//27 28//27 29//27
f 27//28 29//28 14//28
f 30//29 32//29 33//29
f 18//30 39//30 32//30
f 35//31 37//31 34//31
f 34//32 38//32 23//32
f 39//33 41//33 42//33
f 19//34 40//34 39//34
f 43//35 44//35 45//35
f 22//36 21//36 48//36
f 45//37 46//37 48//37
f 31//38 20//38 32//38
f 22//39 2//39 20//39
f 18//40 32//40 2//40
f 1//41 16//41 28//41
f 15//42 29//42 28//42
f 3//43 2//43 28//43
f 1//44 28//44 2//44
f 8//45 9//45 11//45
f 45//46 7//46 46//46
f 38//47 37//47 7//47
f 18//48 14//48 4//48
f 36//49 17//49 37//49
f 47//50 46//50 17//50
f 4//51 9//51 8//51
f 45//52 44//52 10//52
f 3//53 14//53 18//53
f 13//54 11//54 16//54
f 4//55 14//55 15//55
f 9//56 15//56 16//56
f 10//57 30//57 41//57
f 33//58 42//58 41//58
f 47//59 17//59 1//59
f 16//60 1//60 17//60
f 19//61 12//61 24//61
f 24//62 23//62 19//62
f 34//63 26//63 35//63
f 25//64 13//64 35//64
f 40//65 6//65 10//65
f 13//66 25//66 24//66
f 24//67 12//67 13//67
f 43//68 21//68 44//68
f 20//69 31//69 30//69
f 30//70 10//70 20//70
f 44//71 21//71 20//71
f 23//72 24//72 25//72
f 17//73 36//73 35//73
f 15//74 14//74 29//74
f 3//75 27//75 14//75
f 30//76 31//76 32//76
f 42//77 33//77 32//77
f 32//78 39//78 42//78
f 5//79 39//79 18//79
f 38//80 34//80 37//80
f 35//81 36//81 37//81
f 6//82 23//82 7//82
f 26//83 34//83 23//83
f 38//84 7//84 23//84
f 39//85 40//85 41//85
f 39//86 5//86 19//86
f 19//87 6//87 40//87
f 48//88 1//88 22//88
f 2//89 22//89 1//89
f 21//90 43//90 48//90
f 47//91 48//91 46//91
f 43//92 45//92 48//92
