# This file was created with Minddesk Qubicle 3.0
# Get Qubicle at www.getqubicle.com

vn 0.0 0.0 1.0
vn 0.0 0.0 -1.0
vn -1.0 0.0 0.0
vn 1.0 0.0 0.0
vn 0.0 1.0 0.0
vn 0.0 -1.0 0.0

v -0.30000 0.30000 -1.50000
v -0.30000 -0.60000 -1.50000
v -0.66000 -0.60000 -1.50000
v -0.66000 0.30000 -1.50000
v -0.30000 1.56000 -1.50000
v -0.30000 0.66000 -1.50000
v -0.66000 0.66000 -1.50000
v -0.66000 1.56000 -1.50000
v -1.68000 0.78000 -1.50000
v -1.68000 0.18000 -1.50000
v -1.80000 0.18000 -1.50000
v -1.80000 0.78000 -1.50000
v -0.78000 0.06000 -1.50000
v -0.78000 -0.72000 -1.50000
v -0.90000 -0.72000 -1.50000
v -0.90000 0.06000 -1.50000
v -0.78000 1.68000 -1.50000
v -0.78000 0.90000 -1.50000
v -0.90000 0.90000 -1.50000
v -0.90000 1.68000 -1.50000
v -0.06000 0.06000 -1.50000
v -0.06000 -0.72000 -1.50000
v -0.18000 -0.72000 -1.50000
v -0.18000 0.06000 -1.50000
v -0.06000 1.68000 -1.50000
v -0.06000 0.90000 -1.50000
v -0.18000 0.90000 -1.50000
v -0.18000 1.68000 -1.50000
v 0.84000 0.78000 -1.50000
v 0.84000 0.18000 -1.50000
v 0.72000 0.18000 -1.50000
v 0.72000 0.78000 -1.50000
v 0.60000 0.66000 -1.50000
v 0.60000 0.30000 -1.50000
v -1.56000 0.30000 -1.50000
v -1.56000 0.66000 -1.50000
v -0.78000 0.18000 -1.50000
v -1.80000 0.06000 -1.50000
v -0.78000 0.78000 -1.50000
v -1.80000 0.90000 -1.50000
v 0.84000 0.06000 -1.50000
v -0.18000 0.18000 -1.50000
v 0.84000 0.90000 -1.50000
v -0.18000 0.78000 -1.50000
v -0.06000 -0.84000 -1.50000
v -0.90000 -0.84000 -1.50000
v -0.06000 1.80000 -1.50000
v -0.90000 1.80000 -1.50000
v -0.66000 0.30000 -1.44000
v -0.66000 -0.60000 -1.44000
v -0.30000 -0.60000 -1.44000
v -0.30000 0.30000 -1.44000
v -0.66000 1.56000 -1.44000
v -0.66000 0.66000 -1.44000
v -0.30000 0.66000 -1.44000
v -0.30000 1.56000 -1.44000
v -1.80000 0.78000 -1.44000
v -1.80000 0.18000 -1.44000
v -1.68000 0.18000 -1.44000
v -1.68000 0.78000 -1.44000
v -0.90000 0.06000 -1.44000
v -0.90000 -0.72000 -1.44000
v -0.78000 -0.72000 -1.44000
v -0.78000 0.06000 -1.44000
v -0.90000 1.68000 -1.44000
v -0.90000 0.90000 -1.44000
v -0.78000 0.90000 -1.44000
v -0.78000 1.68000 -1.44000
v -0.18000 0.06000 -1.44000
v -0.18000 -0.72000 -1.44000
v -0.06000 -0.72000 -1.44000
v -0.06000 0.06000 -1.44000
v -0.18000 1.68000 -1.44000
v -0.18000 0.90000 -1.44000
v -0.06000 0.90000 -1.44000
v -0.06000 1.68000 -1.44000
v 0.72000 0.78000 -1.44000
v 0.72000 0.18000 -1.44000
v 0.84000 0.18000 -1.44000
v 0.84000 0.78000 -1.44000
v -1.56000 0.66000 -1.44000
v -1.56000 0.30000 -1.44000
v 0.60000 0.30000 -1.44000
v 0.60000 0.66000 -1.44000
v -1.80000 0.06000 -1.44000
v -0.78000 0.18000 -1.44000
v -1.80000 0.90000 -1.44000
v -0.78000 0.78000 -1.44000
v -0.18000 0.18000 -1.44000
v 0.84000 0.06000 -1.44000
v -0.18000 0.78000 -1.44000
v 0.84000 0.90000 -1.44000
v -0.90000 -0.84000 -1.44000
v -0.06000 -0.84000 -1.44000
v -0.90000 1.80000 -1.44000
v -0.06000 1.80000 -1.44000

vt 0.00781 0.25000
vt 0.00781 0.01563
vt 0.05469 0.01563
vt 0.05469 0.25000
vt 0.07031 0.25000
vt 0.07031 0.01563
vt 0.11719 0.01563
vt 0.11719 0.25000
vt 0.13281 0.25000
vt 0.13281 0.01563
vt 0.17969 0.01563
vt 0.17969 0.25000
vt 0.19531 0.25000
vt 0.19531 0.01563
vt 0.24219 0.01563
vt 0.24219 0.25000
vt 0.25781 0.25000
vt 0.25781 0.01563
vt 0.26563 0.01563
vt 0.26563 0.25000
vt 0.28125 0.25000
vt 0.28125 0.01563
vt 0.28906 0.01563
vt 0.28906 0.25000
vt 0.30469 0.25000
vt 0.30469 0.01563
vt 0.31250 0.01563
vt 0.31250 0.25000
vt 0.32813 0.25000
vt 0.32813 0.01563
vt 0.33594 0.01563
vt 0.33594 0.25000
vt 0.35156 0.25000
vt 0.35156 0.01563
vt 0.35938 0.01563
vt 0.35938 0.25000
vt 0.37500 0.25000
vt 0.37500 0.01563
vt 0.38281 0.01563
vt 0.38281 0.25000
vt 0.39844 0.25000
vt 0.39844 0.01563
vt 0.40625 0.01563
vt 0.40625 0.25000
vt 0.42188 0.25000
vt 0.42188 0.01563
vt 0.42969 0.01563
vt 0.42969 0.25000
vt 0.44531 0.25000
vt 0.44531 0.01563
vt 0.45313 0.01563
vt 0.45313 0.25000
vt 0.46875 0.25000
vt 0.46875 0.01563
vt 0.47656 0.01563
vt 0.47656 0.25000
vt 0.49219 0.25000
vt 0.49219 0.01563
vt 0.50000 0.01563
vt 0.50000 0.25000
vt 0.51563 0.25000
vt 0.51563 0.01563
vt 0.52344 0.01563
vt 0.52344 0.25000
vt 0.53906 0.23438
vt 0.53906 0.01563
vt 0.54688 0.01563
vt 0.54688 0.23438
vt 0.56250 0.23438
vt 0.56250 0.01563
vt 0.57031 0.01563
vt 0.57031 0.23438
vt 0.58594 0.21875
vt 0.58594 0.01563
vt 0.60156 0.01563
vt 0.60156 0.21875
vt 0.61719 0.21875
vt 0.61719 0.01563
vt 0.63281 0.01563
vt 0.63281 0.21875
vt 0.64844 0.21875
vt 0.64844 0.01563
vt 0.66406 0.01563
vt 0.66406 0.21875
vt 0.67969 0.21875
vt 0.67969 0.01563
vt 0.69531 0.01563
vt 0.69531 0.21875
vt 0.71094 0.21875
vt 0.71094 0.01563
vt 0.72656 0.01563
vt 0.72656 0.21875
vt 0.74219 0.21875
vt 0.74219 0.01563
vt 0.75781 0.01563
vt 0.75781 0.21875
vt 0.77344 0.21875
vt 0.77344 0.01563
vt 0.78906 0.01563
vt 0.78906 0.21875
vt 0.80469 0.21875
vt 0.80469 0.01563
vt 0.82031 0.01563
vt 0.82031 0.21875
vt 0.83594 0.17188
vt 0.83594 0.01563
vt 0.85156 0.01563
vt 0.85156 0.17188
vt 0.86719 0.17188
vt 0.86719 0.01563
vt 0.88281 0.01563
vt 0.88281 0.17188
vt 0.89844 0.17188
vt 0.89844 0.01563
vt 0.91406 0.01563
vt 0.91406 0.17188
vt 0.92969 0.17188
vt 0.92969 0.01563
vt 0.94531 0.01563
vt 0.94531 0.17188
vt 0.96094 0.17188
vt 0.96094 0.01563
vt 0.96875 0.01563
vt 0.96875 0.17188
vt 0.98438 0.17188
vt 0.98438 0.01563
vt 0.99219 0.01563
vt 0.99219 0.17188
vt 0.00781 0.37500
vt 0.00781 0.28125
vt 0.28906 0.28125
vt 0.28906 0.37500
vt 0.30469 0.37500
vt 0.30469 0.28125
vt 0.58594 0.28125
vt 0.58594 0.37500
vt 0.60156 0.37500
vt 0.60156 0.28125
vt 0.60938 0.28125
vt 0.60938 0.37500
vt 0.62500 0.37500
vt 0.62500 0.28125
vt 0.63281 0.28125
vt 0.63281 0.37500
vt 0.64844 0.31250
vt 0.64844 0.28125
vt 0.78125 0.28125
vt 0.78125 0.31250
vt 0.79688 0.31250
vt 0.79688 0.28125
vt 0.92969 0.28125
vt 0.92969 0.31250
vt 0.64844 0.37500
vt 0.64844 0.34375
vt 0.78125 0.34375
vt 0.78125 0.37500
vt 0.79688 0.37500
vt 0.79688 0.34375
vt 0.92969 0.34375
vt 0.92969 0.37500
vt 0.00781 0.43750
vt 0.00781 0.40625
vt 0.14063 0.40625
vt 0.14063 0.43750
vt 0.15625 0.43750
vt 0.15625 0.40625
vt 0.28906 0.40625
vt 0.28906 0.43750
vt 0.30469 0.43750
vt 0.30469 0.40625
vt 0.43750 0.40625
vt 0.43750 0.43750
vt 0.45313 0.43750
vt 0.45313 0.40625
vt 0.58594 0.40625
vt 0.58594 0.43750
vt 0.60156 0.43750
vt 0.60156 0.40625
vt 0.71094 0.40625
vt 0.71094 0.43750
vt 0.72656 0.43750
vt 0.72656 0.40625
vt 0.83594 0.40625
vt 0.83594 0.43750
vt 0.85156 0.43750
vt 0.85156 0.40625
vt 0.96094 0.40625
vt 0.96094 0.43750
vt 0.00781 0.50000
vt 0.00781 0.46875
vt 0.11719 0.46875
vt 0.11719 0.50000
vt 0.83594 0.21875
vt 0.83594 0.20313
vt 0.95313 0.20313
vt 0.95313 0.21875
vt 0.13281 0.48438
vt 0.13281 0.46875
vt 0.25000 0.46875
vt 0.25000 0.48438
vt 0.26563 0.48438
vt 0.26563 0.46875
vt 0.38281 0.46875
vt 0.38281 0.48438
vt 0.39844 0.48438
vt 0.39844 0.46875
vt 0.51563 0.46875
vt 0.51563 0.48438
vt 0.53125 0.48438
vt 0.53125 0.46875
vt 0.64844 0.46875
vt 0.64844 0.48438
vt 0.66406 0.48438
vt 0.66406 0.46875
vt 0.78125 0.46875
vt 0.78125 0.48438
vt 0.79688 0.48438
vt 0.79688 0.46875
vt 0.91406 0.46875
vt 0.91406 0.48438
vt 0.00781 0.54688
vt 0.00781 0.53125
vt 0.12500 0.53125
vt 0.12500 0.54688
vt 0.14063 0.54688
vt 0.14063 0.53125
vt 0.25781 0.53125
vt 0.25781 0.54688
vt 0.27344 0.54688
vt 0.27344 0.53125
vt 0.39063 0.53125
vt 0.39063 0.54688
vt 0.40625 0.54688
vt 0.40625 0.53125
vt 0.52344 0.53125
vt 0.52344 0.54688
vt 0.53906 0.54688
vt 0.53906 0.53125
vt 0.65625 0.53125
vt 0.65625 0.54688
vt 0.67188 0.54688
vt 0.67188 0.53125
vt 0.78125 0.53125
vt 0.78125 0.54688
vt 0.79688 0.54688
vt 0.79688 0.53125
vt 0.90625 0.53125
vt 0.90625 0.54688
vt 0.00781 0.59375
vt 0.00781 0.57813
vt 0.08594 0.57813
vt 0.08594 0.59375
vt 0.10156 0.59375
vt 0.10156 0.57813
vt 0.17969 0.57813
vt 0.17969 0.59375
vt 0.94531 0.29688
vt 0.94531 0.28125
vt 0.99219 0.28125
vt 0.99219 0.29688
vt 0.94531 0.35938
vt 0.94531 0.34375
vt 0.99219 0.34375
vt 0.99219 0.35938

g NeonSign_FramedDrugStore_Logo
f 1/9/2 2/10/2 3/11/2 4/12/2
f 5/13/2 6/14/2 7/15/2 8/16/2
f 9/109/2 10/110/2 11/111/2 12/112/2
f 13/93/2 14/94/2 15/95/2 16/96/2
f 17/101/2 18/102/2 19/103/2 20/104/2
f 21/97/2 22/98/2 23/99/2 24/100/2
f 25/77/2 26/78/2 27/79/2 28/80/2
f 29/117/2 30/118/2 31/119/2 32/120/2
f 33/133/2 34/134/2 35/135/2 36/136/2
f 37/157/2 13/158/2 38/159/2 11/160/2
f 18/153/2 39/154/2 12/155/2 40/156/2
f 30/161/2 41/162/2 24/163/2 42/164/2
f 43/149/2 29/150/2 44/151/2 27/152/2
f 22/177/2 45/178/2 46/179/2 15/180/2
f 47/181/2 25/182/2 20/183/2 48/184/2
f 49/1/1 50/2/1 51/3/1 52/4/1
f 53/5/1 54/6/1 55/7/1 56/8/1
f 57/105/1 58/106/1 59/107/1 60/108/1
f 61/89/1 62/90/1 63/91/1 64/92/1
f 65/73/1 66/74/1 67/75/1 68/76/1
f 69/85/1 70/86/1 71/87/1 72/88/1
f 73/81/1 74/82/1 75/83/1 76/84/1
f 77/113/1 78/114/1 79/115/1 80/116/1
f 81/129/1 82/130/1 83/131/1 84/132/1
f 58/145/1 85/146/1 64/147/1 86/148/1
f 87/173/1 57/174/1 88/175/1 67/176/1
f 89/169/1 69/170/1 90/171/1 79/172/1
f 74/165/1 91/166/1 80/167/1 92/168/1
f 62/189/1 93/190/1 94/191/1 71/192/1
f 95/185/1 65/186/1 76/187/1 96/188/1
f 40/69/3 38/70/3 85/71/3 87/72/3
f 16/49/3 46/50/3 93/51/3 61/52/3
f 48/45/3 19/46/3 66/47/3 95/48/3
f 4/41/3 3/42/3 50/43/3 49/44/3
f 8/61/3 7/62/3 54/63/3 53/64/3
f 42/57/3 23/58/3 70/59/3 89/60/3
f 28/53/3 44/54/3 91/55/3 73/56/3
f 32/121/3 31/122/3 78/123/3 77/124/3
f 36/141/3 35/142/3 82/143/3 81/144/3
f 60/125/4 59/126/4 10/127/4 9/128/4
f 86/25/4 63/26/4 14/27/4 37/28/4
f 68/21/4 88/22/4 39/23/4 17/24/4
f 52/17/4 51/18/4 2/19/4 1/20/4
f 56/37/4 55/38/4 6/39/4 5/40/4
f 72/33/4 94/34/4 45/35/4 21/36/4
f 96/29/4 75/30/4 26/31/4 47/32/4
f 92/65/4 90/66/4 41/67/4 43/68/4
f 84/137/4 83/138/4 34/139/4 33/140/4
f 40/217/5 87/218/5 66/219/5 19/220/5
f 10/205/5 59/206/5 86/207/5 37/208/5
f 36/213/5 81/214/5 54/215/5 7/216/5
f 48/245/5 95/246/5 96/247/5 47/248/5
f 14/253/5 63/254/5 70/255/5 23/256/5
f 6/201/5 55/202/5 84/203/5 33/204/5
f 42/197/5 89/198/5 78/199/5 31/200/5
f 26/193/5 75/194/5 92/195/5 43/196/5
f 8/261/5 53/262/5 56/263/5 5/264/5
f 85/233/6 38/234/6 16/235/6 61/236/6
f 60/237/6 9/238/6 39/239/6 88/240/6
f 82/225/6 35/226/6 4/227/6 49/228/6
f 93/241/6 46/242/6 45/243/6 94/244/6
f 68/249/6 17/250/6 28/251/6 73/252/6
f 52/229/6 1/230/6 34/231/6 83/232/6
f 91/221/6 44/222/6 32/223/6 77/224/6
f 72/209/6 21/210/6 41/211/6 90/212/6
f 50/257/6 3/258/6 2/259/6 51/260/6
