# Blender v2.79 (sub 0) OBJ File: 'rocks.blend'
# www.blender.org
mtllib rock4_collision.mtl
o rock_4_collision_Cube.012
v -0.895834 0.249734 -0.213392
v -0.489418 -0.361781 -1.092740
v 0.091122 -0.239833 -1.070556
v 0.491528 0.737943 -1.177667
v 0.680264 -0.394366 0.029732
v 0.040965 0.587593 -0.340716
v 0.038492 -0.618390 -0.413882
v 0.326023 0.609231 -0.156672
v 0.391705 -0.610525 -0.030162
v -0.464817 -0.618891 0.022972
v -0.292447 -0.555252 -0.621872
v -0.422607 0.623526 -0.538357
v -0.565857 0.081922 -1.077381
v 0.100930 0.239399 -1.287332
v -0.097456 -0.082879 0.503216
v 0.214795 -0.138723 1.196177
v 0.780106 0.120278 -0.000775
v -0.745703 0.022345 -0.775157
v -0.228447 0.161098 -1.197221
v -0.502111 -0.082137 0.087701
v 0.443985 0.205376 -1.241126
v 0.512292 0.345511 -1.218026
v 0.683421 0.674674 -1.150969
v 0.803840 0.117286 -0.392336
v 0.688595 -0.375449 -0.149770
v 0.443796 -0.494493 -0.583361
v 0.323287 -0.244914 -0.913005
v 0.580491 0.578381 -0.100493
v 0.788711 0.591870 -0.239493
v 0.777898 0.442064 -0.042409
v 0.268368 0.408427 0.497260
v 0.196447 0.028074 1.190876
v 0.591250 -0.106251 1.080510
v 0.696325 -0.087213 0.947667
v 0.684407 -0.124924 1.029762
v 0.043443 0.720464 -1.183215
v 0.210122 0.740302 -1.177976
v 0.041337 0.732260 -1.133686
v -0.837819 -0.133051 -0.329928
v -0.743773 -0.284155 -0.250400
v 0.117937 -0.361632 0.817736
v -0.514071 -0.388015 -1.041362
v -0.484311 -0.514812 -0.744161
v -0.691955 -0.198599 -0.807405
v -0.813417 -0.130412 -0.455018
v 0.304854 -0.555954 0.730958
v 0.487408 -0.411712 1.030527
v 0.448981 -0.329906 1.125476
v -0.104027 -0.579953 0.457374
v -0.128213 -0.593723 0.427568
v -0.105818 -0.592283 0.447276
v 0.221627 -0.185081 1.197487
v -0.153825 0.609828 -1.169090
v -0.281688 0.528026 -1.160411
v -0.095991 0.706915 -1.042488
v -0.610883 0.354213 -1.066321
v -0.649433 0.589840 -0.706496
v -0.571582 0.613231 -0.592272
v -0.815629 0.472158 -0.716783
v -0.895470 0.336234 -0.357816
v -0.838896 0.303165 -0.104659
v -0.464059 0.581690 -0.336390
v -0.567168 0.287859 0.122903
v -0.079643 0.373640 0.429392
v -0.339680 0.642863 -0.905707
v -0.792692 0.417121 -0.813002
v -0.096553 0.117779 0.516673
v 0.097556 0.279288 0.824058
v -0.007669 0.726829 -1.107238
v -0.502234 -0.605039 -0.019862
v -0.606804 -0.509959 -0.128777
v -0.551758 -0.572032 -0.181406
v 0.817036 0.613538 -0.670053
v 0.820803 0.517958 -0.718102
v 0.775868 0.639180 -0.922591
v 0.596886 -0.359263 0.951814
v 0.699820 -0.322111 0.737264
v 0.691493 -0.205291 0.964574
v 0.094933 0.190923 0.982946
v 0.083343 0.254279 0.880227
v 0.049699 0.213025 0.878492
v -0.271716 -0.323415 -1.183019
v -0.196275 -0.225176 -1.213356
v -0.114199 -0.289316 -1.175027
v -0.203933 -0.341981 -1.133176
vn -0.7189 -0.3204 0.6169
vn -0.8429 -0.1181 -0.5249
vn 0.9956 0.0187 0.0920
vn 0.6060 -0.7935 -0.0555
vn 0.0500 0.9535 0.2972
vn -0.0097 0.9796 0.2009
vn -0.1505 -0.4049 -0.9019
vn -0.1748 0.1883 -0.9664
vn -0.1516 0.9438 0.2937
vn -0.0075 -0.7986 -0.6019
vn 0.1159 0.1877 -0.9754
vn 0.0327 -0.9988 0.0358
vn -0.3312 -0.0165 -0.9434
vn -0.7158 -0.0435 0.6970
vn 0.3685 -0.8789 -0.3028
vn 0.4389 -0.6030 -0.6661
vn 0.5143 -0.3797 0.7690
vn -0.8044 -0.5736 -0.1547
vn -0.1076 0.9661 -0.2347
vn 0.1724 0.1098 -0.9789
vn 0.2882 0.0621 0.9555
vn 0.0684 0.9936 0.0897
vn -0.1402 0.9849 0.1014
vn 0.0501 0.9967 0.0638
vn 0.3968 0.8109 0.4301
vn 0.9817 -0.1889 0.0257
vn 0.9978 0.0108 0.0652
vn 0.7836 -0.4891 -0.3830
vn 0.4284 0.7817 0.4532
vn -0.3900 -0.6613 0.6408
vn 0.0360 -0.9965 0.0756
vn -0.5032 0.7391 -0.4478
vn -0.4582 0.7203 -0.5208
vn -0.8721 0.4208 0.2499
vn -0.9394 -0.1865 -0.2877
vn -0.0812 0.9961 0.0341
vn -0.9837 -0.1533 -0.0943
vn 0.3994 0.8087 0.4318
vn -0.8401 -0.0388 0.5410
vn -0.3562 -0.0150 -0.9343
vn -0.8417 -0.1268 -0.5249
vn 0.9980 -0.0332 0.0536
vn -0.4671 0.7917 -0.3937
vn -0.9207 -0.0891 0.3799
vn -0.7691 -0.1286 0.6261
vn -0.7152 -0.0601 0.6964
vn -0.1309 0.9758 0.1753
vn -0.5449 0.3028 0.7820
vn -0.4091 0.8076 0.4248
vn -0.4907 0.8432 0.2198
vn 0.4173 0.7932 0.4434
vn -0.2198 0.9483 0.2290
vn 0.3398 0.7397 0.5809
vn -0.7131 -0.6969 0.0762
vn -0.1833 -0.9723 -0.1450
vn -0.4720 0.7120 -0.5198
vn 0.2880 0.9432 0.1656
vn -0.8884 -0.2583 0.3795
vn -0.3622 -0.8035 0.4725
vn -0.4724 0.7932 -0.3842
vn 0.9824 0.1134 -0.1486
vn 0.8447 -0.3580 -0.3978
vn 0.8028 -0.5178 0.2955
vn 0.5061 -0.8573 0.0943
vn -0.7098 0.5609 0.4261
vn -0.7740 0.6277 0.0836
vn 0.3997 -0.5364 -0.7433
vn 0.0197 -0.9189 -0.3940
vn -0.7628 -0.1429 0.6306
vn -0.6372 -0.1833 0.7486
vn -0.7836 -0.2866 0.5512
vn -0.8205 -0.1505 -0.5515
vn 0.5886 -0.8006 -0.1125
vn -0.0090 0.9638 0.2664
vn 0.4462 0.0366 -0.8942
vn 0.4468 0.0745 -0.8915
vn -0.2759 0.0562 -0.9595
vn -0.1825 0.1828 -0.9661
vn 0.2177 -0.9592 -0.1807
vn 0.2936 -0.8382 -0.4597
vn 0.1420 0.0932 -0.9855
vn 0.0055 0.2122 -0.9772
vn 0.0019 0.1024 -0.9947
vn 0.0319 -0.9989 0.0356
vn -0.1087 -0.9860 -0.1264
vn -0.2998 0.0521 -0.9526
vn -0.6692 -0.1861 0.7194
vn 0.1409 -0.8626 -0.4860
vn 0.3692 -0.8759 -0.3107
vn 0.0814 -0.4122 -0.9075
vn 0.6538 -0.4220 0.6281
vn 0.2937 -0.5864 0.7549
vn 0.2932 0.0057 0.9560
vn 0.6963 -0.3130 0.6459
vn 0.3455 0.0773 0.9352
vn -0.8080 -0.5644 -0.1693
vn -0.8103 -0.5640 -0.1595
vn -0.8025 -0.5742 -0.1622
vn -0.7951 -0.5830 -0.1674
vn -0.8052 -0.5722 -0.1558
vn 0.1251 0.9868 0.1027
vn -0.0326 0.9983 0.0481
vn 0.0080 0.9835 0.1810
vn 0.0002 0.9838 0.1795
vn -0.0122 0.9837 0.1795
vn -0.1464 0.9701 0.1935
vn -0.0864 0.9792 0.1834
vn 0.9781 -0.1988 0.0608
vn 0.9981 0.0147 0.0604
vn 0.9978 0.0062 0.0660
vn 0.9979 0.0114 0.0634
vn 0.8459 -0.3814 -0.3729
vn 0.7962 -0.3055 -0.5223
vn -0.5651 -0.4721 0.6766
vn -0.4518 -0.5251 0.7212
vn -0.4328 -0.6804 0.5914
vn -0.0090 -0.9995 0.0288
vn -0.4405 0.7982 -0.4109
vn -0.5142 0.7319 -0.4471
vn -0.2057 0.9768 -0.0598
vn -0.9593 -0.1150 -0.2578
vn -0.9772 -0.0895 -0.1925
vn -0.9594 -0.1158 -0.2572
vn -0.9786 -0.1316 -0.1580
vn 0.3732 0.7795 0.5031
vn 0.3781 0.8064 0.4547
vn 0.3969 0.8066 0.4380
vn 0.3963 0.7996 0.4512
vn -0.3779 -0.0331 -0.9253
vn -0.3370 0.0113 -0.9414
vn -0.8478 -0.1801 -0.4988
vn -0.8410 -0.1279 -0.5257
vn 0.9816 -0.1909 -0.0076
vn 0.9957 -0.0535 0.0762
vn 0.9907 -0.0214 0.1340
vn -0.9118 -0.0614 0.4059
vn -0.9208 -0.0892 0.3797
vn -0.9250 -0.0213 0.3795
vn -0.7671 -0.1291 0.6284
vn -0.7687 -0.1289 0.6265
vn -0.7583 -0.1297 0.6389
vn -0.7643 -0.0492 0.6430
vn -0.5720 0.7878 0.2285
vn -0.5599 0.8084 0.1816
vn -0.3335 0.8264 0.4538
vn -0.4825 0.8215 0.3040
vn -0.1491 0.9489 0.2782
vn -0.2036 -0.9696 -0.1357
vn -0.1335 -0.9842 -0.1161
vn -0.4743 0.7124 -0.5173
vn 0.0979 0.9901 0.1004
vn -0.9396 -0.1295 0.3168
vn -0.3940 -0.7691 0.5032
vn -0.2313 0.9442 -0.2347
vn 0.8459 -0.3576 -0.3957
vn 0.8470 -0.3464 -0.4032
vn 0.8448 -0.3582 -0.3976
vn 0.4945 -0.8617 0.1136
vn 0.5783 -0.8063 0.1238
vn 0.5072 -0.8587 0.0737
vn -0.8727 0.2083 0.4416
vn -0.7490 0.6493 0.1318
vn -0.0545 -0.5627 -0.8249
vn 0.0459 -0.9248 -0.3778
vn -0.0028 -0.8901 -0.4558
vn 0.0130 -0.9311 -0.3644
usemtl None
s off
f 61//1 39//1 20//1
f 18//2 56//2 13//2
f 17//3 30//3 34//3
f 9//4 25//4 5//4
f 8//5 31//5 28//5
f 62//6 6//6 12//6
f 19//7 14//7 3//7
f 53//8 36//8 14//8
f 64//9 68//9 31//9
f 27//10 26//10 7//10
f 37//11 22//11 14//11
f 7//12 51//12 50//12
f 56//13 19//13 13//13
f 67//14 20//14 15//14
f 85//15 3//15 11//15
f 3//16 21//16 27//16
f 78//17 33//17 76//17
f 72//18 40//18 43//18
f 38//19 37//19 36//19
f 23//20 22//20 4//20
f 33//21 32//21 16//21
f 28//22 73//22 75//22
f 6//23 8//23 4//23
f 65//24 12//24 6//24
f 34//25 33//25 35//25
f 25//26 17//26 5//26
f 74//27 29//27 24//27
f 27//28 21//28 24//28
f 31//29 34//29 30//29
f 49//30 46//30 41//30
f 51//31 9//31 46//31
f 65//32 53//32 54//32
f 65//33 56//33 57//33
f 61//34 60//34 1//34
f 44//35 45//35 18//35
f 65//36 58//36 12//36
f 1//37 60//37 45//37
f 79//38 33//38 34//38
f 49//39 41//39 15//39
f 13//40 83//40 82//40
f 44//41 13//41 2//41
f 34//42 78//42 77//42
f 53//43 55//43 69//43
f 79//44 81//44 16//44
f 20//45 71//45 70//45
f 15//46 20//46 50//46
f 58//47 62//47 12//47
f 64//48 63//48 67//48
f 62//49 63//49 64//49
f 60//50 61//50 62//50
f 28//51 31//51 30//51
f 64//52 8//52 6//52
f 29//53 28//53 30//53
f 70//54 71//54 72//54
f 72//55 11//55 10//55
f 57//56 66//56 59//56
f 8//57 23//57 4//57
f 41//58 16//58 15//58
f 41//59 48//59 52//59
f 69//60 36//60 53//60
f 73//61 74//61 75//61
f 22//62 75//62 74//62
f 76//63 77//63 78//63
f 46//64 77//64 76//64
f 79//65 80//65 81//65
f 81//66 80//66 68//66
f 83//67 85//67 82//67
f 42//68 85//68 43//68
f 40//69 20//69 39//69
f 63//70 61//70 20//70
f 1//71 39//71 61//71
f 18//72 66//72 56//72
f 9//73 26//73 25//73
f 62//74 64//74 6//74
f 3//75 84//75 83//75
f 83//76 19//76 3//76
f 14//77 19//77 54//77
f 54//78 53//78 14//78
f 9//79 7//79 26//79
f 3//80 27//80 7//80
f 21//81 14//81 22//81
f 36//82 37//82 14//82
f 4//83 22//83 37//83
f 50//84 10//84 7//84
f 11//85 7//85 10//85
f 56//86 54//86 19//86
f 67//87 63//87 20//87
f 7//88 11//88 3//88
f 85//89 84//89 3//89
f 3//90 14//90 21//90
f 47//91 76//91 48//91
f 78//92 35//92 33//92
f 33//93 16//93 48//93
f 48//94 76//94 33//94
f 16//95 52//95 48//95
f 45//96 44//96 43//96
f 42//97 43//97 44//97
f 72//98 71//98 40//98
f 40//99 39//99 45//99
f 45//100 43//100 40//100
f 75//101 23//101 28//101
f 28//102 29//102 73//102
f 4//103 37//103 6//103
f 38//104 6//104 37//104
f 6//105 38//105 69//105
f 55//106 65//106 6//106
f 6//107 69//107 55//107
f 25//108 24//108 17//108
f 17//109 24//109 30//109
f 74//110 73//110 29//110
f 29//111 30//111 24//111
f 24//112 25//112 26//112
f 26//113 27//113 24//113
f 49//114 50//114 51//114
f 51//115 46//115 49//115
f 47//116 41//116 46//116
f 51//117 7//117 9//117
f 65//118 55//118 53//118
f 65//119 54//119 56//119
f 65//120 57//120 58//120
f 18//121 45//121 60//121
f 39//122 1//122 45//122
f 60//123 59//123 18//123
f 66//124 18//124 59//124
f 31//125 68//125 34//125
f 80//126 79//126 68//126
f 32//127 33//127 79//127
f 34//128 68//128 79//128
f 82//129 2//129 13//129
f 13//130 19//130 83//130
f 2//131 42//131 44//131
f 44//132 18//132 13//132
f 77//133 5//133 17//133
f 17//134 34//134 77//134
f 35//135 78//135 34//135
f 15//136 16//136 81//136
f 32//137 79//137 16//137
f 81//138 67//138 15//138
f 70//139 10//139 20//139
f 20//140 40//140 71//140
f 10//141 50//141 20//141
f 49//142 15//142 50//142
f 58//143 57//143 59//143
f 59//144 60//144 58//144
f 61//145 63//145 62//145
f 62//146 58//146 60//146
f 64//147 31//147 8//147
f 10//148 70//148 72//148
f 72//149 43//149 11//149
f 57//150 56//150 66//150
f 8//151 28//151 23//151
f 41//152 52//152 16//152
f 41//153 47//153 48//153
f 69//154 38//154 36//154
f 74//155 24//155 21//155
f 21//156 22//156 74//156
f 23//157 75//157 22//157
f 76//158 47//158 46//158
f 46//159 9//159 5//159
f 5//160 77//160 46//160
f 68//161 64//161 67//161
f 67//162 81//162 68//162
f 83//163 84//163 85//163
f 11//164 43//164 85//164
f 42//165 2//165 85//165
f 82//166 85//166 2//166
