# This file was created with Minddesk Qubicle 3.0
# Get Qubicle at www.getqubicle.com

vn 0.0 0.0 1.0
vn 0.0 0.0 -1.0
vn -1.0 0.0 0.0
vn 1.0 0.0 0.0
vn 0.0 1.0 0.0
vn 0.0 -1.0 0.0

v 1.14000 0.90000 -1.50000
v 1.14000 0.00000 -1.50000
v 1.08000 0.00000 -1.50000
v 1.08000 0.90000 -1.50000
v 1.26000 0.78000 -1.50000
v 1.26000 0.12000 -1.50000
v 1.20000 0.12000 -1.50000
v 1.20000 0.78000 -1.50000
v 1.98000 0.78000 -1.50000
v 1.98000 0.12000 -1.50000
v 1.92000 0.12000 -1.50000
v 1.92000 0.78000 -1.50000
v 2.10000 0.90000 -1.50000
v 2.10000 0.00000 -1.50000
v 2.04000 0.00000 -1.50000
v 2.04000 0.90000 -1.50000
v 1.38000 0.42000 -1.50000
v 1.38000 0.18000 -1.50000
v 1.32000 0.18000 -1.50000
v 1.32000 0.42000 -1.50000
v 1.62000 0.66000 -1.50000
v 1.62000 0.48000 -1.50000
v 1.56000 0.48000 -1.50000
v 1.56000 0.66000 -1.50000
v 2.10000 -0.06000 -1.50000
v 1.08000 -0.06000 -1.50000
v 2.10000 0.96000 -1.50000
v 1.08000 0.96000 -1.50000
v 1.98000 0.06000 -1.50000
v 1.20000 0.06000 -1.50000
v 1.98000 0.84000 -1.50000
v 1.20000 0.84000 -1.50000
v 1.62000 0.42000 -1.50000
v 1.32000 0.48000 -1.50000
v 1.86000 0.72000 -1.50000
v 1.86000 0.66000 -1.50000
v 1.56000 0.72000 -1.50000
v 1.50000 0.60000 -1.50000
v 1.50000 0.54000 -1.50000
v 1.32000 0.54000 -1.50000
v 1.32000 0.60000 -1.50000
v 1.50000 0.72000 -1.50000
v 1.50000 0.66000 -1.50000
v 1.32000 0.66000 -1.50000
v 1.32000 0.72000 -1.50000
v 1.62000 0.24000 -1.50000
v 1.62000 0.18000 -1.50000
v 1.44000 0.18000 -1.50000
v 1.44000 0.24000 -1.50000
v 1.62000 0.36000 -1.50000
v 1.62000 0.30000 -1.50000
v 1.44000 0.30000 -1.50000
v 1.44000 0.36000 -1.50000
v 1.86000 0.24000 -1.50000
v 1.86000 0.18000 -1.50000
v 1.68000 0.18000 -1.50000
v 1.68000 0.24000 -1.50000
v 1.86000 0.36000 -1.50000
v 1.86000 0.30000 -1.50000
v 1.68000 0.30000 -1.50000
v 1.68000 0.36000 -1.50000
v 1.86000 0.48000 -1.50000
v 1.86000 0.42000 -1.50000
v 1.68000 0.42000 -1.50000
v 1.68000 0.48000 -1.50000
v 1.86000 0.60000 -1.50000
v 1.86000 0.54000 -1.50000
v 1.68000 0.54000 -1.50000
v 1.68000 0.60000 -1.50000
v 1.38000 0.66000 -1.50000
v 1.38000 0.60000 -1.50000
v 1.50000 0.30000 -1.50000
v 1.50000 0.24000 -1.50000
v 1.44000 0.60000 -1.50000
v 1.44000 0.66000 -1.50000
v 1.56000 0.24000 -1.50000
v 1.56000 0.30000 -1.50000
v 1.74000 0.30000 -1.50000
v 1.74000 0.24000 -1.50000
v 1.74000 0.54000 -1.50000
v 1.74000 0.48000 -1.50000
v 1.80000 0.24000 -1.50000
v 1.80000 0.30000 -1.50000
v 1.80000 0.48000 -1.50000
v 1.80000 0.54000 -1.50000
v 1.08000 0.90000 -1.44000
v 1.08000 0.00000 -1.44000
v 1.14000 0.00000 -1.44000
v 1.14000 0.90000 -1.44000
v 1.20000 0.78000 -1.44000
v 1.20000 0.12000 -1.44000
v 1.26000 0.12000 -1.44000
v 1.26000 0.78000 -1.44000
v 1.92000 0.78000 -1.44000
v 1.92000 0.12000 -1.44000
v 1.98000 0.12000 -1.44000
v 1.98000 0.78000 -1.44000
v 2.04000 0.90000 -1.44000
v 2.04000 0.00000 -1.44000
v 2.10000 0.00000 -1.44000
v 2.10000 0.90000 -1.44000
v 1.32000 0.42000 -1.44000
v 1.32000 0.18000 -1.44000
v 1.38000 0.18000 -1.44000
v 1.38000 0.42000 -1.44000
v 1.56000 0.66000 -1.44000
v 1.56000 0.48000 -1.44000
v 1.62000 0.48000 -1.44000
v 1.62000 0.66000 -1.44000
v 1.08000 -0.06000 -1.44000
v 2.10000 -0.06000 -1.44000
v 1.08000 0.96000 -1.44000
v 2.10000 0.96000 -1.44000
v 1.20000 0.06000 -1.44000
v 1.98000 0.06000 -1.44000
v 1.20000 0.84000 -1.44000
v 1.98000 0.84000 -1.44000
v 1.32000 0.48000 -1.44000
v 1.62000 0.42000 -1.44000
v 1.56000 0.72000 -1.44000
v 1.86000 0.66000 -1.44000
v 1.86000 0.72000 -1.44000
v 1.32000 0.60000 -1.44000
v 1.32000 0.54000 -1.44000
v 1.50000 0.54000 -1.44000
v 1.50000 0.60000 -1.44000
v 1.32000 0.72000 -1.44000
v 1.32000 0.66000 -1.44000
v 1.50000 0.66000 -1.44000
v 1.50000 0.72000 -1.44000
v 1.44000 0.24000 -1.44000
v 1.44000 0.18000 -1.44000
v 1.62000 0.18000 -1.44000
v 1.62000 0.24000 -1.44000
v 1.44000 0.36000 -1.44000
v 1.44000 0.30000 -1.44000
v 1.62000 0.30000 -1.44000
v 1.62000 0.36000 -1.44000
v 1.68000 0.24000 -1.44000
v 1.68000 0.18000 -1.44000
v 1.86000 0.18000 -1.44000
v 1.86000 0.24000 -1.44000
v 1.68000 0.36000 -1.44000
v 1.68000 0.30000 -1.44000
v 1.86000 0.30000 -1.44000
v 1.86000 0.36000 -1.44000
v 1.68000 0.48000 -1.44000
v 1.68000 0.42000 -1.44000
v 1.86000 0.42000 -1.44000
v 1.86000 0.48000 -1.44000
v 1.68000 0.60000 -1.44000
v 1.68000 0.54000 -1.44000
v 1.86000 0.54000 -1.44000
v 1.86000 0.60000 -1.44000
v 1.38000 0.60000 -1.44000
v 1.38000 0.66000 -1.44000
v 1.50000 0.24000 -1.44000
v 1.50000 0.30000 -1.44000
v 1.44000 0.66000 -1.44000
v 1.44000 0.60000 -1.44000
v 1.56000 0.30000 -1.44000
v 1.56000 0.24000 -1.44000
v 1.74000 0.24000 -1.44000
v 1.74000 0.30000 -1.44000
v 1.74000 0.48000 -1.44000
v 1.74000 0.54000 -1.44000
v 1.80000 0.30000 -1.44000
v 1.80000 0.24000 -1.44000
v 1.80000 0.54000 -1.44000
v 1.80000 0.48000 -1.44000

vt 0.01563 0.28125
vt 0.01563 0.01563
vt 0.03125 0.01563
vt 0.03125 0.28125
vt 0.06250 0.28125
vt 0.06250 0.01563
vt 0.07813 0.01563
vt 0.07813 0.28125
vt 0.10938 0.25000
vt 0.10938 0.01563
vt 0.12500 0.01563
vt 0.12500 0.25000
vt 0.15625 0.25000
vt 0.15625 0.01563
vt 0.17188 0.01563
vt 0.17188 0.25000
vt 0.20313 0.25000
vt 0.20313 0.01563
vt 0.21875 0.01563
vt 0.21875 0.25000
vt 0.25000 0.25000
vt 0.25000 0.01563
vt 0.26563 0.01563
vt 0.26563 0.25000
vt 0.29688 0.25000
vt 0.29688 0.01563
vt 0.31250 0.01563
vt 0.31250 0.25000
vt 0.34375 0.25000
vt 0.34375 0.01563
vt 0.35938 0.01563
vt 0.35938 0.25000
vt 0.39063 0.21875
vt 0.39063 0.01563
vt 0.40625 0.01563
vt 0.40625 0.21875
vt 0.43750 0.21875
vt 0.43750 0.01563
vt 0.45313 0.01563
vt 0.45313 0.21875
vt 0.48438 0.18750
vt 0.48438 0.01563
vt 0.50000 0.01563
vt 0.50000 0.18750
vt 0.53125 0.18750
vt 0.53125 0.01563
vt 0.54688 0.01563
vt 0.54688 0.18750
vt 0.57813 0.18750
vt 0.57813 0.01563
vt 0.59375 0.01563
vt 0.59375 0.18750
vt 0.62500 0.18750
vt 0.62500 0.01563
vt 0.64063 0.01563
vt 0.64063 0.18750
vt 0.67188 0.18750
vt 0.67188 0.01563
vt 0.68750 0.01563
vt 0.68750 0.18750
vt 0.71875 0.18750
vt 0.71875 0.01563
vt 0.73438 0.01563
vt 0.73438 0.18750
vt 0.76563 0.09375
vt 0.76563 0.01563
vt 0.78125 0.01563
vt 0.78125 0.09375
vt 0.81250 0.07813
vt 0.81250 0.01563
vt 0.82813 0.01563
vt 0.82813 0.07813
vt 0.85938 0.07813
vt 0.85938 0.01563
vt 0.87500 0.01563
vt 0.87500 0.07813
vt 0.90625 0.07813
vt 0.90625 0.01563
vt 0.92188 0.01563
vt 0.92188 0.07813
vt 0.95313 0.07813
vt 0.95313 0.01563
vt 0.96875 0.01563
vt 0.96875 0.07813
vt 0.76563 0.18750
vt 0.76563 0.12500
vt 0.78125 0.12500
vt 0.78125 0.18750
vt 0.81250 0.17188
vt 0.81250 0.12500
vt 0.82813 0.12500
vt 0.82813 0.17188
vt 0.85938 0.17188
vt 0.85938 0.12500
vt 0.87500 0.12500
vt 0.87500 0.17188
vt 0.90625 0.17188
vt 0.90625 0.12500
vt 0.92188 0.12500
vt 0.92188 0.17188
vt 0.95313 0.17188
vt 0.95313 0.12500
vt 0.96875 0.12500
vt 0.96875 0.17188
vt 0.01563 0.35938
vt 0.01563 0.31250
vt 0.03125 0.31250
vt 0.03125 0.35938
vt 0.06250 0.35938
vt 0.06250 0.31250
vt 0.07813 0.31250
vt 0.07813 0.35938
vt 0.10938 0.35938
vt 0.10938 0.31250
vt 0.12500 0.31250
vt 0.12500 0.35938
vt 0.15625 0.35938
vt 0.15625 0.31250
vt 0.17188 0.31250
vt 0.17188 0.35938
vt 0.20313 0.35938
vt 0.20313 0.31250
vt 0.21875 0.31250
vt 0.21875 0.35938
vt 0.25000 0.35938
vt 0.25000 0.31250
vt 0.26563 0.31250
vt 0.26563 0.35938
vt 0.29688 0.32813
vt 0.29688 0.31250
vt 0.56250 0.31250
vt 0.56250 0.32813
vt 0.59375 0.32813
vt 0.59375 0.31250
vt 0.85938 0.31250
vt 0.85938 0.32813
vt 0.01563 0.40625
vt 0.01563 0.39063
vt 0.28125 0.39063
vt 0.28125 0.40625
vt 0.31250 0.40625
vt 0.31250 0.39063
vt 0.57813 0.39063
vt 0.57813 0.40625
vt 0.60938 0.40625
vt 0.60938 0.39063
vt 0.87500 0.39063
vt 0.87500 0.40625
vt 0.01563 0.45313
vt 0.01563 0.43750
vt 0.28125 0.43750
vt 0.28125 0.45313
vt 0.31250 0.45313
vt 0.31250 0.43750
vt 0.54688 0.43750
vt 0.54688 0.45313
vt 0.57813 0.45313
vt 0.57813 0.43750
vt 0.81250 0.43750
vt 0.81250 0.45313
vt 0.01563 0.50000
vt 0.01563 0.48438
vt 0.21875 0.48438
vt 0.21875 0.50000
vt 0.25000 0.50000
vt 0.25000 0.48438
vt 0.45313 0.48438
vt 0.45313 0.50000
vt 0.48438 0.50000
vt 0.48438 0.48438
vt 0.68750 0.48438
vt 0.68750 0.50000
vt 0.71875 0.50000
vt 0.71875 0.48438
vt 0.92188 0.48438
vt 0.92188 0.50000
vt 0.01563 0.54688
vt 0.01563 0.53125
vt 0.21875 0.53125
vt 0.21875 0.54688
vt 0.25000 0.54688
vt 0.25000 0.53125
vt 0.45313 0.53125
vt 0.45313 0.54688
vt 0.48438 0.54688
vt 0.48438 0.53125
vt 0.65625 0.53125
vt 0.65625 0.54688
vt 0.68750 0.54688
vt 0.68750 0.53125
vt 0.85938 0.53125
vt 0.85938 0.54688
vt 0.89063 0.32813
vt 0.89063 0.31250
vt 0.96875 0.31250
vt 0.96875 0.32813
vt 0.90625 0.40625
vt 0.90625 0.39063
vt 0.98438 0.39063
vt 0.98438 0.40625
vt 0.84375 0.45313
vt 0.84375 0.43750
vt 0.92188 0.43750
vt 0.92188 0.45313
vt 0.89063 0.54688
vt 0.89063 0.53125
vt 0.96875 0.53125
vt 0.96875 0.54688
vt 0.01563 0.59375
vt 0.01563 0.57813
vt 0.09375 0.57813
vt 0.09375 0.59375
vt 0.12500 0.59375
vt 0.12500 0.57813
vt 0.18750 0.57813
vt 0.18750 0.59375
vt 0.21875 0.59375
vt 0.21875 0.57813
vt 0.28125 0.57813
vt 0.28125 0.59375
vt 0.31250 0.59375
vt 0.31250 0.57813
vt 0.37500 0.57813
vt 0.37500 0.59375
vt 0.40625 0.59375
vt 0.40625 0.57813
vt 0.45313 0.57813
vt 0.45313 0.59375
vt 0.48438 0.59375
vt 0.48438 0.57813
vt 0.53125 0.57813
vt 0.53125 0.59375
vt 0.56250 0.59375
vt 0.56250 0.57813
vt 0.60938 0.57813
vt 0.60938 0.59375
vt 0.64063 0.59375
vt 0.64063 0.57813
vt 0.68750 0.57813
vt 0.68750 0.59375
vt 0.71875 0.59375
vt 0.71875 0.57813
vt 0.76563 0.57813
vt 0.76563 0.59375
vt 0.79688 0.59375
vt 0.79688 0.57813
vt 0.84375 0.57813
vt 0.84375 0.59375
vt 0.87500 0.59375
vt 0.87500 0.57813
vt 0.92188 0.57813
vt 0.92188 0.59375
vt 0.01563 0.64063
vt 0.01563 0.62500
vt 0.06250 0.62500
vt 0.06250 0.64063
vt 0.09375 0.64063
vt 0.09375 0.62500
vt 0.14063 0.62500
vt 0.14063 0.64063
vt 0.17188 0.64063
vt 0.17188 0.62500
vt 0.21875 0.62500
vt 0.21875 0.64063
vt 0.25000 0.64063
vt 0.25000 0.62500
vt 0.29688 0.62500
vt 0.29688 0.64063
vt 0.32813 0.64063
vt 0.32813 0.62500
vt 0.37500 0.62500
vt 0.37500 0.64063
vt 0.40625 0.64063
vt 0.40625 0.62500
vt 0.45313 0.62500
vt 0.45313 0.64063
vt 0.48438 0.64063
vt 0.48438 0.62500
vt 0.53125 0.62500
vt 0.53125 0.64063
vt 0.56250 0.64063
vt 0.56250 0.62500
vt 0.60938 0.62500
vt 0.60938 0.64063
vt 0.64063 0.64063
vt 0.64063 0.62500
vt 0.68750 0.62500
vt 0.68750 0.64063
vt 0.71875 0.64063
vt 0.71875 0.62500
vt 0.76563 0.62500
vt 0.76563 0.64063
vt 0.79688 0.64063
vt 0.79688 0.62500
vt 0.84375 0.62500
vt 0.84375 0.64063
vt 0.87500 0.64063
vt 0.87500 0.62500
vt 0.92188 0.62500
vt 0.92188 0.64063
vt 0.01563 0.68750
vt 0.01563 0.67188
vt 0.06250 0.67188
vt 0.06250 0.68750
vt 0.09375 0.68750
vt 0.09375 0.67188
vt 0.14063 0.67188
vt 0.14063 0.68750
vt 0.17188 0.68750
vt 0.17188 0.67188
vt 0.21875 0.67188
vt 0.21875 0.68750
vt 0.25000 0.68750
vt 0.25000 0.67188
vt 0.29688 0.67188
vt 0.29688 0.68750
vt 0.32813 0.68750
vt 0.32813 0.67188
vt 0.37500 0.67188
vt 0.37500 0.68750
vt 0.95313 0.45313
vt 0.95313 0.43750
vt 0.96875 0.43750
vt 0.96875 0.45313
vt 0.95313 0.50000
vt 0.95313 0.48438
vt 0.96875 0.48438
vt 0.96875 0.50000
vt 0.95313 0.59375
vt 0.95313 0.57813
vt 0.96875 0.57813
vt 0.96875 0.59375
vt 0.95313 0.64063
vt 0.95313 0.62500
vt 0.96875 0.62500
vt 0.96875 0.64063
vt 0.40625 0.68750
vt 0.40625 0.67188
vt 0.42188 0.67188
vt 0.42188 0.68750
vt 0.45313 0.68750
vt 0.45313 0.67188
vt 0.46875 0.67188
vt 0.46875 0.68750
vt 0.50000 0.68750
vt 0.50000 0.67188
vt 0.51563 0.67188
vt 0.51563 0.68750
vt 0.54688 0.68750
vt 0.54688 0.67188
vt 0.56250 0.67188
vt 0.56250 0.68750
vt 0.59375 0.68750
vt 0.59375 0.67188
vt 0.60938 0.67188
vt 0.60938 0.68750
vt 0.64063 0.68750
vt 0.64063 0.67188
vt 0.65625 0.67188
vt 0.65625 0.68750
vt 0.68750 0.68750
vt 0.68750 0.67188
vt 0.70313 0.67188
vt 0.70313 0.68750
vt 0.73438 0.68750
vt 0.73438 0.67188
vt 0.75000 0.67188
vt 0.75000 0.68750
vt 0.78125 0.68750
vt 0.78125 0.67188
vt 0.79688 0.67188
vt 0.79688 0.68750
vt 0.82813 0.68750
vt 0.82813 0.67188
vt 0.84375 0.67188
vt 0.84375 0.68750
vt 0.87500 0.68750
vt 0.87500 0.67188
vt 0.89063 0.67188
vt 0.89063 0.68750
vt 0.92188 0.68750
vt 0.92188 0.67188
vt 0.93750 0.67188
vt 0.93750 0.68750
vt 0.96875 0.68750
vt 0.96875 0.67188
vt 0.98438 0.67188
vt 0.98438 0.68750
vt 0.01563 0.73438
vt 0.01563 0.71875
vt 0.03125 0.71875
vt 0.03125 0.73438
vt 0.06250 0.73438
vt 0.06250 0.71875
vt 0.07813 0.71875
vt 0.07813 0.73438
vt 0.10938 0.73438
vt 0.10938 0.71875
vt 0.12500 0.71875
vt 0.12500 0.73438
vt 0.15625 0.73438
vt 0.15625 0.71875
vt 0.17188 0.71875
vt 0.17188 0.73438
vt 0.20313 0.73438
vt 0.20313 0.71875
vt 0.21875 0.71875
vt 0.21875 0.73438
vt 0.25000 0.73438
vt 0.25000 0.71875
vt 0.26563 0.71875
vt 0.26563 0.73438
vt 0.29688 0.73438
vt 0.29688 0.71875
vt 0.31250 0.71875
vt 0.31250 0.73438
vt 0.34375 0.73438
vt 0.34375 0.71875
vt 0.35938 0.71875
vt 0.35938 0.73438
vt 0.39063 0.73438
vt 0.39063 0.71875
vt 0.40625 0.71875
vt 0.40625 0.73438
vt 0.43750 0.73438
vt 0.43750 0.71875
vt 0.45313 0.71875
vt 0.45313 0.73438
vt 0.48438 0.73438
vt 0.48438 0.71875
vt 0.50000 0.71875
vt 0.50000 0.73438
vt 0.53125 0.73438
vt 0.53125 0.71875
vt 0.54688 0.71875
vt 0.54688 0.73438
vt 0.57813 0.73438
vt 0.57813 0.71875
vt 0.59375 0.71875
vt 0.59375 0.73438
vt 0.62500 0.73438
vt 0.62500 0.71875
vt 0.64063 0.71875
vt 0.64063 0.73438
vt 0.67188 0.73438
vt 0.67188 0.71875
vt 0.68750 0.71875
vt 0.68750 0.73438
vt 0.71875 0.73438
vt 0.71875 0.71875
vt 0.73438 0.71875
vt 0.73438 0.73438
vt 0.76563 0.73438
vt 0.76563 0.71875
vt 0.78125 0.71875
vt 0.78125 0.73438

g NeonSign_PixelPizza
f 1/21/2 2/22/2 3/23/2 4/24/2
f 5/45/2 6/46/2 7/47/2 8/48/2
f 9/49/2 10/50/2 11/51/2 12/52/2
f 13/29/2 14/30/2 15/31/2 16/32/2
f 17/69/2 18/70/2 19/71/2 20/72/2
f 21/113/2 22/114/2 23/115/2 24/116/2
f 14/137/2 25/138/2 26/139/2 3/140/2
f 27/145/2 13/146/2 4/147/2 28/148/2
f 10/169/2 29/170/2 30/171/2 7/172/2
f 31/181/2 9/182/2 8/183/2 32/184/2
f 22/197/2 33/198/2 20/199/2 34/200/2
f 35/193/2 36/194/2 24/195/2 37/196/2
f 38/265/2 39/266/2 40/267/2 41/268/2
f 42/273/2 43/274/2 44/275/2 45/276/2
f 46/269/2 47/270/2 48/271/2 49/272/2
f 50/313/2 51/314/2 52/315/2 53/316/2
f 54/317/2 55/318/2 56/319/2 57/320/2
f 58/309/2 59/310/2 60/311/2 61/312/2
f 62/301/2 63/302/2 64/303/2 65/304/2
f 66/305/2 67/306/2 68/307/2 69/308/2
f 70/337/2 71/338/2 41/339/2 44/340/2
f 72/341/2 73/342/2 49/343/2 52/344/2
f 43/345/2 38/346/2 74/347/2 75/348/2
f 51/333/2 46/334/2 76/335/2 77/336/2
f 78/325/2 79/326/2 57/327/2 60/328/2
f 80/321/2 81/322/2 65/323/2 68/324/2
f 59/329/2 54/330/2 82/331/2 83/332/2
f 67/417/2 62/418/2 84/419/2 85/420/2
f 86/9/1 87/10/1 88/11/1 89/12/1
f 90/53/1 91/54/1 92/55/1 93/56/1
f 94/61/1 95/62/1 96/63/1 97/64/1
f 98/13/1 99/14/1 100/15/1 101/16/1
f 102/85/1 103/86/1 104/87/1 105/88/1
f 106/105/1 107/106/1 108/107/1 109/108/1
f 87/141/1 110/142/1 111/143/1 100/144/1
f 112/129/1 86/130/1 101/131/1 113/132/1
f 91/161/1 114/162/1 115/163/1 96/164/1
f 116/165/1 90/166/1 97/167/1 117/168/1
f 118/209/1 102/210/1 119/211/1 108/212/1
f 120/205/1 106/206/1 121/207/1 122/208/1
f 123/245/1 124/246/1 125/247/1 126/248/1
f 127/241/1 128/242/1 129/243/1 130/244/1
f 131/253/1 132/254/1 133/255/1 134/256/1
f 135/249/1 136/250/1 137/251/1 138/252/1
f 139/229/1 140/230/1 141/231/1 142/232/1
f 143/225/1 144/226/1 145/227/1 146/228/1
f 147/237/1 148/238/1 149/239/1 150/240/1
f 151/233/1 152/234/1 153/235/1 154/236/1
f 128/421/1 123/422/1 155/423/1 156/424/1
f 136/425/1 131/426/1 157/427/1 158/428/1
f 159/405/1 160/406/1 126/407/1 129/408/1
f 161/409/1 162/410/1 134/411/1 137/412/1
f 144/413/1 139/414/1 163/415/1 164/416/1
f 152/429/1 147/430/1 165/431/1 166/432/1
f 167/445/1 168/446/1 142/447/1 145/448/1
f 169/449/1 170/450/1 150/451/1 153/452/1
f 28/5/3 26/6/3 110/7/3 112/8/3
f 32/37/3 30/38/3 114/39/3 116/40/3
f 12/57/3 11/58/3 95/59/3 94/60/3
f 16/25/3 15/26/3 99/27/3 98/28/3
f 34/65/3 19/66/3 103/67/3 118/68/3
f 45/93/3 40/94/3 124/95/3 127/96/3
f 53/89/3 48/90/3 132/91/3 135/92/3
f 37/77/3 23/78/3 107/79/3 120/80/3
f 61/117/3 56/118/3 140/119/3 143/120/3
f 69/109/3 64/110/3 148/111/3 151/112/3
f 75/433/3 74/434/3 160/435/3 159/436/3
f 77/437/3 76/438/3 162/439/3 161/440/3
f 83/441/3 82/442/3 168/443/3 167/444/3
f 85/401/3 84/402/3 170/403/3 169/404/3
f 113/1/4 111/2/4 25/3/4 27/4/4
f 89/17/4 88/18/4 2/19/4 1/20/4
f 93/41/4 92/42/4 6/43/4 5/44/4
f 117/33/4 115/34/4 29/35/4 31/36/4
f 105/73/4 104/74/4 18/75/4 17/76/4
f 130/125/4 125/126/4 39/127/4 42/128/4
f 138/121/4 133/122/4 47/123/4 50/124/4
f 109/81/4 119/82/4 33/83/4 21/84/4
f 146/97/4 141/98/4 55/99/4 58/100/4
f 154/101/4 149/102/4 63/103/4 66/104/4
f 156/365/4 155/366/4 71/367/4 70/368/4
f 158/369/4 157/370/4 73/371/4 72/372/4
f 164/349/4 163/350/4 79/351/4 78/352/4
f 166/353/4 165/354/4 81/355/4 80/356/4
f 122/357/4 121/358/4 36/359/4 35/360/4
f 28/149/5 112/150/5 113/151/5 27/152/5
f 2/157/5 88/158/5 99/159/5 15/160/5
f 32/173/5 116/174/5 117/175/5 31/176/5
f 6/189/5 92/190/5 95/191/5 11/192/5
f 37/201/5 120/202/5 122/203/5 35/204/5
f 34/221/5 118/222/5 107/223/5 23/224/5
f 45/257/5 127/258/5 130/259/5 42/260/5
f 53/261/5 135/262/5 138/263/5 50/264/5
f 61/277/5 143/278/5 146/279/5 58/280/5
f 69/293/5 151/294/5 154/295/5 66/296/5
f 71/373/5 155/374/5 160/375/5 74/376/5
f 73/389/5 157/390/5 162/391/5 76/392/5
f 79/393/5 163/394/5 168/395/5 82/396/5
f 81/397/5 165/398/5 170/399/5 84/400/5
f 110/133/6 26/134/6 25/135/6 111/136/6
f 89/153/6 1/154/6 16/155/6 98/156/6
f 114/177/6 30/178/6 29/179/6 115/180/6
f 93/185/6 5/186/6 12/187/6 94/188/6
f 124/297/6 40/298/6 39/299/6 125/300/6
f 105/213/6 17/214/6 33/215/6 119/216/6
f 132/289/6 48/290/6 47/291/6 133/292/6
f 109/217/6 21/218/6 36/219/6 121/220/6
f 140/281/6 56/282/6 55/283/6 141/284/6
f 148/285/6 64/286/6 63/287/6 149/288/6
f 103/377/6 19/378/6 18/379/6 104/380/6
f 156/381/6 70/382/6 75/383/6 159/384/6
f 158/385/6 72/386/6 77/387/6 161/388/6
f 164/361/6 78/362/6 83/363/6 167/364/6
f 166/453/6 80/454/6 85/455/6 169/456/6
