# This file was created with Minddesk Qubicle 3.0
# Get Qubicle at www.getqubicle.com

vn 0.0 0.0 1.0
vn 0.0 0.0 -1.0
vn -1.0 0.0 0.0
vn 1.0 0.0 0.0
vn 0.0 1.0 0.0
vn 0.0 -1.0 0.0

v -1.32000 0.24000 -1.20000
v -1.32000 0.06000 -1.20000
v -1.38000 0.06000 -1.20000
v -1.38000 0.24000 -1.20000
v -1.32000 0.60000 -1.20000
v -1.32000 0.42000 -1.20000
v -1.38000 0.42000 -1.20000
v -1.38000 0.60000 -1.20000
v -1.14000 0.24000 -1.20000
v -1.14000 0.06000 -1.20000
v -1.20000 0.06000 -1.20000
v -1.20000 0.24000 -1.20000
v -0.84000 0.30000 -1.20000
v -0.84000 0.12000 -1.20000
v -0.90000 0.12000 -1.20000
v -0.90000 0.30000 -1.20000
v -0.72000 0.30000 -1.20000
v -0.72000 0.06000 -1.20000
v -0.78000 0.06000 -1.20000
v -0.78000 0.30000 -1.20000
v -1.02000 0.12000 -1.20000
v -1.02000 0.00000 -1.20000
v -1.08000 0.00000 -1.20000
v -1.08000 0.12000 -1.20000
v -1.02000 0.30000 -1.20000
v -1.02000 0.18000 -1.20000
v -1.08000 0.18000 -1.20000
v -1.08000 0.30000 -1.20000
v -1.02000 0.48000 -1.20000
v -1.02000 0.36000 -1.20000
v -1.08000 0.36000 -1.20000
v -1.08000 0.48000 -1.20000
v -0.84000 0.48000 -1.20000
v -0.84000 0.36000 -1.20000
v -0.90000 0.36000 -1.20000
v -0.90000 0.48000 -1.20000
v -0.42000 0.30000 -1.20000
v -0.42000 0.18000 -1.20000
v -0.48000 0.18000 -1.20000
v -0.48000 0.30000 -1.20000
v -0.42000 0.48000 -1.20000
v -0.42000 0.36000 -1.20000
v -0.48000 0.36000 -1.20000
v -0.48000 0.48000 -1.20000
v -0.42000 0.66000 -1.20000
v -0.42000 0.54000 -1.20000
v -0.48000 0.54000 -1.20000
v -0.48000 0.66000 -1.20000
v -0.30000 0.12000 -1.20000
v -0.30000 0.00000 -1.20000
v -0.36000 0.00000 -1.20000
v -0.36000 0.12000 -1.20000
v -0.18000 0.30000 -1.20000
v -0.18000 0.18000 -1.20000
v -0.24000 0.18000 -1.20000
v -0.24000 0.30000 -1.20000
v -0.18000 0.48000 -1.20000
v -0.18000 0.36000 -1.20000
v -0.24000 0.36000 -1.20000
v -0.24000 0.48000 -1.20000
v -0.18000 0.66000 -1.20000
v -0.18000 0.54000 -1.20000
v -0.24000 0.54000 -1.20000
v -0.24000 0.66000 -1.20000
v -0.18000 0.12000 -1.20000
v -0.48000 0.12000 -1.20000
v -1.14000 0.00000 -1.20000
v -1.38000 0.00000 -1.20000
v -1.14000 0.30000 -1.20000
v -1.38000 0.30000 -1.20000
v -1.14000 0.42000 -1.20000
v -1.14000 0.36000 -1.20000
v -1.38000 0.36000 -1.20000
v -1.14000 0.66000 -1.20000
v -1.14000 0.60000 -1.20000
v -1.38000 0.66000 -1.20000
v -0.84000 0.54000 -1.20000
v -1.08000 0.54000 -1.20000
v -0.84000 0.66000 -1.20000
v -0.84000 0.60000 -1.20000
v -1.08000 0.60000 -1.20000
v -1.08000 0.66000 -1.20000
v -0.54000 0.06000 -1.20000
v -0.54000 0.00000 -1.20000
v -0.78000 0.00000 -1.20000
v -0.54000 0.42000 -1.20000
v -0.54000 0.36000 -1.20000
v -0.78000 0.36000 -1.20000
v -0.78000 0.42000 -1.20000
v -0.54000 0.66000 -1.20000
v -0.54000 0.60000 -1.20000
v -0.78000 0.60000 -1.20000
v -0.78000 0.66000 -1.20000
v -0.96000 0.18000 -1.20000
v -0.96000 0.12000 -1.20000
v -0.84000 0.06000 -1.20000
v -0.96000 0.06000 -1.20000
v -0.60000 0.54000 -1.20000
v -0.60000 0.48000 -1.20000
v -0.72000 0.48000 -1.20000
v -0.72000 0.54000 -1.20000
v -1.02000 0.60000 -1.20000
v -1.02000 0.54000 -1.20000
v -0.84000 0.00000 -1.20000
v -0.90000 0.00000 -1.20000
v -0.90000 0.06000 -1.20000
v -0.90000 0.54000 -1.20000
v -0.90000 0.60000 -1.20000
v -0.72000 0.60000 -1.20000
v -0.78000 0.54000 -1.20000
v -0.54000 0.48000 -1.20000
v -0.60000 0.42000 -1.20000
v -1.38000 0.24000 -1.14000
v -1.38000 0.06000 -1.14000
v -1.32000 0.06000 -1.14000
v -1.32000 0.24000 -1.14000
v -1.38000 0.60000 -1.14000
v -1.38000 0.42000 -1.14000
v -1.32000 0.42000 -1.14000
v -1.32000 0.60000 -1.14000
v -1.20000 0.24000 -1.14000
v -1.20000 0.06000 -1.14000
v -1.14000 0.06000 -1.14000
v -1.14000 0.24000 -1.14000
v -0.90000 0.30000 -1.14000
v -0.90000 0.12000 -1.14000
v -0.84000 0.12000 -1.14000
v -0.84000 0.30000 -1.14000
v -0.78000 0.30000 -1.14000
v -0.78000 0.06000 -1.14000
v -0.72000 0.06000 -1.14000
v -0.72000 0.30000 -1.14000
v -1.08000 0.12000 -1.14000
v -1.08000 0.00000 -1.14000
v -1.02000 0.00000 -1.14000
v -1.02000 0.12000 -1.14000
v -1.08000 0.30000 -1.14000
v -1.08000 0.18000 -1.14000
v -1.02000 0.18000 -1.14000
v -1.02000 0.30000 -1.14000
v -1.08000 0.48000 -1.14000
v -1.08000 0.36000 -1.14000
v -1.02000 0.36000 -1.14000
v -1.02000 0.48000 -1.14000
v -0.90000 0.48000 -1.14000
v -0.90000 0.36000 -1.14000
v -0.84000 0.36000 -1.14000
v -0.84000 0.48000 -1.14000
v -0.48000 0.30000 -1.14000
v -0.48000 0.18000 -1.14000
v -0.42000 0.18000 -1.14000
v -0.42000 0.30000 -1.14000
v -0.48000 0.48000 -1.14000
v -0.48000 0.36000 -1.14000
v -0.42000 0.36000 -1.14000
v -0.42000 0.48000 -1.14000
v -0.48000 0.66000 -1.14000
v -0.48000 0.54000 -1.14000
v -0.42000 0.54000 -1.14000
v -0.42000 0.66000 -1.14000
v -0.36000 0.12000 -1.14000
v -0.36000 0.00000 -1.14000
v -0.30000 0.00000 -1.14000
v -0.30000 0.12000 -1.14000
v -0.24000 0.30000 -1.14000
v -0.24000 0.18000 -1.14000
v -0.18000 0.18000 -1.14000
v -0.18000 0.30000 -1.14000
v -0.24000 0.48000 -1.14000
v -0.24000 0.36000 -1.14000
v -0.18000 0.36000 -1.14000
v -0.18000 0.48000 -1.14000
v -0.24000 0.66000 -1.14000
v -0.24000 0.54000 -1.14000
v -0.18000 0.54000 -1.14000
v -0.18000 0.66000 -1.14000
v -0.48000 0.12000 -1.14000
v -0.18000 0.12000 -1.14000
v -1.38000 0.00000 -1.14000
v -1.14000 0.00000 -1.14000
v -1.38000 0.30000 -1.14000
v -1.14000 0.30000 -1.14000
v -1.38000 0.36000 -1.14000
v -1.14000 0.36000 -1.14000
v -1.14000 0.42000 -1.14000
v -1.38000 0.66000 -1.14000
v -1.14000 0.60000 -1.14000
v -1.14000 0.66000 -1.14000
v -1.08000 0.54000 -1.14000
v -0.84000 0.54000 -1.14000
v -1.08000 0.66000 -1.14000
v -1.08000 0.60000 -1.14000
v -0.84000 0.60000 -1.14000
v -0.84000 0.66000 -1.14000
v -0.78000 0.00000 -1.14000
v -0.54000 0.00000 -1.14000
v -0.54000 0.06000 -1.14000
v -0.78000 0.42000 -1.14000
v -0.78000 0.36000 -1.14000
v -0.54000 0.36000 -1.14000
v -0.54000 0.42000 -1.14000
v -0.78000 0.66000 -1.14000
v -0.78000 0.60000 -1.14000
v -0.54000 0.60000 -1.14000
v -0.54000 0.66000 -1.14000
v -0.96000 0.12000 -1.14000
v -0.96000 0.18000 -1.14000
v -0.96000 0.06000 -1.14000
v -0.84000 0.06000 -1.14000
v -0.72000 0.54000 -1.14000
v -0.72000 0.48000 -1.14000
v -0.60000 0.48000 -1.14000
v -0.60000 0.54000 -1.14000
v -1.02000 0.54000 -1.14000
v -1.02000 0.60000 -1.14000
v -0.90000 0.06000 -1.14000
v -0.90000 0.00000 -1.14000
v -0.84000 0.00000 -1.14000
v -0.90000 0.60000 -1.14000
v -0.90000 0.54000 -1.14000
v -0.78000 0.54000 -1.14000
v -0.72000 0.60000 -1.14000
v -0.60000 0.42000 -1.14000
v -0.54000 0.48000 -1.14000

vt 0.01563 0.09375
vt 0.01563 0.01563
vt 0.03125 0.01563
vt 0.03125 0.09375
vt 0.06250 0.09375
vt 0.06250 0.01563
vt 0.07813 0.01563
vt 0.07813 0.09375
vt 0.10938 0.09375
vt 0.10938 0.01563
vt 0.12500 0.01563
vt 0.12500 0.09375
vt 0.15625 0.09375
vt 0.15625 0.01563
vt 0.17188 0.01563
vt 0.17188 0.09375
vt 0.20313 0.09375
vt 0.20313 0.01563
vt 0.21875 0.01563
vt 0.21875 0.09375
vt 0.25000 0.09375
vt 0.25000 0.01563
vt 0.26563 0.01563
vt 0.26563 0.09375
vt 0.29688 0.09375
vt 0.29688 0.01563
vt 0.31250 0.01563
vt 0.31250 0.09375
vt 0.34375 0.09375
vt 0.34375 0.01563
vt 0.35938 0.01563
vt 0.35938 0.09375
vt 0.39063 0.09375
vt 0.39063 0.01563
vt 0.40625 0.01563
vt 0.40625 0.09375
vt 0.43750 0.09375
vt 0.43750 0.01563
vt 0.45313 0.01563
vt 0.45313 0.09375
vt 0.48438 0.07813
vt 0.48438 0.01563
vt 0.50000 0.01563
vt 0.50000 0.07813
vt 0.53125 0.07813
vt 0.53125 0.01563
vt 0.54688 0.01563
vt 0.54688 0.07813
vt 0.57813 0.07813
vt 0.57813 0.01563
vt 0.59375 0.01563
vt 0.59375 0.07813
vt 0.62500 0.06250
vt 0.62500 0.01563
vt 0.64063 0.01563
vt 0.64063 0.06250
vt 0.67188 0.06250
vt 0.67188 0.01563
vt 0.68750 0.01563
vt 0.68750 0.06250
vt 0.71875 0.06250
vt 0.71875 0.01563
vt 0.73438 0.01563
vt 0.73438 0.06250
vt 0.76563 0.06250
vt 0.76563 0.01563
vt 0.78125 0.01563
vt 0.78125 0.06250
vt 0.81250 0.06250
vt 0.81250 0.01563
vt 0.82813 0.01563
vt 0.82813 0.06250
vt 0.85938 0.06250
vt 0.85938 0.01563
vt 0.87500 0.01563
vt 0.87500 0.06250
vt 0.90625 0.06250
vt 0.90625 0.01563
vt 0.92188 0.01563
vt 0.92188 0.06250
vt 0.95313 0.06250
vt 0.95313 0.01563
vt 0.96875 0.01563
vt 0.96875 0.06250
vt 0.01563 0.17188
vt 0.01563 0.12500
vt 0.03125 0.12500
vt 0.03125 0.17188
vt 0.06250 0.17188
vt 0.06250 0.12500
vt 0.07813 0.12500
vt 0.07813 0.17188
vt 0.10938 0.17188
vt 0.10938 0.12500
vt 0.12500 0.12500
vt 0.12500 0.17188
vt 0.15625 0.17188
vt 0.15625 0.12500
vt 0.17188 0.12500
vt 0.17188 0.17188
vt 0.20313 0.17188
vt 0.20313 0.12500
vt 0.21875 0.12500
vt 0.21875 0.17188
vt 0.25000 0.17188
vt 0.25000 0.12500
vt 0.26563 0.12500
vt 0.26563 0.17188
vt 0.29688 0.15625
vt 0.29688 0.12500
vt 0.31250 0.12500
vt 0.31250 0.15625
vt 0.34375 0.15625
vt 0.34375 0.12500
vt 0.35938 0.12500
vt 0.35938 0.15625
vt 0.39063 0.15625
vt 0.39063 0.12500
vt 0.40625 0.12500
vt 0.40625 0.15625
vt 0.43750 0.15625
vt 0.43750 0.12500
vt 0.45313 0.12500
vt 0.45313 0.15625
vt 0.48438 0.15625
vt 0.48438 0.12500
vt 0.50000 0.12500
vt 0.50000 0.15625
vt 0.53125 0.15625
vt 0.53125 0.12500
vt 0.54688 0.12500
vt 0.54688 0.15625
vt 0.57813 0.15625
vt 0.57813 0.12500
vt 0.59375 0.12500
vt 0.59375 0.15625
vt 0.62500 0.15625
vt 0.62500 0.12500
vt 0.64063 0.12500
vt 0.64063 0.15625
vt 0.67188 0.15625
vt 0.67188 0.12500
vt 0.68750 0.12500
vt 0.68750 0.15625
vt 0.71875 0.15625
vt 0.71875 0.12500
vt 0.73438 0.12500
vt 0.73438 0.15625
vt 0.76563 0.15625
vt 0.76563 0.12500
vt 0.78125 0.12500
vt 0.78125 0.15625
vt 0.81250 0.15625
vt 0.81250 0.12500
vt 0.82813 0.12500
vt 0.82813 0.15625
vt 0.85938 0.15625
vt 0.85938 0.12500
vt 0.87500 0.12500
vt 0.87500 0.15625
vt 0.90625 0.15625
vt 0.90625 0.12500
vt 0.92188 0.12500
vt 0.92188 0.15625
vt 0.95313 0.15625
vt 0.95313 0.12500
vt 0.96875 0.12500
vt 0.96875 0.15625
vt 0.01563 0.23438
vt 0.01563 0.20313
vt 0.03125 0.20313
vt 0.03125 0.23438
vt 0.06250 0.23438
vt 0.06250 0.20313
vt 0.07813 0.20313
vt 0.07813 0.23438
vt 0.10938 0.23438
vt 0.10938 0.20313
vt 0.12500 0.20313
vt 0.12500 0.23438
vt 0.15625 0.23438
vt 0.15625 0.20313
vt 0.17188 0.20313
vt 0.17188 0.23438
vt 0.20313 0.23438
vt 0.20313 0.20313
vt 0.21875 0.20313
vt 0.21875 0.23438
vt 0.25000 0.23438
vt 0.25000 0.20313
vt 0.26563 0.20313
vt 0.26563 0.23438
vt 0.29688 0.23438
vt 0.29688 0.20313
vt 0.31250 0.20313
vt 0.31250 0.23438
vt 0.34375 0.23438
vt 0.34375 0.20313
vt 0.35938 0.20313
vt 0.35938 0.23438
vt 0.39063 0.23438
vt 0.39063 0.20313
vt 0.40625 0.20313
vt 0.40625 0.23438
vt 0.43750 0.23438
vt 0.43750 0.20313
vt 0.45313 0.20313
vt 0.45313 0.23438
vt 0.48438 0.23438
vt 0.48438 0.20313
vt 0.50000 0.20313
vt 0.50000 0.23438
vt 0.53125 0.23438
vt 0.53125 0.20313
vt 0.54688 0.20313
vt 0.54688 0.23438
vt 0.57813 0.23438
vt 0.57813 0.20313
vt 0.59375 0.20313
vt 0.59375 0.23438
vt 0.62500 0.23438
vt 0.62500 0.20313
vt 0.64063 0.20313
vt 0.64063 0.23438
vt 0.67188 0.23438
vt 0.67188 0.20313
vt 0.68750 0.20313
vt 0.68750 0.23438
vt 0.71875 0.23438
vt 0.71875 0.20313
vt 0.73438 0.20313
vt 0.73438 0.23438
vt 0.76563 0.23438
vt 0.76563 0.20313
vt 0.78125 0.20313
vt 0.78125 0.23438
vt 0.81250 0.23438
vt 0.81250 0.20313
vt 0.82813 0.20313
vt 0.82813 0.23438
vt 0.85938 0.23438
vt 0.85938 0.20313
vt 0.87500 0.20313
vt 0.87500 0.23438
vt 0.90625 0.23438
vt 0.90625 0.20313
vt 0.92188 0.20313
vt 0.92188 0.23438
vt 0.95313 0.23438
vt 0.95313 0.20313
vt 0.96875 0.20313
vt 0.96875 0.23438
vt 0.01563 0.28125
vt 0.01563 0.26563
vt 0.09375 0.26563
vt 0.09375 0.28125
vt 0.12500 0.28125
vt 0.12500 0.26563
vt 0.20313 0.26563
vt 0.20313 0.28125
vt 0.23438 0.28125
vt 0.23438 0.26563
vt 0.31250 0.26563
vt 0.31250 0.28125
vt 0.34375 0.28125
vt 0.34375 0.26563
vt 0.42188 0.26563
vt 0.42188 0.28125
vt 0.45313 0.28125
vt 0.45313 0.26563
vt 0.51563 0.26563
vt 0.51563 0.28125
vt 0.54688 0.28125
vt 0.54688 0.26563
vt 0.60938 0.26563
vt 0.60938 0.28125
vt 0.64063 0.28125
vt 0.64063 0.26563
vt 0.70313 0.26563
vt 0.70313 0.28125
vt 0.73438 0.28125
vt 0.73438 0.26563
vt 0.79688 0.26563
vt 0.79688 0.28125
vt 0.82813 0.28125
vt 0.82813 0.26563
vt 0.89063 0.26563
vt 0.89063 0.28125
vt 0.92188 0.28125
vt 0.92188 0.26563
vt 0.98438 0.26563
vt 0.98438 0.28125
vt 0.01563 0.32813
vt 0.01563 0.31250
vt 0.07813 0.31250
vt 0.07813 0.32813
vt 0.10938 0.32813
vt 0.10938 0.31250
vt 0.17188 0.31250
vt 0.17188 0.32813
vt 0.20313 0.32813
vt 0.20313 0.31250
vt 0.26563 0.31250
vt 0.26563 0.32813
vt 0.29688 0.32813
vt 0.29688 0.31250
vt 0.35938 0.31250
vt 0.35938 0.32813
vt 0.39063 0.32813
vt 0.39063 0.31250
vt 0.45313 0.31250
vt 0.45313 0.32813
vt 0.48438 0.32813
vt 0.48438 0.31250
vt 0.54688 0.31250
vt 0.54688 0.32813
vt 0.57813 0.32813
vt 0.57813 0.31250
vt 0.64063 0.31250
vt 0.64063 0.32813
vt 0.67188 0.32813
vt 0.67188 0.31250
vt 0.73438 0.31250
vt 0.73438 0.32813
vt 0.76563 0.32813
vt 0.76563 0.31250
vt 0.82813 0.31250
vt 0.82813 0.32813
vt 0.85938 0.32813
vt 0.85938 0.31250
vt 0.92188 0.31250
vt 0.92188 0.32813
vt 0.01563 0.37500
vt 0.01563 0.35938
vt 0.07813 0.35938
vt 0.07813 0.37500
vt 0.10938 0.37500
vt 0.10938 0.35938
vt 0.17188 0.35938
vt 0.17188 0.37500
vt 0.20313 0.37500
vt 0.20313 0.35938
vt 0.26563 0.35938
vt 0.26563 0.37500
vt 0.29688 0.37500
vt 0.29688 0.35938
vt 0.35938 0.35938
vt 0.35938 0.37500
vt 0.39063 0.37500
vt 0.39063 0.35938
vt 0.45313 0.35938
vt 0.45313 0.37500
vt 0.48438 0.37500
vt 0.48438 0.35938
vt 0.54688 0.35938
vt 0.54688 0.37500
vt 0.57813 0.37500
vt 0.57813 0.35938
vt 0.64063 0.35938
vt 0.64063 0.37500
vt 0.67188 0.37500
vt 0.67188 0.35938
vt 0.73438 0.35938
vt 0.73438 0.37500
vt 0.76563 0.37500
vt 0.76563 0.35938
vt 0.82813 0.35938
vt 0.82813 0.37500
vt 0.85938 0.37500
vt 0.85938 0.35938
vt 0.92188 0.35938
vt 0.92188 0.37500
vt 0.01563 0.42188
vt 0.01563 0.40625
vt 0.06250 0.40625
vt 0.06250 0.42188
vt 0.09375 0.42188
vt 0.09375 0.40625
vt 0.14063 0.40625
vt 0.14063 0.42188
vt 0.17188 0.42188
vt 0.17188 0.40625
vt 0.21875 0.40625
vt 0.21875 0.42188
vt 0.25000 0.42188
vt 0.25000 0.40625
vt 0.29688 0.40625
vt 0.29688 0.42188
vt 0.32813 0.42188
vt 0.32813 0.40625
vt 0.37500 0.40625
vt 0.37500 0.42188
vt 0.40625 0.42188
vt 0.40625 0.40625
vt 0.45313 0.40625
vt 0.45313 0.42188
vt 0.48438 0.42188
vt 0.48438 0.40625
vt 0.53125 0.40625
vt 0.53125 0.42188
vt 0.56250 0.42188
vt 0.56250 0.40625
vt 0.60938 0.40625
vt 0.60938 0.42188
vt 0.95313 0.32813
vt 0.95313 0.31250
vt 0.98438 0.31250
vt 0.98438 0.32813
vt 0.95313 0.37500
vt 0.95313 0.35938
vt 0.98438 0.35938
vt 0.98438 0.37500
vt 0.64063 0.42188
vt 0.64063 0.40625
vt 0.67188 0.40625
vt 0.67188 0.42188
vt 0.70313 0.42188
vt 0.70313 0.40625
vt 0.73438 0.40625
vt 0.73438 0.42188
vt 0.76563 0.42188
vt 0.76563 0.40625
vt 0.79688 0.40625
vt 0.79688 0.42188
vt 0.82813 0.42188
vt 0.82813 0.40625
vt 0.85938 0.40625
vt 0.85938 0.42188
vt 0.89063 0.42188
vt 0.89063 0.40625
vt 0.92188 0.40625
vt 0.92188 0.42188
vt 0.95313 0.42188
vt 0.95313 0.40625
vt 0.98438 0.40625
vt 0.98438 0.42188
vt 0.01563 0.46875
vt 0.01563 0.45313
vt 0.04688 0.45313
vt 0.04688 0.46875
vt 0.07813 0.46875
vt 0.07813 0.45313
vt 0.10938 0.45313
vt 0.10938 0.46875
vt 0.14063 0.46875
vt 0.14063 0.45313
vt 0.17188 0.45313
vt 0.17188 0.46875
vt 0.20313 0.46875
vt 0.20313 0.45313
vt 0.23438 0.45313
vt 0.23438 0.46875
vt 0.26563 0.46875
vt 0.26563 0.45313
vt 0.29688 0.45313
vt 0.29688 0.46875
vt 0.32813 0.46875
vt 0.32813 0.45313
vt 0.35938 0.45313
vt 0.35938 0.46875
vt 0.39063 0.46875
vt 0.39063 0.45313
vt 0.42188 0.45313
vt 0.42188 0.46875
vt 0.45313 0.46875
vt 0.45313 0.45313
vt 0.46875 0.45313
vt 0.46875 0.46875
vt 0.50000 0.46875
vt 0.50000 0.45313
vt 0.51563 0.45313
vt 0.51563 0.46875
vt 0.54688 0.46875
vt 0.54688 0.45313
vt 0.56250 0.45313
vt 0.56250 0.46875
vt 0.59375 0.46875
vt 0.59375 0.45313
vt 0.60938 0.45313
vt 0.60938 0.46875
vt 0.64063 0.46875
vt 0.64063 0.45313
vt 0.65625 0.45313
vt 0.65625 0.46875
vt 0.68750 0.46875
vt 0.68750 0.45313
vt 0.70313 0.45313
vt 0.70313 0.46875
vt 0.73438 0.46875
vt 0.73438 0.45313
vt 0.75000 0.45313
vt 0.75000 0.46875
vt 0.78125 0.46875
vt 0.78125 0.45313
vt 0.79688 0.45313
vt 0.79688 0.46875
vt 0.82813 0.46875
vt 0.82813 0.45313
vt 0.84375 0.45313
vt 0.84375 0.46875
vt 0.87500 0.46875
vt 0.87500 0.45313
vt 0.89063 0.45313
vt 0.89063 0.46875
vt 0.92188 0.46875
vt 0.92188 0.45313
vt 0.93750 0.45313
vt 0.93750 0.46875
vt 0.96875 0.46875
vt 0.96875 0.45313
vt 0.98438 0.45313
vt 0.98438 0.46875
vt 0.01563 0.51563
vt 0.01563 0.50000
vt 0.03125 0.50000
vt 0.03125 0.51563
vt 0.06250 0.51563
vt 0.06250 0.50000
vt 0.07813 0.50000
vt 0.07813 0.51563
vt 0.10938 0.51563
vt 0.10938 0.50000
vt 0.12500 0.50000
vt 0.12500 0.51563
vt 0.15625 0.51563
vt 0.15625 0.50000
vt 0.17188 0.50000
vt 0.17188 0.51563
vt 0.20313 0.51563
vt 0.20313 0.50000
vt 0.21875 0.50000
vt 0.21875 0.51563
vt 0.25000 0.51563
vt 0.25000 0.50000
vt 0.26563 0.50000
vt 0.26563 0.51563
vt 0.29688 0.51563
vt 0.29688 0.50000
vt 0.31250 0.50000
vt 0.31250 0.51563
vt 0.34375 0.51563
vt 0.34375 0.50000
vt 0.35938 0.50000
vt 0.35938 0.51563
vt 0.39063 0.51563
vt 0.39063 0.50000
vt 0.40625 0.50000
vt 0.40625 0.51563
vt 0.43750 0.51563
vt 0.43750 0.50000
vt 0.45313 0.50000
vt 0.45313 0.51563
vt 0.48438 0.51563
vt 0.48438 0.50000
vt 0.50000 0.50000
vt 0.50000 0.51563
vt 0.53125 0.51563
vt 0.53125 0.50000
vt 0.54688 0.50000
vt 0.54688 0.51563
vt 0.57813 0.51563
vt 0.57813 0.50000
vt 0.59375 0.50000
vt 0.59375 0.51563
vt 0.62500 0.51563
vt 0.62500 0.50000
vt 0.64063 0.50000
vt 0.64063 0.51563
vt 0.67188 0.51563
vt 0.67188 0.50000
vt 0.68750 0.50000
vt 0.68750 0.51563
vt 0.71875 0.51563
vt 0.71875 0.50000
vt 0.73438 0.50000
vt 0.73438 0.51563
vt 0.76563 0.51563
vt 0.76563 0.50000
vt 0.78125 0.50000
vt 0.78125 0.51563
vt 0.81250 0.51563
vt 0.81250 0.50000
vt 0.82813 0.50000
vt 0.82813 0.51563
vt 0.85938 0.51563
vt 0.85938 0.50000
vt 0.87500 0.50000
vt 0.87500 0.51563
vt 0.90625 0.51563
vt 0.90625 0.50000
vt 0.92188 0.50000
vt 0.92188 0.51563
vt 0.95313 0.51563
vt 0.95313 0.50000
vt 0.96875 0.50000
vt 0.96875 0.51563
vt 0.01563 0.56250
vt 0.01563 0.54688
vt 0.03125 0.54688
vt 0.03125 0.56250
vt 0.06250 0.56250
vt 0.06250 0.54688
vt 0.07813 0.54688
vt 0.07813 0.56250
vt 0.10938 0.56250
vt 0.10938 0.54688
vt 0.12500 0.54688
vt 0.12500 0.56250
vt 0.15625 0.56250
vt 0.15625 0.54688
vt 0.17188 0.54688
vt 0.17188 0.56250
vt 0.20313 0.56250
vt 0.20313 0.54688
vt 0.21875 0.54688
vt 0.21875 0.56250
vt 0.25000 0.56250
vt 0.25000 0.54688
vt 0.26563 0.54688
vt 0.26563 0.56250
vt 0.29688 0.56250
vt 0.29688 0.54688
vt 0.31250 0.54688
vt 0.31250 0.56250
vt 0.34375 0.56250
vt 0.34375 0.54688
vt 0.35938 0.54688
vt 0.35938 0.56250
vt 0.39063 0.56250
vt 0.39063 0.54688
vt 0.40625 0.54688
vt 0.40625 0.56250
vt 0.43750 0.56250
vt 0.43750 0.54688
vt 0.45313 0.54688
vt 0.45313 0.56250
vt 0.48438 0.56250
vt 0.48438 0.54688
vt 0.50000 0.54688
vt 0.50000 0.56250

g NeonSign_PixelCashOnly
f 1/85/2 2/86/2 3/87/2 4/88/2
f 5/89/2 6/90/2 7/91/2 8/92/2
f 9/93/2 10/94/2 11/95/2 12/96/2
f 13/73/2 14/74/2 15/75/2 16/76/2
f 17/49/2 18/50/2 19/51/2 20/52/2
f 21/173/2 22/174/2 23/175/2 24/176/2
f 25/169/2 26/170/2 27/171/2 28/172/2
f 29/177/2 30/178/2 31/179/2 32/180/2
f 33/185/2 34/186/2 35/187/2 36/188/2
f 37/181/2 38/182/2 39/183/2 40/184/2
f 41/165/2 42/166/2 43/167/2 44/168/2
f 45/149/2 46/150/2 47/151/2 48/152/2
f 49/145/2 50/146/2 51/147/2 52/148/2
f 53/153/2 54/154/2 55/155/2 56/156/2
f 57/161/2 58/162/2 59/163/2 60/164/2
f 61/157/2 62/158/2 63/159/2 64/160/2
f 54/261/2 65/262/2 66/263/2 39/264/2
f 62/265/2 57/266/2 44/267/2 47/268/2
f 10/293/2 67/294/2 68/295/2 3/296/2
f 69/289/2 9/290/2 4/291/2 70/292/2
f 71/337/2 72/338/2 73/339/2 7/340/2
f 74/333/2 75/334/2 8/335/2 76/336/2
f 77/353/2 33/354/2 32/355/2 78/356/2
f 79/349/2 80/350/2 81/351/2 82/352/2
f 83/345/2 84/346/2 85/347/2 19/348/2
f 86/317/2 87/318/2 88/319/2 89/320/2
f 90/313/2 91/314/2 92/315/2 93/316/2
f 94/421/2 95/422/2 24/423/2 27/424/2
f 14/417/2 96/418/2 97/419/2 95/420/2
f 98/409/2 99/410/2 100/411/2 101/412/2
f 102/473/2 103/474/2 78/475/2 81/476/2
f 96/477/2 104/478/2 105/479/2 106/480/2
f 80/597/2 77/598/2 107/599/2 108/600/2
f 109/593/2 101/594/2 110/595/2 92/596/2
f 111/605/2 86/606/2 112/607/2 99/608/2
f 113/101/1 114/102/1 115/103/1 116/104/1
f 117/105/1 118/106/1 119/107/1 120/108/1
f 121/57/1 122/58/1 123/59/1 124/60/1
f 125/53/1 126/54/1 127/55/1 128/56/1
f 129/41/1 130/42/1 131/43/1 132/44/1
f 133/217/1 134/218/1 135/219/1 136/220/1
f 137/213/1 138/214/1 139/215/1 140/216/1
f 141/221/1 142/222/1 143/223/1 144/224/1
f 145/229/1 146/230/1 147/231/1 148/232/1
f 149/225/1 150/226/1 151/227/1 152/228/1
f 153/209/1 154/210/1 155/211/1 156/212/1
f 157/193/1 158/194/1 159/195/1 160/196/1
f 161/189/1 162/190/1 163/191/1 164/192/1
f 165/197/1 166/198/1 167/199/1 168/200/1
f 169/205/1 170/206/1 171/207/1 172/208/1
f 173/201/1 174/202/1 175/203/1 176/204/1
f 150/257/1 177/258/1 178/259/1 167/260/1
f 158/253/1 153/254/1 172/255/1 175/256/1
f 114/341/1 179/342/1 180/343/1 123/344/1
f 181/277/1 113/278/1 124/279/1 182/280/1
f 118/281/1 183/282/1 184/283/1 185/284/1
f 186/269/1 117/270/1 187/271/1 188/272/1
f 189/273/1 141/274/1 148/275/1 190/276/1
f 191/297/1 192/298/1 193/299/1 194/300/1
f 130/301/1 195/302/1 196/303/1 197/304/1
f 198/305/1 199/306/1 200/307/1 201/308/1
f 202/285/1 203/286/1 204/287/1 205/288/1
f 138/453/1 133/454/1 206/455/1 207/456/1
f 206/457/1 208/458/1 209/459/1 127/460/1
f 210/437/1 211/438/1 212/439/1 213/440/1
f 192/613/1 189/614/1 214/615/1 215/616/1
f 216/609/1 217/610/1 218/611/1 209/612/1
f 219/621/1 220/622/1 190/623/1 193/624/1
f 203/617/1 221/618/1 210/619/1 222/620/1
f 212/533/1 223/534/1 201/535/1 224/536/1
f 70/37/3 68/38/3 179/39/3 181/40/3
f 76/29/3 73/30/3 183/31/3 186/32/3
f 28/21/3 23/22/3 134/23/3 137/24/3
f 82/25/3 31/26/3 142/27/3 191/28/3
f 20/5/3 85/6/3 195/7/3 129/8/3
f 48/1/3 43/2/3 154/3/3 157/4/3
f 12/69/3 11/70/3 122/71/3 121/72/3
f 16/65/3 15/66/3 126/67/3 125/68/3
f 40/61/3 66/62/3 177/63/3 149/64/3
f 36/121/3 35/122/3 146/123/3 145/124/3
f 93/125/3 110/126/3 221/127/3 202/128/3
f 52/129/3 51/130/3 162/131/3 161/132/3
f 56/141/3 55/142/3 166/143/3 165/144/3
f 60/137/3 59/138/3 170/139/3 169/140/3
f 64/117/3 63/118/3 174/119/3 173/120/3
f 95/517/3 97/518/3 208/519/3 206/520/3
f 106/513/3 105/514/3 217/515/3 216/516/3
f 108/525/3 107/526/3 220/527/3 219/528/3
f 89/521/3 88/522/3 199/523/3 198/524/3
f 101/565/3 100/566/3 211/567/3 210/568/3
f 99/561/3 112/562/3 223/563/3 212/564/3
f 182/33/4 180/34/4 67/35/4 69/36/4
f 128/9/4 218/10/4 104/11/4 13/12/4
f 194/17/4 147/18/4 34/19/4 79/20/4
f 176/13/4 171/14/4 58/15/4 61/16/4
f 116/97/4 115/98/4 2/99/4 1/100/4
f 120/81/4 119/82/4 6/83/4 5/84/4
f 132/45/4 131/46/4 18/47/4 17/48/4
f 168/77/4 178/78/4 65/79/4 53/80/4
f 136/133/4 135/134/4 22/135/4 21/136/4
f 140/109/4 139/110/4 26/111/4 25/112/4
f 144/113/4 143/114/4 30/115/4 29/116/4
f 224/245/4 200/246/4 87/247/4 111/248/4
f 152/249/4 151/250/4 38/251/4 37/252/4
f 156/241/4 155/242/4 42/243/4 41/244/4
f 160/233/4 159/234/4 46/235/4 45/236/4
f 164/237/4 163/238/4 50/239/4 49/240/4
f 185/553/4 184/554/4 72/555/4 71/556/4
f 188/557/4 187/558/4 75/559/4 74/560/4
f 215/545/4 214/546/4 103/547/4 102/548/4
f 207/549/4 206/550/4 95/551/4 94/552/4
f 222/569/4 210/570/4 101/571/4 109/572/4
f 213/573/4 212/574/4 99/575/4 98/576/4
f 197/537/4 196/538/4 84/539/4 83/540/4
f 205/541/4 204/542/4 91/543/4 90/544/4
f 70/369/5 181/370/5 182/371/5 69/372/5
f 76/365/5 186/366/5 188/367/5 74/368/5
f 6/381/5 119/382/5 185/383/5 71/384/5
f 82/357/5 191/358/5 194/359/5 79/360/5
f 89/385/5 198/386/5 223/387/5 112/388/5
f 93/361/5 202/362/5 205/363/5 90/364/5
f 18/373/5 131/374/5 197/375/5 83/376/5
f 38/377/5 151/378/5 166/379/5 55/380/5
f 46/401/5 159/402/5 174/403/5 63/404/5
f 2/433/5 115/434/5 122/435/5 11/436/5
f 103/429/5 214/430/5 220/431/5 107/432/5
f 101/449/5 210/450/5 213/451/5 98/452/5
f 28/529/5 137/530/5 140/531/5 25/532/5
f 26/633/5 139/634/5 207/635/5 94/636/5
f 95/637/5 206/638/5 126/639/5 15/640/5
f 16/625/5 125/626/5 128/627/5 13/628/5
f 20/629/5 129/630/5 132/631/5 17/632/5
f 99/585/5 212/586/5 224/587/5 111/588/5
f 40/589/5 149/590/5 152/591/5 37/592/5
f 48/577/5 157/578/5 160/579/5 45/580/5
f 56/581/5 165/582/5 168/583/5 53/584/5
f 64/601/5 173/602/5 176/603/5 61/604/5
f 179/309/6 68/310/6 67/311/6 180/312/6
f 183/329/6 73/330/6 72/331/6 184/332/6
f 120/389/6 5/390/6 75/391/6 187/392/6
f 195/325/6 85/326/6 84/327/6 196/328/6
f 199/321/6 88/322/6 87/323/6 200/324/6
f 222/393/6 109/394/6 91/395/6 204/396/6
f 156/397/6 41/398/6 60/399/6 169/400/6
f 116/445/6 1/446/6 12/447/6 121/448/6
f 144/441/6 29/442/6 36/443/6 145/444/6
f 215/461/6 102/462/6 108/463/6 219/464/6
f 211/413/6 100/414/6 99/415/6 212/416/6
f 177/405/6 66/406/6 52/407/6 161/408/6
f 164/425/6 49/426/6 65/427/6 178/428/6
f 134/481/6 23/482/6 22/483/6 135/484/6
f 142/509/6 31/510/6 30/511/6 143/512/6
f 136/497/6 21/498/6 95/499/6 206/500/6
f 208/493/6 97/494/6 106/495/6 216/496/6
f 217/489/6 105/490/6 104/491/6 218/492/6
f 146/485/6 35/486/6 34/487/6 147/488/6
f 221/505/6 110/506/6 101/507/6 210/508/6
f 154/501/6 43/502/6 42/503/6 155/504/6
f 162/469/6 51/470/6 50/471/6 163/472/6
f 170/465/6 59/466/6 58/467/6 171/468/6
