# This file was created with Minddesk Qubicle 3.0
# Get Qubicle at www.getqubicle.com

vn 0.0 0.0 1.0
vn 0.0 0.0 -1.0
vn -1.0 0.0 0.0
vn 1.0 0.0 0.0
vn 0.0 1.0 0.0
vn 0.0 -1.0 0.0

v -0.57000 0.57000 -0.30000
v -0.57000 -0.57000 -0.30000
v -0.69000 -0.57000 -0.30000
v -0.69000 0.57000 -0.30000
v 0.69000 0.57000 -0.30000
v 0.69000 -0.57000 -0.30000
v 0.57000 -0.57000 -0.30000
v 0.57000 0.57000 -0.30000
v -0.09000 -0.09000 -0.24000
v -0.09000 -0.45000 -0.24000
v -0.57000 -0.45000 -0.24000
v -0.57000 -0.09000 -0.24000
v -0.09000 0.45000 -0.24000
v -0.09000 0.09000 -0.24000
v -0.57000 0.09000 -0.24000
v -0.57000 0.45000 -0.24000
v 0.57000 -0.09000 -0.24000
v 0.57000 -0.45000 -0.24000
v 0.09000 -0.45000 -0.24000
v 0.09000 -0.09000 -0.24000
v 0.57000 0.45000 -0.24000
v 0.57000 0.09000 -0.24000
v 0.09000 0.09000 -0.24000
v 0.09000 0.45000 -0.24000
v 0.09000 -0.09000 -0.30000
v 0.09000 -0.45000 -0.30000
v -0.09000 -0.45000 -0.30000
v -0.09000 -0.09000 -0.30000
v 0.09000 0.45000 -0.30000
v 0.09000 0.09000 -0.30000
v -0.09000 0.09000 -0.30000
v -0.09000 0.45000 -0.30000
v 0.45000 0.09000 -0.30000
v 0.45000 -0.09000 -0.30000
v -0.45000 -0.09000 -0.30000
v -0.45000 0.09000 -0.30000
v -0.45000 0.09000 -0.24000
v -0.45000 -0.09000 -0.24000
v 0.45000 -0.09000 -0.24000
v 0.45000 0.09000 -0.24000
v 0.69000 -0.69000 -0.30000
v -0.69000 -0.69000 -0.30000
v 0.69000 0.69000 -0.30000
v -0.69000 0.69000 -0.30000
v 0.57000 -0.57000 -0.24000
v -0.57000 -0.57000 -0.24000
v 0.57000 0.57000 -0.24000
v -0.57000 0.57000 -0.24000
v -0.69000 0.57000 0.00000
v -0.69000 -0.57000 0.00000
v -0.57000 -0.57000 0.00000
v -0.57000 0.57000 0.00000
v 0.57000 0.57000 0.00000
v 0.57000 -0.57000 0.00000
v 0.69000 -0.57000 0.00000
v 0.69000 0.57000 0.00000
v -0.57000 -0.09000 -0.06000
v -0.57000 -0.45000 -0.06000
v -0.09000 -0.45000 -0.06000
v -0.09000 -0.09000 -0.06000
v -0.57000 0.45000 -0.06000
v -0.57000 0.09000 -0.06000
v -0.09000 0.09000 -0.06000
v -0.09000 0.45000 -0.06000
v 0.09000 -0.09000 -0.06000
v 0.09000 -0.45000 -0.06000
v 0.57000 -0.45000 -0.06000
v 0.57000 -0.09000 -0.06000
v 0.09000 0.45000 -0.06000
v 0.09000 0.09000 -0.06000
v 0.57000 0.09000 -0.06000
v 0.57000 0.45000 -0.06000
v -0.09000 -0.09000 0.00000
v -0.09000 -0.45000 0.00000
v 0.09000 -0.45000 0.00000
v 0.09000 -0.09000 0.00000
v -0.09000 0.45000 0.00000
v -0.09000 0.09000 0.00000
v 0.09000 0.09000 0.00000
v 0.09000 0.45000 0.00000
v -0.45000 0.09000 0.00000
v -0.45000 -0.09000 0.00000
v 0.45000 -0.09000 0.00000
v 0.45000 0.09000 0.00000
v -0.45000 -0.09000 -0.06000
v -0.45000 0.09000 -0.06000
v 0.45000 0.09000 -0.06000
v 0.45000 -0.09000 -0.06000
v -0.57000 -0.57000 -0.06000
v 0.57000 -0.57000 -0.06000
v -0.57000 0.57000 -0.06000
v 0.57000 0.57000 -0.06000
v -0.69000 -0.69000 0.00000
v 0.69000 -0.69000 0.00000
v -0.69000 0.69000 0.00000
v 0.69000 0.69000 0.00000

vt 0.00781 0.37500
vt 0.00781 0.01563
vt 0.04688 0.01563
vt 0.04688 0.37500
vt 0.06250 0.37500
vt 0.06250 0.01563
vt 0.10156 0.01563
vt 0.10156 0.37500
vt 0.11719 0.31250
vt 0.11719 0.01563
vt 0.13281 0.01563
vt 0.13281 0.31250
vt 0.14844 0.31250
vt 0.14844 0.01563
vt 0.16406 0.01563
vt 0.16406 0.31250
vt 0.17969 0.31250
vt 0.17969 0.01563
vt 0.19531 0.01563
vt 0.19531 0.31250
vt 0.21094 0.31250
vt 0.21094 0.01563
vt 0.22656 0.01563
vt 0.22656 0.31250
vt 0.24219 0.31250
vt 0.24219 0.01563
vt 0.25000 0.01563
vt 0.25000 0.31250
vt 0.26563 0.31250
vt 0.26563 0.01563
vt 0.27344 0.01563
vt 0.27344 0.31250
vt 0.28906 0.31250
vt 0.28906 0.01563
vt 0.29688 0.01563
vt 0.29688 0.31250
vt 0.31250 0.31250
vt 0.31250 0.01563
vt 0.32031 0.01563
vt 0.32031 0.31250
vt 0.33594 0.10938
vt 0.33594 0.01563
vt 0.39844 0.01563
vt 0.39844 0.10938
vt 0.41406 0.10938
vt 0.41406 0.01563
vt 0.47656 0.01563
vt 0.47656 0.10938
vt 0.49219 0.10938
vt 0.49219 0.01563
vt 0.55469 0.01563
vt 0.55469 0.10938
vt 0.57031 0.10938
vt 0.57031 0.01563
vt 0.63281 0.01563
vt 0.63281 0.10938
vt 0.64844 0.10938
vt 0.64844 0.01563
vt 0.71094 0.01563
vt 0.71094 0.10938
vt 0.72656 0.10938
vt 0.72656 0.01563
vt 0.78906 0.01563
vt 0.78906 0.10938
vt 0.80469 0.10938
vt 0.80469 0.01563
vt 0.86719 0.01563
vt 0.86719 0.10938
vt 0.88281 0.10938
vt 0.88281 0.01563
vt 0.94531 0.01563
vt 0.94531 0.10938
vt 0.96094 0.10938
vt 0.96094 0.01563
vt 0.98438 0.01563
vt 0.98438 0.10938
vt 0.33594 0.23438
vt 0.33594 0.14063
vt 0.35938 0.14063
vt 0.35938 0.23438
vt 0.37500 0.23438
vt 0.37500 0.14063
vt 0.39844 0.14063
vt 0.39844 0.23438
vt 0.41406 0.23438
vt 0.41406 0.14063
vt 0.43750 0.14063
vt 0.43750 0.23438
vt 0.45313 0.23438
vt 0.45313 0.14063
vt 0.46094 0.14063
vt 0.46094 0.23438
vt 0.47656 0.23438
vt 0.47656 0.14063
vt 0.48438 0.14063
vt 0.48438 0.23438
vt 0.50000 0.23438
vt 0.50000 0.14063
vt 0.50781 0.14063
vt 0.50781 0.23438
vt 0.52344 0.23438
vt 0.52344 0.14063
vt 0.53125 0.14063
vt 0.53125 0.23438
vt 0.54688 0.23438
vt 0.54688 0.14063
vt 0.55469 0.14063
vt 0.55469 0.23438
vt 0.57031 0.23438
vt 0.57031 0.14063
vt 0.57813 0.14063
vt 0.57813 0.23438
vt 0.59375 0.23438
vt 0.59375 0.14063
vt 0.60156 0.14063
vt 0.60156 0.23438
vt 0.61719 0.23438
vt 0.61719 0.14063
vt 0.62500 0.14063
vt 0.62500 0.23438
vt 0.64063 0.21875
vt 0.64063 0.14063
vt 0.82031 0.14063
vt 0.82031 0.21875
vt 0.00781 0.48438
vt 0.00781 0.40625
vt 0.18750 0.40625
vt 0.18750 0.48438
vt 0.83594 0.18750
vt 0.83594 0.14063
vt 0.95313 0.14063
vt 0.95313 0.18750
vt 0.33594 0.31250
vt 0.33594 0.26563
vt 0.45313 0.26563
vt 0.45313 0.31250
vt 0.96875 0.18750
vt 0.96875 0.14063
vt 0.98438 0.14063
vt 0.98438 0.18750
vt 0.46875 0.31250
vt 0.46875 0.26563
vt 0.48438 0.26563
vt 0.48438 0.31250
vt 0.50000 0.31250
vt 0.50000 0.26563
vt 0.51563 0.26563
vt 0.51563 0.31250
vt 0.53125 0.31250
vt 0.53125 0.26563
vt 0.54688 0.26563
vt 0.54688 0.31250
vt 0.56250 0.31250
vt 0.56250 0.26563
vt 0.57031 0.26563
vt 0.57031 0.31250
vt 0.58594 0.31250
vt 0.58594 0.26563
vt 0.59375 0.26563
vt 0.59375 0.31250
vt 0.60938 0.31250
vt 0.60938 0.26563
vt 0.61719 0.26563
vt 0.61719 0.31250
vt 0.63281 0.31250
vt 0.63281 0.26563
vt 0.64063 0.26563
vt 0.64063 0.31250
vt 0.65625 0.29688
vt 0.65625 0.26563
vt 0.83594 0.26563
vt 0.83594 0.29688
vt 0.11719 0.37500
vt 0.11719 0.34375
vt 0.29688 0.34375
vt 0.29688 0.37500
vt 0.31250 0.37500
vt 0.31250 0.34375
vt 0.49219 0.34375
vt 0.49219 0.37500
vt 0.50781 0.37500
vt 0.50781 0.34375
vt 0.68750 0.34375
vt 0.68750 0.37500
vt 0.70313 0.37500
vt 0.70313 0.34375
vt 0.85156 0.34375
vt 0.85156 0.37500
vt 0.20313 0.43750
vt 0.20313 0.40625
vt 0.35156 0.40625
vt 0.35156 0.43750
vt 0.36719 0.43750
vt 0.36719 0.40625
vt 0.51563 0.40625
vt 0.51563 0.43750
vt 0.53125 0.43750
vt 0.53125 0.40625
vt 0.67969 0.40625
vt 0.67969 0.43750
vt 0.69531 0.42188
vt 0.69531 0.40625
vt 0.84375 0.40625
vt 0.84375 0.42188
vt 0.20313 0.48438
vt 0.20313 0.46875
vt 0.35156 0.46875
vt 0.35156 0.48438
vt 0.36719 0.48438
vt 0.36719 0.46875
vt 0.51563 0.46875
vt 0.51563 0.48438
vt 0.53125 0.48438
vt 0.53125 0.46875
vt 0.67969 0.46875
vt 0.67969 0.48438
vt 0.85156 0.28125
vt 0.85156 0.26563
vt 0.89844 0.26563
vt 0.89844 0.28125
vt 0.91406 0.28125
vt 0.91406 0.26563
vt 0.96094 0.26563
vt 0.96094 0.28125
vt 0.86719 0.35938
vt 0.86719 0.34375
vt 0.91406 0.34375
vt 0.91406 0.35938
vt 0.92969 0.35938
vt 0.92969 0.34375
vt 0.97656 0.34375
vt 0.97656 0.35938
vt 0.85938 0.42188
vt 0.85938 0.40625
vt 0.90625 0.40625
vt 0.90625 0.42188
vt 0.92188 0.42188
vt 0.92188 0.40625
vt 0.96875 0.40625
vt 0.96875 0.42188
vt 0.69531 0.48438
vt 0.69531 0.46875
vt 0.74219 0.46875
vt 0.74219 0.48438
vt 0.75781 0.48438
vt 0.75781 0.46875
vt 0.80469 0.46875
vt 0.80469 0.48438
vt 0.82031 0.48438
vt 0.82031 0.46875
vt 0.84375 0.46875
vt 0.84375 0.48438
vt 0.85938 0.48438
vt 0.85938 0.46875
vt 0.88281 0.46875
vt 0.88281 0.48438
vt 0.89844 0.48438
vt 0.89844 0.46875
vt 0.92188 0.46875
vt 0.92188 0.48438
vt 0.93750 0.48438
vt 0.93750 0.46875
vt 0.96094 0.46875
vt 0.96094 0.48438

g NeonSigns_BlockDrugs
f 1/13/2 2/14/2 3/15/2 4/16/2
f 5/9/2 6/10/2 7/11/2 8/12/2
f 9/69/2 10/70/2 11/71/2 12/72/2
f 13/61/2 14/62/2 15/63/2 16/64/2
f 17/57/2 18/58/2 19/59/2 20/60/2
f 21/65/2 22/66/2 23/67/2 24/68/2
f 25/81/2 26/82/2 27/83/2 28/84/2
f 29/85/2 30/86/2 31/87/2 32/88/2
f 33/129/2 34/130/2 35/131/2 36/132/2
f 37/145/2 38/146/2 12/147/2 15/148/2
f 22/137/2 17/138/2 39/139/2 40/140/2
f 6/177/2 41/178/2 42/179/2 3/180/2
f 43/173/2 5/174/2 4/175/2 44/176/2
f 18/189/2 45/190/2 46/191/2 11/192/2
f 47/185/2 21/186/2 16/187/2 48/188/2
f 49/17/1 50/18/1 51/19/1 52/20/1
f 53/21/1 54/22/1 55/23/1 56/24/1
f 57/49/1 58/50/1 59/51/1 60/52/1
f 61/45/1 62/46/1 63/47/1 64/48/1
f 65/41/1 66/42/1 67/43/1 68/44/1
f 69/53/1 70/54/1 71/55/1 72/56/1
f 73/77/1 74/78/1 75/79/1 76/80/1
f 77/73/1 78/74/1 79/75/1 80/76/1
f 81/133/1 82/134/1 83/135/1 84/136/1
f 62/149/1 57/150/1 85/151/1 86/152/1
f 87/141/1 88/142/1 68/143/1 71/144/1
f 58/197/1 89/198/1 90/199/1 67/200/1
f 91/193/1 61/194/1 72/195/1 92/196/1
f 50/181/1 93/182/1 94/183/1 55/184/1
f 95/169/1 49/170/1 56/171/1 96/172/1
f 44/1/3 42/2/3 93/3/3 95/4/3
f 8/33/3 7/34/3 45/35/3 47/36/3
f 92/37/3 90/38/3 54/39/3 53/40/3
f 28/97/3 27/98/3 10/99/3 9/100/3
f 32/101/3 31/102/3 14/103/3 13/104/3
f 60/89/3 59/90/3 74/91/3 73/92/3
f 64/93/3 63/94/3 78/95/3 77/96/3
f 36/157/3 35/158/3 38/159/3 37/160/3
f 86/161/3 85/162/3 82/163/3 81/164/3
f 96/5/4 94/6/4 41/7/4 43/8/4
f 48/25/4 46/26/4 2/27/4 1/28/4
f 52/29/4 51/30/4 89/31/4 91/32/4
f 20/105/4 19/106/4 26/107/4 25/108/4
f 24/109/4 23/110/4 30/111/4 29/112/4
f 76/113/4 75/114/4 66/115/4 65/116/4
f 80/117/4 79/118/4 70/119/4 69/120/4
f 40/165/4 39/166/4 34/167/4 33/168/4
f 84/153/4 83/154/4 88/155/4 87/156/4
f 44/121/5 95/122/5 96/123/5 43/124/5
f 2/209/5 46/210/5 45/211/5 7/212/5
f 89/213/5 51/214/5 54/215/5 90/216/5
f 36/221/5 37/222/5 14/223/5 31/224/5
f 30/217/5 23/218/5 40/219/5 33/220/5
f 86/229/5 81/230/5 78/231/5 63/232/5
f 70/225/5 79/226/5 84/227/5 87/228/5
f 32/261/5 13/262/5 24/263/5 29/264/5
f 64/257/5 77/258/5 80/259/5 69/260/5
f 93/125/6 42/126/6 41/127/6 94/128/6
f 48/201/6 1/202/6 8/203/6 47/204/6
f 52/205/6 91/206/6 92/207/6 53/208/6
f 38/241/6 35/242/6 28/243/6 9/244/6
f 20/237/6 25/238/6 34/239/6 39/240/6
f 82/233/6 85/234/6 60/235/6 73/236/6
f 76/245/6 65/246/6 88/247/6 83/248/6
f 10/249/6 27/250/6 26/251/6 19/252/6
f 74/253/6 59/254/6 66/255/6 75/256/6
