# Blender v2.79 (sub 0) OBJ File: 'rocks.blend'
# www.blender.org
mtllib rock3_collision.mtl
o rock_3_collision_Cube.003
v -0.609100 -0.359028 -0.517031
v 0.406183 -0.207170 -0.828336
v -0.020471 -0.195564 0.620407
v -0.003678 0.412367 0.810636
v 0.770055 0.414785 0.149352
v -0.252146 -0.226364 -0.870627
v 0.246094 0.464845 0.632527
v -0.489803 -0.336001 0.193478
v -0.268593 0.453450 -0.458703
v 0.068346 -0.325683 -0.136242
v -0.685813 -0.057113 0.339460
v -0.425291 0.009477 -0.940715
v 0.918819 -0.065069 0.056356
v -0.322603 0.240358 -0.902173
v 0.908431 0.129554 0.100597
v 0.427274 -0.324645 0.470972
v 0.853361 0.303423 0.220699
v 0.189264 -0.200526 0.643744
v 0.301216 0.155928 0.803357
v -0.167500 0.400723 0.717747
v 0.101565 0.147185 0.895638
v -0.026593 0.271478 0.896335
v -0.040814 -0.023994 0.797819
v -0.909819 -0.137388 -0.617413
v -0.807273 -0.024879 -0.764799
v -0.469901 0.285872 0.507975
v -0.678879 0.081634 0.343594
v -0.825415 -0.056266 -0.059794
v -0.453672 0.364330 -0.589971
v -0.584738 0.225911 -0.809549
v -0.643396 0.159855 -0.810711
v -0.369620 0.447764 -0.276934
v -0.390033 0.401688 0.374725
v -0.399299 0.414975 -0.445482
v 0.807019 -0.007673 -0.437081
v 0.340721 -0.064580 -0.912015
v 0.021411 0.399299 -0.796320
v 0.281195 0.401774 -0.572092
v 0.011895 0.388492 -0.814983
v 0.163196 0.015958 -0.962920
v -0.006294 0.165968 -0.927246
v 0.760009 0.419597 -0.106331
v 0.797286 0.096949 -0.327431
v 0.587564 -0.312351 -0.339756
v 0.826063 -0.069167 -0.444512
v 0.515761 -0.228484 -0.750431
v 0.905096 -0.171385 0.043114
v 0.070644 0.452603 0.269142
v 0.380312 0.373970 0.666750
v 0.396747 0.247333 0.742172
v 0.540495 0.314037 0.606350
v 0.719703 -0.302190 0.185539
v 0.750494 -0.299205 0.022190
v 0.855455 -0.227425 0.075107
v -0.229666 0.132255 0.825768
v -0.269211 0.076360 0.804542
v -0.195602 0.062655 0.832329
v -0.202312 0.118927 0.853066
vn -0.3326 0.2973 -0.8950
vn -0.2314 -0.9630 0.1384
vn -0.2922 0.9471 -0.1328
vn -0.0944 0.9933 0.0673
vn 0.0856 0.9956 -0.0387
vn 0.1604 -0.9664 -0.2007
vn -0.0502 -0.9800 -0.1923
vn -0.9433 0.0373 0.3299
vn 0.4457 0.8006 0.4004
vn -0.7577 0.1671 0.6308
vn 0.5990 0.2763 -0.7515
vn 0.0703 -0.4580 -0.8862
vn -0.4247 0.1551 -0.8919
vn 0.0173 0.9983 -0.0560
vn 0.4144 0.4228 0.8059
vn -0.2904 -0.7043 0.6478
vn 0.3379 -0.6629 0.6682
vn -0.6241 -0.7542 0.2042
vn -0.2600 -0.6699 -0.6954
vn -0.7402 0.6722 0.0143
vn 0.3808 0.5980 -0.7053
vn 0.9646 0.2416 -0.1057
vn -0.2614 0.8544 -0.4490
vn 0.8460 0.4573 -0.2741
vn 0.0345 0.4479 -0.8934
vn 0.0735 0.9927 -0.0961
vn -0.5344 0.7699 0.3488
vn 0.6319 -0.7309 -0.2579
vn 0.0445 0.9975 -0.0551
vn -0.1043 0.9928 0.0595
vn -0.4499 0.5164 0.7287
vn 0.4628 0.4972 0.7339
vn 0.0497 -0.9984 -0.0277
vn 0.5329 -0.8419 0.0851
vn 0.6838 -0.2653 0.6797
vn -0.7430 -0.3076 0.5944
vn 0.0168 -0.3440 0.9388
vn -0.1714 0.9840 0.0496
vn 0.1168 0.4965 0.8601
vn -0.0391 0.1892 -0.9812
vn -0.3244 0.3039 -0.8958
vn -0.0356 0.1799 -0.9830
vn 0.1258 -0.9751 0.1825
vn -0.0770 -0.8570 0.5096
vn -0.2957 0.9308 -0.2150
vn -0.0950 0.9934 0.0644
vn -0.0295 0.9995 0.0149
vn 0.0342 -0.9991 0.0266
vn 0.0385 -0.9879 -0.1504
vn -0.0552 -0.9801 -0.1905
vn 0.4475 0.8065 0.3865
vn 0.5629 0.7013 0.4374
vn -0.6229 0.0078 0.7822
vn -0.7095 0.2520 0.6581
vn -0.6198 0.4122 0.6678
vn 0.5331 -0.2326 -0.8135
vn 0.7083 0.0634 -0.7030
vn 0.0225 -0.4983 -0.8667
vn -0.0325 -0.3066 -0.9513
vn 0.4618 0.4317 0.7748
vn -0.4094 -0.6321 0.6579
vn -0.3366 -0.7995 0.4975
vn -0.3883 -0.7332 0.5582
vn -0.0935 -0.7210 0.6866
vn 0.2261 -0.4564 0.8606
vn -0.6940 -0.7064 0.1394
vn -0.7247 -0.6413 0.2520
vn -0.4742 -0.5520 -0.6859
vn -0.2623 -0.6703 -0.6942
vn -0.7425 0.6578 0.1267
vn -0.7433 0.6685 0.0240
vn -0.7275 0.6853 0.0336
vn -0.7477 0.6635 0.0281
vn -0.7399 0.6727 -0.0012
vn -0.7338 0.6785 0.0346
vn -0.7417 0.6708 0.0001
vn -0.7450 0.6666 0.0229
vn 0.5941 0.5003 -0.6299
vn 0.6035 0.6030 -0.5218
vn 0.4534 0.5621 -0.6918
vn 0.8197 0.2032 -0.5356
vn 0.6152 0.3290 -0.7164
vn 0.5728 0.5293 -0.6259
vn 0.9401 -0.0800 -0.3315
vn 0.9250 0.3126 -0.2161
vn 0.9600 0.1098 -0.2576
vn -0.2711 0.8865 -0.3751
vn -0.2080 0.9202 -0.3315
vn -0.2016 0.8784 -0.4334
vn 0.9221 0.2855 -0.2612
vn 0.8976 0.4401 -0.0270
vn 0.6363 -0.7278 -0.2557
vn 0.6340 -0.7211 -0.2794
vn 0.6312 -0.7309 -0.2596
vn 0.0568 0.9982 0.0166
vn -0.5406 0.4188 0.7296
vn -0.5369 0.4092 0.7378
vn 0.0339 -0.9992 0.0210
vn 0.0412 -0.9991 -0.0105
vn 0.7576 -0.2032 0.6202
vn 0.7460 -0.4529 0.4882
vn 0.4099 -0.3728 0.8325
vn 0.6791 -0.1829 0.7109
vn 0.6661 -0.1762 0.7248
vn 0.7465 -0.2016 0.6341
vn 0.7243 -0.2635 0.6372
vn 0.6480 -0.1358 0.7495
vn -0.3666 -0.0922 0.9258
vn -0.0842 -0.4406 0.8937
vn -0.1252 -0.1346 0.9830
vn 0.3450 0.5006 0.7939
vn 0.0537 0.5161 0.8548
usemtl None
s off
f 30//1 14//1 12//1
f 16//2 3//2 10//2
f 9//3 34//3 32//3
f 32//4 33//4 48//4
f 38//5 9//5 48//5
f 10//6 1//6 6//6
f 44//7 10//7 2//7
f 11//8 27//8 28//8
f 51//9 5//9 7//9
f 56//10 26//10 11//10
f 35//11 45//11 46//11
f 40//12 2//12 6//12
f 12//13 25//13 31//13
f 42//14 38//14 48//14
f 21//15 4//15 22//15
f 23//16 56//16 3//16
f 19//17 21//17 23//17
f 28//18 24//18 1//18
f 25//19 12//19 1//19
f 29//20 24//20 28//20
f 40//21 41//21 38//21
f 45//22 43//22 47//22
f 14//23 29//23 39//23
f 5//24 17//24 15//24
f 39//25 41//25 14//25
f 38//26 37//26 9//26
f 33//27 26//27 20//27
f 53//28 44//28 45//28
f 5//29 48//29 7//29
f 48//30 20//30 4//30
f 22//31 4//31 20//31
f 49//32 50//32 51//32
f 52//33 16//33 10//33
f 52//34 53//34 54//34
f 16//35 52//35 51//35
f 55//36 57//36 58//36
f 58//37 57//37 23//37
f 7//38 48//38 4//38
f 49//39 7//39 19//39
f 40//40 12//40 41//40
f 31//41 30//41 12//41
f 14//42 41//42 12//42
f 8//43 10//43 3//43
f 16//44 18//44 3//44
f 9//45 29//45 34//45
f 20//46 48//46 33//46
f 9//47 32//47 48//47
f 10//48 8//48 1//48
f 6//49 2//49 10//49
f 46//50 44//50 2//50
f 7//51 49//51 51//51
f 51//52 17//52 5//52
f 27//53 11//53 26//53
f 56//54 55//54 26//54
f 20//55 26//55 55//55
f 46//56 2//56 36//56
f 36//57 35//57 46//57
f 2//58 40//58 36//58
f 12//59 40//59 6//59
f 21//60 7//60 4//60
f 8//61 3//61 11//61
f 23//62 57//62 56//62
f 56//63 11//63 3//63
f 23//64 3//64 18//64
f 18//65 19//65 23//65
f 1//66 8//66 28//66
f 11//67 28//67 8//67
f 6//68 1//68 12//68
f 24//69 25//69 1//69
f 27//70 26//70 33//70
f 33//71 32//71 27//71
f 34//72 29//72 28//72
f 30//73 31//73 29//73
f 25//74 24//74 29//74
f 28//75 27//75 32//75
f 32//76 34//76 28//76
f 31//77 25//77 29//77
f 38//78 42//78 43//78
f 43//79 35//79 38//79
f 36//80 40//80 38//80
f 41//81 39//81 37//81
f 37//82 38//82 41//82
f 35//83 36//83 38//83
f 13//84 47//84 43//84
f 45//85 35//85 43//85
f 43//86 15//86 13//86
f 9//87 37//87 39//87
f 39//88 29//88 9//88
f 30//89 29//89 14//89
f 15//90 43//90 42//90
f 42//91 5//91 15//91
f 45//92 47//92 53//92
f 54//93 53//93 47//93
f 44//94 46//94 45//94
f 5//95 42//95 48//95
f 20//96 55//96 22//96
f 58//97 22//97 55//97
f 10//98 44//98 53//98
f 53//99 52//99 10//99
f 17//100 51//100 52//100
f 50//101 19//101 18//101
f 18//102 16//102 50//102
f 52//103 54//103 13//103
f 47//104 13//104 54//104
f 15//105 17//105 52//105
f 50//106 16//106 51//106
f 52//107 13//107 15//107
f 55//108 56//108 57//108
f 23//109 21//109 58//109
f 22//110 58//110 21//110
f 21//111 19//111 7//111
f 50//112 49//112 19//112
