# This file was created with Minddesk Qubicle 3.0
# Get Qubicle at www.getqubicle.com

vn 0.0 0.0 1.0
vn 0.0 0.0 -1.0
vn -1.0 0.0 0.0
vn 1.0 0.0 0.0
vn 0.0 1.0 0.0
vn 0.0 -1.0 0.0

v -1.32000 0.06000 -1.50000
v -1.32000 -0.24000 -1.50000
v -1.44000 -0.24000 -1.50000
v -1.44000 0.06000 -1.50000
v -1.02000 0.06000 -1.50000
v -1.02000 -0.24000 -1.50000
v -1.14000 -0.24000 -1.50000
v -1.14000 0.06000 -1.50000
v -0.84000 0.06000 -1.50000
v -0.84000 -0.24000 -1.50000
v -0.96000 -0.24000 -1.50000
v -0.96000 0.06000 -1.50000
v -0.54000 0.06000 -1.50000
v -0.54000 -0.24000 -1.50000
v -0.66000 -0.24000 -1.50000
v -0.66000 0.06000 -1.50000
v -1.80000 0.06000 -1.50000
v -1.80000 -0.12000 -1.50000
v -1.92000 -0.12000 -1.50000
v -1.92000 0.06000 -1.50000
v -1.80000 0.36000 -1.50000
v -1.80000 0.18000 -1.50000
v -1.92000 0.18000 -1.50000
v -1.92000 0.36000 -1.50000
v -1.50000 0.06000 -1.50000
v -1.50000 -0.12000 -1.50000
v -1.62000 -0.12000 -1.50000
v -1.62000 0.06000 -1.50000
v -1.50000 0.36000 -1.50000
v -1.50000 0.18000 -1.50000
v -1.62000 0.18000 -1.50000
v -1.62000 0.36000 -1.50000
v -1.32000 0.36000 -1.50000
v -1.32000 0.18000 -1.50000
v -1.44000 0.18000 -1.50000
v -1.44000 0.36000 -1.50000
v -1.02000 0.36000 -1.50000
v -1.02000 0.18000 -1.50000
v -1.14000 0.18000 -1.50000
v -1.14000 0.36000 -1.50000
v -0.84000 0.36000 -1.50000
v -0.84000 0.18000 -1.50000
v -0.96000 0.18000 -1.50000
v -0.96000 0.36000 -1.50000
v -0.54000 0.36000 -1.50000
v -0.54000 0.18000 -1.50000
v -0.66000 0.18000 -1.50000
v -0.66000 0.36000 -1.50000
v -2.04000 -0.12000 -1.50000
v -2.04000 -0.24000 -1.50000
v -2.70000 -0.24000 -1.50000
v -2.70000 -0.12000 -1.50000
v -2.04000 0.06000 -1.50000
v -2.04000 -0.06000 -1.50000
v -2.70000 -0.06000 -1.50000
v -2.70000 0.06000 -1.50000
v -2.04000 0.24000 -1.50000
v -2.04000 0.12000 -1.50000
v -2.70000 0.12000 -1.50000
v -2.70000 0.24000 -1.50000
v -1.50000 -0.24000 -1.50000
v -1.92000 -0.24000 -1.50000
v -1.62000 0.48000 -1.50000
v -1.92000 0.48000 -1.50000
v -1.14000 0.48000 -1.50000
v -1.44000 0.48000 -1.50000
v -0.66000 0.48000 -1.50000
v -0.96000 0.48000 -1.50000
v -2.58000 0.42000 -1.50000
v -2.58000 0.30000 -1.50000
v -2.64000 0.30000 -1.50000
v -2.64000 0.42000 -1.50000
v -1.50000 0.12000 -1.50000
v -1.92000 0.12000 -1.50000
v -1.56000 0.18000 -1.50000
v -1.56000 0.12000 -1.50000
v -0.54000 0.12000 -1.50000
v -0.96000 0.12000 -1.50000
v -0.60000 0.18000 -1.50000
v -0.60000 0.12000 -1.50000
v -2.52000 0.48000 -1.50000
v -2.52000 0.42000 -1.50000
v -2.70000 0.42000 -1.50000
v -2.70000 0.48000 -1.50000
v -2.28000 0.42000 -1.50000
v -2.28000 0.36000 -1.50000
v -2.46000 0.36000 -1.50000
v -2.46000 0.42000 -1.50000
v -2.04000 0.36000 -1.50000
v -2.04000 0.30000 -1.50000
v -2.22000 0.30000 -1.50000
v -2.22000 0.36000 -1.50000
v -2.04000 0.48000 -1.50000
v -2.04000 0.42000 -1.50000
v -2.22000 0.42000 -1.50000
v -2.22000 0.48000 -1.50000
v -2.10000 0.42000 -1.50000
v -2.10000 0.36000 -1.50000
v -2.40000 0.36000 -1.50000
v -2.40000 0.30000 -1.50000
v -2.46000 0.30000 -1.50000
v -2.40000 0.48000 -1.50000
v -2.40000 0.42000 -1.50000
v -2.46000 0.48000 -1.50000
v -2.28000 0.30000 -1.50000
v -2.34000 0.30000 -1.50000
v -2.34000 0.36000 -1.50000
v -2.28000 0.48000 -1.50000
v -2.34000 0.42000 -1.50000
v -2.34000 0.48000 -1.50000
v -1.44000 0.06000 -1.44000
v -1.44000 -0.24000 -1.44000
v -1.32000 -0.24000 -1.44000
v -1.32000 0.06000 -1.44000
v -1.14000 0.06000 -1.44000
v -1.14000 -0.24000 -1.44000
v -1.02000 -0.24000 -1.44000
v -1.02000 0.06000 -1.44000
v -0.96000 0.06000 -1.44000
v -0.96000 -0.24000 -1.44000
v -0.84000 -0.24000 -1.44000
v -0.84000 0.06000 -1.44000
v -0.66000 0.06000 -1.44000
v -0.66000 -0.24000 -1.44000
v -0.54000 -0.24000 -1.44000
v -0.54000 0.06000 -1.44000
v -1.92000 0.06000 -1.44000
v -1.92000 -0.12000 -1.44000
v -1.80000 -0.12000 -1.44000
v -1.80000 0.06000 -1.44000
v -1.92000 0.36000 -1.44000
v -1.92000 0.18000 -1.44000
v -1.80000 0.18000 -1.44000
v -1.80000 0.36000 -1.44000
v -1.62000 0.06000 -1.44000
v -1.62000 -0.12000 -1.44000
v -1.50000 -0.12000 -1.44000
v -1.50000 0.06000 -1.44000
v -1.62000 0.36000 -1.44000
v -1.62000 0.18000 -1.44000
v -1.50000 0.18000 -1.44000
v -1.50000 0.36000 -1.44000
v -1.44000 0.36000 -1.44000
v -1.44000 0.18000 -1.44000
v -1.32000 0.18000 -1.44000
v -1.32000 0.36000 -1.44000
v -1.14000 0.36000 -1.44000
v -1.14000 0.18000 -1.44000
v -1.02000 0.18000 -1.44000
v -1.02000 0.36000 -1.44000
v -0.96000 0.36000 -1.44000
v -0.96000 0.18000 -1.44000
v -0.84000 0.18000 -1.44000
v -0.84000 0.36000 -1.44000
v -0.66000 0.36000 -1.44000
v -0.66000 0.18000 -1.44000
v -0.54000 0.18000 -1.44000
v -0.54000 0.36000 -1.44000
v -2.70000 -0.12000 -1.44000
v -2.70000 -0.24000 -1.44000
v -2.04000 -0.24000 -1.44000
v -2.04000 -0.12000 -1.44000
v -2.70000 0.06000 -1.44000
v -2.70000 -0.06000 -1.44000
v -2.04000 -0.06000 -1.44000
v -2.04000 0.06000 -1.44000
v -2.70000 0.24000 -1.44000
v -2.70000 0.12000 -1.44000
v -2.04000 0.12000 -1.44000
v -2.04000 0.24000 -1.44000
v -1.92000 -0.24000 -1.44000
v -1.50000 -0.24000 -1.44000
v -1.92000 0.48000 -1.44000
v -1.62000 0.48000 -1.44000
v -1.44000 0.48000 -1.44000
v -1.14000 0.48000 -1.44000
v -0.96000 0.48000 -1.44000
v -0.66000 0.48000 -1.44000
v -2.64000 0.42000 -1.44000
v -2.64000 0.30000 -1.44000
v -2.58000 0.30000 -1.44000
v -2.58000 0.42000 -1.44000
v -1.92000 0.12000 -1.44000
v -1.50000 0.12000 -1.44000
v -1.56000 0.12000 -1.44000
v -1.56000 0.18000 -1.44000
v -0.96000 0.12000 -1.44000
v -0.54000 0.12000 -1.44000
v -0.60000 0.12000 -1.44000
v -0.60000 0.18000 -1.44000
v -2.70000 0.48000 -1.44000
v -2.70000 0.42000 -1.44000
v -2.52000 0.42000 -1.44000
v -2.52000 0.48000 -1.44000
v -2.46000 0.42000 -1.44000
v -2.46000 0.36000 -1.44000
v -2.28000 0.36000 -1.44000
v -2.28000 0.42000 -1.44000
v -2.22000 0.36000 -1.44000
v -2.22000 0.30000 -1.44000
v -2.04000 0.30000 -1.44000
v -2.04000 0.36000 -1.44000
v -2.22000 0.48000 -1.44000
v -2.22000 0.42000 -1.44000
v -2.04000 0.42000 -1.44000
v -2.04000 0.48000 -1.44000
v -2.10000 0.36000 -1.44000
v -2.10000 0.42000 -1.44000
v -2.46000 0.30000 -1.44000
v -2.40000 0.30000 -1.44000
v -2.40000 0.36000 -1.44000
v -2.46000 0.48000 -1.44000
v -2.40000 0.42000 -1.44000
v -2.40000 0.48000 -1.44000
v -2.34000 0.36000 -1.44000
v -2.34000 0.30000 -1.44000
v -2.28000 0.30000 -1.44000
v -2.34000 0.48000 -1.44000
v -2.34000 0.42000 -1.44000
v -2.28000 0.48000 -1.44000

vt 0.01563 0.20313
vt 0.01563 0.01563
vt 0.03125 0.01563
vt 0.03125 0.20313
vt 0.06250 0.20313
vt 0.06250 0.01563
vt 0.07813 0.01563
vt 0.07813 0.20313
vt 0.10938 0.20313
vt 0.10938 0.01563
vt 0.12500 0.01563
vt 0.12500 0.20313
vt 0.15625 0.17188
vt 0.15625 0.01563
vt 0.17188 0.01563
vt 0.17188 0.17188
vt 0.20313 0.10938
vt 0.20313 0.01563
vt 0.21875 0.01563
vt 0.21875 0.10938
vt 0.25000 0.10938
vt 0.25000 0.01563
vt 0.26563 0.01563
vt 0.26563 0.10938
vt 0.29688 0.09375
vt 0.29688 0.01563
vt 0.32813 0.01563
vt 0.32813 0.09375
vt 0.35938 0.09375
vt 0.35938 0.01563
vt 0.39063 0.01563
vt 0.39063 0.09375
vt 0.42188 0.09375
vt 0.42188 0.01563
vt 0.45313 0.01563
vt 0.45313 0.09375
vt 0.48438 0.09375
vt 0.48438 0.01563
vt 0.51563 0.01563
vt 0.51563 0.09375
vt 0.54688 0.09375
vt 0.54688 0.01563
vt 0.57813 0.01563
vt 0.57813 0.09375
vt 0.60938 0.09375
vt 0.60938 0.01563
vt 0.64063 0.01563
vt 0.64063 0.09375
vt 0.67188 0.09375
vt 0.67188 0.01563
vt 0.70313 0.01563
vt 0.70313 0.09375
vt 0.73438 0.09375
vt 0.73438 0.01563
vt 0.76563 0.01563
vt 0.76563 0.09375
vt 0.79688 0.09375
vt 0.79688 0.01563
vt 0.81250 0.01563
vt 0.81250 0.09375
vt 0.84375 0.09375
vt 0.84375 0.01563
vt 0.85938 0.01563
vt 0.85938 0.09375
vt 0.89063 0.09375
vt 0.89063 0.01563
vt 0.90625 0.01563
vt 0.90625 0.09375
vt 0.93750 0.09375
vt 0.93750 0.01563
vt 0.95313 0.01563
vt 0.95313 0.09375
vt 0.01563 0.28125
vt 0.01563 0.23438
vt 0.04688 0.23438
vt 0.04688 0.28125
vt 0.07813 0.28125
vt 0.07813 0.23438
vt 0.10938 0.23438
vt 0.10938 0.28125
vt 0.14063 0.28125
vt 0.14063 0.23438
vt 0.17188 0.23438
vt 0.17188 0.28125
vt 0.20313 0.28125
vt 0.20313 0.23438
vt 0.23438 0.23438
vt 0.23438 0.28125
vt 0.26563 0.28125
vt 0.26563 0.23438
vt 0.29688 0.23438
vt 0.29688 0.28125
vt 0.32813 0.28125
vt 0.32813 0.23438
vt 0.35938 0.23438
vt 0.35938 0.28125
vt 0.39063 0.28125
vt 0.39063 0.23438
vt 0.42188 0.23438
vt 0.42188 0.28125
vt 0.45313 0.28125
vt 0.45313 0.23438
vt 0.48438 0.23438
vt 0.48438 0.28125
vt 0.51563 0.28125
vt 0.51563 0.23438
vt 0.54688 0.23438
vt 0.54688 0.28125
vt 0.57813 0.28125
vt 0.57813 0.23438
vt 0.60938 0.23438
vt 0.60938 0.28125
vt 0.64063 0.28125
vt 0.64063 0.23438
vt 0.67188 0.23438
vt 0.67188 0.28125
vt 0.70313 0.28125
vt 0.70313 0.23438
vt 0.73438 0.23438
vt 0.73438 0.28125
vt 0.76563 0.28125
vt 0.76563 0.23438
vt 0.79688 0.23438
vt 0.79688 0.28125
vt 0.82813 0.28125
vt 0.82813 0.23438
vt 0.85938 0.23438
vt 0.85938 0.28125
vt 0.89063 0.28125
vt 0.89063 0.23438
vt 0.92188 0.23438
vt 0.92188 0.28125
vt 0.95313 0.28125
vt 0.95313 0.23438
vt 0.98438 0.23438
vt 0.98438 0.28125
vt 0.01563 0.35938
vt 0.01563 0.31250
vt 0.03125 0.31250
vt 0.03125 0.35938
vt 0.06250 0.35938
vt 0.06250 0.31250
vt 0.07813 0.31250
vt 0.07813 0.35938
vt 0.10938 0.35938
vt 0.10938 0.31250
vt 0.12500 0.31250
vt 0.12500 0.35938
vt 0.15625 0.35938
vt 0.15625 0.31250
vt 0.17188 0.31250
vt 0.17188 0.35938
vt 0.20313 0.35938
vt 0.20313 0.31250
vt 0.21875 0.31250
vt 0.21875 0.35938
vt 0.25000 0.35938
vt 0.25000 0.31250
vt 0.26563 0.31250
vt 0.26563 0.35938
vt 0.29688 0.35938
vt 0.29688 0.31250
vt 0.31250 0.31250
vt 0.31250 0.35938
vt 0.34375 0.35938
vt 0.34375 0.31250
vt 0.35938 0.31250
vt 0.35938 0.35938
vt 0.39063 0.35938
vt 0.39063 0.31250
vt 0.40625 0.31250
vt 0.40625 0.35938
vt 0.43750 0.35938
vt 0.43750 0.31250
vt 0.45313 0.31250
vt 0.45313 0.35938
vt 0.48438 0.35938
vt 0.48438 0.31250
vt 0.50000 0.31250
vt 0.50000 0.35938
vt 0.53125 0.35938
vt 0.53125 0.31250
vt 0.54688 0.31250
vt 0.54688 0.35938
vt 0.57813 0.35938
vt 0.57813 0.31250
vt 0.59375 0.31250
vt 0.59375 0.35938
vt 0.20313 0.17188
vt 0.20313 0.14063
vt 0.37500 0.14063
vt 0.37500 0.17188
vt 0.40625 0.17188
vt 0.40625 0.14063
vt 0.57813 0.14063
vt 0.57813 0.17188
vt 0.60938 0.17188
vt 0.60938 0.14063
vt 0.78125 0.14063
vt 0.78125 0.17188
vt 0.81250 0.17188
vt 0.81250 0.14063
vt 0.98438 0.14063
vt 0.98438 0.17188
vt 0.62500 0.34375
vt 0.62500 0.31250
vt 0.79688 0.31250
vt 0.79688 0.34375
vt 0.01563 0.42188
vt 0.01563 0.39063
vt 0.18750 0.39063
vt 0.18750 0.42188
vt 0.82813 0.34375
vt 0.82813 0.31250
vt 0.93750 0.31250
vt 0.93750 0.34375
vt 0.21875 0.42188
vt 0.21875 0.39063
vt 0.32813 0.39063
vt 0.32813 0.42188
vt 0.35938 0.42188
vt 0.35938 0.39063
vt 0.46875 0.39063
vt 0.46875 0.42188
vt 0.50000 0.42188
vt 0.50000 0.39063
vt 0.60938 0.39063
vt 0.60938 0.42188
vt 0.64063 0.42188
vt 0.64063 0.39063
vt 0.71875 0.39063
vt 0.71875 0.42188
vt 0.75000 0.42188
vt 0.75000 0.39063
vt 0.82813 0.39063
vt 0.82813 0.42188
vt 0.85938 0.42188
vt 0.85938 0.39063
vt 0.93750 0.39063
vt 0.93750 0.42188
vt 0.01563 0.48438
vt 0.01563 0.45313
vt 0.09375 0.45313
vt 0.09375 0.48438
vt 0.12500 0.48438
vt 0.12500 0.45313
vt 0.20313 0.45313
vt 0.20313 0.48438
vt 0.23438 0.48438
vt 0.23438 0.45313
vt 0.31250 0.45313
vt 0.31250 0.48438
vt 0.96875 0.34375
vt 0.96875 0.31250
vt 0.98438 0.31250
vt 0.98438 0.34375
vt 0.96875 0.42188
vt 0.96875 0.39063
vt 0.98438 0.39063
vt 0.98438 0.42188
vt 0.34375 0.48438
vt 0.34375 0.45313
vt 0.35938 0.45313
vt 0.35938 0.48438
vt 0.39063 0.48438
vt 0.39063 0.45313
vt 0.40625 0.45313
vt 0.40625 0.48438
vt 0.43750 0.48438
vt 0.43750 0.45313
vt 0.45313 0.45313
vt 0.45313 0.48438
vt 0.48438 0.48438
vt 0.48438 0.45313
vt 0.50000 0.45313
vt 0.50000 0.48438
vt 0.53125 0.48438
vt 0.53125 0.45313
vt 0.54688 0.45313
vt 0.54688 0.48438
vt 0.57813 0.48438
vt 0.57813 0.45313
vt 0.59375 0.45313
vt 0.59375 0.48438
vt 0.62500 0.48438
vt 0.62500 0.45313
vt 0.64063 0.45313
vt 0.64063 0.48438
vt 0.67188 0.48438
vt 0.67188 0.45313
vt 0.68750 0.45313
vt 0.68750 0.48438
vt 0.71875 0.48438
vt 0.71875 0.45313
vt 0.73438 0.45313
vt 0.73438 0.48438
vt 0.76563 0.48438
vt 0.76563 0.45313
vt 0.78125 0.45313
vt 0.78125 0.48438
vt 0.81250 0.48438
vt 0.81250 0.45313
vt 0.82813 0.45313
vt 0.82813 0.48438
vt 0.01563 0.53125
vt 0.01563 0.51563
vt 0.18750 0.51563
vt 0.18750 0.53125
vt 0.21875 0.53125
vt 0.21875 0.51563
vt 0.39063 0.51563
vt 0.39063 0.53125
vt 0.42188 0.53125
vt 0.42188 0.51563
vt 0.59375 0.51563
vt 0.59375 0.53125
vt 0.62500 0.53125
vt 0.62500 0.51563
vt 0.79688 0.51563
vt 0.79688 0.53125
vt 0.01563 0.57813
vt 0.01563 0.56250
vt 0.18750 0.56250
vt 0.18750 0.57813
vt 0.21875 0.57813
vt 0.21875 0.56250
vt 0.39063 0.56250
vt 0.39063 0.57813
vt 0.85938 0.46875
vt 0.85938 0.45313
vt 0.96875 0.45313
vt 0.96875 0.46875
vt 0.82813 0.53125
vt 0.82813 0.51563
vt 0.93750 0.51563
vt 0.93750 0.53125
vt 0.42188 0.57813
vt 0.42188 0.56250
vt 0.53125 0.56250
vt 0.53125 0.57813
vt 0.56250 0.57813
vt 0.56250 0.56250
vt 0.67188 0.56250
vt 0.67188 0.57813
vt 0.70313 0.57813
vt 0.70313 0.56250
vt 0.81250 0.56250
vt 0.81250 0.57813
vt 0.84375 0.57813
vt 0.84375 0.56250
vt 0.93750 0.56250
vt 0.93750 0.57813
vt 0.01563 0.62500
vt 0.01563 0.60938
vt 0.10938 0.60938
vt 0.10938 0.62500
vt 0.14063 0.62500
vt 0.14063 0.60938
vt 0.23438 0.60938
vt 0.23438 0.62500
vt 0.26563 0.62500
vt 0.26563 0.60938
vt 0.35938 0.60938
vt 0.35938 0.62500
vt 0.39063 0.62500
vt 0.39063 0.60938
vt 0.46875 0.60938
vt 0.46875 0.62500
vt 0.50000 0.62500
vt 0.50000 0.60938
vt 0.57813 0.60938
vt 0.57813 0.62500
vt 0.60938 0.62500
vt 0.60938 0.60938
vt 0.68750 0.60938
vt 0.68750 0.62500
vt 0.71875 0.62500
vt 0.71875 0.60938
vt 0.76563 0.60938
vt 0.76563 0.62500
vt 0.79688 0.62500
vt 0.79688 0.60938
vt 0.84375 0.60938
vt 0.84375 0.62500
vt 0.87500 0.62500
vt 0.87500 0.60938
vt 0.92188 0.60938
vt 0.92188 0.62500
vt 0.01563 0.67188
vt 0.01563 0.65625
vt 0.06250 0.65625
vt 0.06250 0.67188
vt 0.09375 0.67188
vt 0.09375 0.65625
vt 0.14063 0.65625
vt 0.14063 0.67188
vt 0.17188 0.67188
vt 0.17188 0.65625
vt 0.21875 0.65625
vt 0.21875 0.67188
vt 0.25000 0.67188
vt 0.25000 0.65625
vt 0.29688 0.65625
vt 0.29688 0.67188
vt 0.32813 0.67188
vt 0.32813 0.65625
vt 0.37500 0.65625
vt 0.37500 0.67188
vt 0.40625 0.67188
vt 0.40625 0.65625
vt 0.45313 0.65625
vt 0.45313 0.67188
vt 0.48438 0.67188
vt 0.48438 0.65625
vt 0.53125 0.65625
vt 0.53125 0.67188
vt 0.56250 0.67188
vt 0.56250 0.65625
vt 0.60938 0.65625
vt 0.60938 0.67188
vt 0.64063 0.67188
vt 0.64063 0.65625
vt 0.68750 0.65625
vt 0.68750 0.67188
vt 0.71875 0.67188
vt 0.71875 0.65625
vt 0.76563 0.65625
vt 0.76563 0.67188
vt 0.79688 0.67188
vt 0.79688 0.65625
vt 0.84375 0.65625
vt 0.84375 0.67188
vt 0.87500 0.67188
vt 0.87500 0.65625
vt 0.92188 0.65625
vt 0.92188 0.67188
vt 0.01563 0.71875
vt 0.01563 0.70313
vt 0.06250 0.70313
vt 0.06250 0.71875
vt 0.09375 0.71875
vt 0.09375 0.70313
vt 0.14063 0.70313
vt 0.14063 0.71875
vt 0.17188 0.71875
vt 0.17188 0.70313
vt 0.21875 0.70313
vt 0.21875 0.71875
vt 0.25000 0.71875
vt 0.25000 0.70313
vt 0.29688 0.70313
vt 0.29688 0.71875
vt 0.32813 0.71875
vt 0.32813 0.70313
vt 0.37500 0.70313
vt 0.37500 0.71875
vt 0.40625 0.71875
vt 0.40625 0.70313
vt 0.45313 0.70313
vt 0.45313 0.71875
vt 0.95313 0.62500
vt 0.95313 0.60938
vt 0.98438 0.60938
vt 0.98438 0.62500
vt 0.95313 0.67188
vt 0.95313 0.65625
vt 0.98438 0.65625
vt 0.98438 0.67188
vt 0.48438 0.71875
vt 0.48438 0.70313
vt 0.51563 0.70313
vt 0.51563 0.71875
vt 0.54688 0.71875
vt 0.54688 0.70313
vt 0.57813 0.70313
vt 0.57813 0.71875
vt 0.60938 0.71875
vt 0.60938 0.70313
vt 0.64063 0.70313
vt 0.64063 0.71875
vt 0.67188 0.71875
vt 0.67188 0.70313
vt 0.70313 0.70313
vt 0.70313 0.71875
vt 0.73438 0.71875
vt 0.73438 0.70313
vt 0.76563 0.70313
vt 0.76563 0.71875
vt 0.79688 0.71875
vt 0.79688 0.70313
vt 0.82813 0.70313
vt 0.82813 0.71875
vt 0.85938 0.71875
vt 0.85938 0.70313
vt 0.89063 0.70313
vt 0.89063 0.71875
vt 0.96875 0.53125
vt 0.96875 0.51563
vt 0.98438 0.51563
vt 0.98438 0.53125
vt 0.96875 0.57813
vt 0.96875 0.56250
vt 0.98438 0.56250
vt 0.98438 0.57813
vt 0.92188 0.71875
vt 0.92188 0.70313
vt 0.93750 0.70313
vt 0.93750 0.71875
vt 0.96875 0.71875
vt 0.96875 0.70313
vt 0.98438 0.70313
vt 0.98438 0.71875
vt 0.01563 0.76563
vt 0.01563 0.75000
vt 0.03125 0.75000
vt 0.03125 0.76563
vt 0.06250 0.76563
vt 0.06250 0.75000
vt 0.07813 0.75000
vt 0.07813 0.76563
vt 0.10938 0.76563
vt 0.10938 0.75000
vt 0.12500 0.75000
vt 0.12500 0.76563
vt 0.15625 0.76563
vt 0.15625 0.75000
vt 0.17188 0.75000
vt 0.17188 0.76563
vt 0.20313 0.76563
vt 0.20313 0.75000
vt 0.21875 0.75000
vt 0.21875 0.76563
vt 0.25000 0.76563
vt 0.25000 0.75000
vt 0.26563 0.75000
vt 0.26563 0.76563
vt 0.29688 0.76563
vt 0.29688 0.75000
vt 0.31250 0.75000
vt 0.31250 0.76563
vt 0.34375 0.76563
vt 0.34375 0.75000
vt 0.35938 0.75000
vt 0.35938 0.76563
vt 0.39063 0.76563
vt 0.39063 0.75000
vt 0.40625 0.75000
vt 0.40625 0.76563
vt 0.43750 0.76563
vt 0.43750 0.75000
vt 0.45313 0.75000
vt 0.45313 0.76563
vt 0.48438 0.76563
vt 0.48438 0.75000
vt 0.50000 0.75000
vt 0.50000 0.76563
vt 0.53125 0.76563
vt 0.53125 0.75000
vt 0.54688 0.75000
vt 0.54688 0.76563
vt 0.57813 0.76563
vt 0.57813 0.75000
vt 0.59375 0.75000
vt 0.59375 0.76563
vt 0.62500 0.76563
vt 0.62500 0.75000
vt 0.64063 0.75000
vt 0.64063 0.76563
vt 0.67188 0.76563
vt 0.67188 0.75000
vt 0.68750 0.75000
vt 0.68750 0.76563
vt 0.71875 0.76563
vt 0.71875 0.75000
vt 0.73438 0.75000
vt 0.73438 0.76563
vt 0.76563 0.76563
vt 0.76563 0.75000
vt 0.78125 0.75000
vt 0.78125 0.76563
vt 0.81250 0.76563
vt 0.81250 0.75000
vt 0.82813 0.75000
vt 0.82813 0.76563
vt 0.85938 0.76563
vt 0.85938 0.75000
vt 0.87500 0.75000
vt 0.87500 0.76563
vt 0.90625 0.76563
vt 0.90625 0.75000
vt 0.92188 0.75000
vt 0.92188 0.76563
vt 0.95313 0.76563
vt 0.95313 0.75000
vt 0.96875 0.75000
vt 0.96875 0.76563
vt 0.01563 0.81250
vt 0.01563 0.79688
vt 0.03125 0.79688
vt 0.03125 0.81250
vt 0.06250 0.81250
vt 0.06250 0.79688
vt 0.07813 0.79688
vt 0.07813 0.81250
vt 0.10938 0.81250
vt 0.10938 0.79688
vt 0.12500 0.79688
vt 0.12500 0.81250
vt 0.15625 0.81250
vt 0.15625 0.79688
vt 0.17188 0.79688
vt 0.17188 0.81250
vt 0.20313 0.81250
vt 0.20313 0.79688
vt 0.21875 0.79688
vt 0.21875 0.81250
vt 0.25000 0.81250
vt 0.25000 0.79688
vt 0.26563 0.79688
vt 0.26563 0.81250
vt 0.29688 0.81250
vt 0.29688 0.79688
vt 0.31250 0.79688
vt 0.31250 0.81250
vt 0.34375 0.81250
vt 0.34375 0.79688
vt 0.35938 0.79688
vt 0.35938 0.81250
vt 0.39063 0.81250
vt 0.39063 0.79688
vt 0.40625 0.79688
vt 0.40625 0.81250

g NeonSign_TheBar
f 1/25/2 2/26/2 3/27/2 4/28/2
f 5/53/2 6/54/2 7/55/2 8/56/2
f 9/41/2 10/42/2 11/43/2 12/44/2
f 13/45/2 14/46/2 15/47/2 16/48/2
f 17/89/2 18/90/2 19/91/2 20/92/2
f 21/85/2 22/86/2 23/87/2 24/88/2
f 25/105/2 26/106/2 27/107/2 28/108/2
f 29/101/2 30/102/2 31/103/2 32/104/2
f 33/97/2 34/98/2 35/99/2 36/100/2
f 37/93/2 38/94/2 39/95/2 40/96/2
f 41/109/2 42/110/2 43/111/2 44/112/2
f 45/125/2 46/126/2 47/127/2 48/128/2
f 49/201/2 50/202/2 51/203/2 52/204/2
f 53/205/2 54/206/2 55/207/2 56/208/2
f 57/209/2 58/210/2 59/211/2 60/212/2
f 26/225/2 61/226/2 62/227/2 19/228/2
f 63/237/2 32/238/2 24/239/2 64/240/2
f 38/221/2 5/222/2 4/223/2 35/224/2
f 65/229/2 40/230/2 36/231/2 66/232/2
f 67/233/2 48/234/2 44/235/2 68/236/2
f 69/273/2 70/274/2 71/275/2 72/276/2
f 73/337/2 25/338/2 20/339/2 74/340/2
f 75/361/2 76/362/2 74/363/2 23/364/2
f 77/341/2 13/342/2 12/343/2 78/344/2
f 79/349/2 80/350/2 78/351/2 43/352/2
f 81/413/2 82/414/2 83/415/2 84/416/2
f 85/417/2 86/418/2 87/419/2 88/420/2
f 89/405/2 90/406/2 91/407/2 92/408/2
f 93/409/2 94/410/2 95/411/2 96/412/2
f 97/481/2 98/482/2 92/483/2 95/484/2
f 99/621/2 100/622/2 101/623/2 87/624/2
f 102/569/2 103/570/2 88/571/2 104/572/2
f 86/573/2 105/574/2 106/575/2 107/576/2
f 108/561/2 85/562/2 109/563/2 110/564/2
f 111/37/1 112/38/1 113/39/1 114/40/1
f 115/33/1 116/34/1 117/35/1 118/36/1
f 119/29/1 120/30/1 121/31/1 122/32/1
f 123/49/1 124/50/1 125/51/1 126/52/1
f 127/129/1 128/130/1 129/131/1 130/132/1
f 131/133/1 132/134/1 133/135/1 134/136/1
f 135/113/1 136/114/1 137/115/1 138/116/1
f 139/117/1 140/118/1 141/119/1 142/120/1
f 143/121/1 144/122/1 145/123/1 146/124/1
f 147/73/1 148/74/1 149/75/1 150/76/1
f 151/77/1 152/78/1 153/79/1 154/80/1
f 155/81/1 156/82/1 157/83/1 158/84/1
f 159/189/1 160/190/1 161/191/1 162/192/1
f 163/193/1 164/194/1 165/195/1 166/196/1
f 167/197/1 168/198/1 169/199/1 170/200/1
f 128/217/1 171/218/1 172/219/1 137/220/1
f 173/245/1 131/246/1 139/247/1 174/248/1
f 144/213/1 111/214/1 118/215/1 149/216/1
f 175/249/1 143/250/1 147/251/1 176/252/1
f 177/241/1 151/242/1 155/243/1 178/244/1
f 179/257/1 180/258/1 181/259/1 182/260/1
f 183/329/1 127/330/1 138/331/1 184/332/1
f 132/353/1 183/354/1 185/355/1 186/356/1
f 187/333/1 119/334/1 126/335/1 188/336/1
f 152/357/1 187/358/1 189/359/1 190/360/1
f 191/445/1 192/446/1 193/447/1 194/448/1
f 195/441/1 196/442/1 197/443/1 198/444/1
f 199/457/1 200/458/1 201/459/1 202/460/1
f 203/453/1 204/454/1 205/455/1 206/456/1
f 204/485/1 199/486/1 207/487/1 208/488/1
f 196/617/1 209/618/1 210/619/1 211/620/1
f 212/629/1 195/630/1 213/631/1 214/632/1
f 215/625/1 216/626/1 217/627/1 197/628/1
f 218/613/1 219/614/1 198/615/1 220/616/1
f 64/1/3 62/2/3 171/3/3 173/4/3
f 66/5/3 3/6/3 112/7/3 175/8/3
f 68/9/3 11/10/3 120/11/3 177/12/3
f 8/65/3 7/66/3 116/67/3 115/68/3
f 16/69/3 15/70/3 124/71/3 123/72/3
f 104/173/3 101/174/3 209/175/3 212/176/3
f 96/169/3 91/170/3 200/171/3 203/172/3
f 28/165/3 27/166/3 136/167/3 135/168/3
f 32/185/3 31/186/3 140/187/3 139/188/3
f 40/181/3 39/182/3 148/183/3 147/184/3
f 48/177/3 47/178/3 156/179/3 155/180/3
f 52/261/3 51/262/3 160/263/3 159/264/3
f 56/253/3 55/254/3 164/255/3 163/256/3
f 60/269/3 59/270/3 168/271/3 167/272/3
f 72/265/3 71/266/3 180/267/3 179/268/3
f 84/585/3 83/586/3 192/587/3 191/588/3
f 107/581/3 106/582/3 216/583/3 215/584/3
f 110/593/3 109/594/3 219/595/3 218/596/3
f 150/13/4 117/14/4 6/15/4 37/16/4
f 184/17/4 172/18/4 61/19/4 73/20/4
f 114/57/4 113/58/4 2/59/4 1/60/4
f 122/61/4 121/62/4 10/63/4 9/64/4
f 188/21/4 125/22/4 14/23/4 77/24/4
f 220/161/4 217/162/4 105/163/4 108/164/4
f 130/137/4 129/138/4 18/139/4 17/140/4
f 134/153/4 133/154/4 22/155/4 21/156/4
f 142/157/4 141/158/4 30/159/4 29/160/4
f 146/149/4 145/150/4 34/151/4 33/152/4
f 154/141/4 153/142/4 42/143/4 41/144/4
f 158/145/4 157/146/4 46/147/4 45/148/4
f 182/281/4 181/282/4 70/283/4 69/284/4
f 162/285/4 161/286/4 50/287/4 49/288/4
f 166/277/4 165/278/4 54/279/4 53/280/4
f 170/297/4 169/298/4 58/299/4 57/300/4
f 174/301/4 139/302/4 32/303/4 63/304/4
f 176/289/4 147/290/4 40/291/4 65/292/4
f 178/293/4 155/294/4 48/295/4 67/296/4
f 194/505/4 193/506/4 82/507/4 81/508/4
f 211/501/4 210/502/4 100/503/4 99/504/4
f 214/497/4 213/498/4 103/499/4 102/500/4
f 208/517/4 207/518/4 98/519/4 97/520/4
f 202/513/4 201/514/4 90/515/4 89/516/4
f 206/509/4 205/510/4 94/511/4 93/512/4
f 186/557/4 185/558/4 76/559/4 75/560/4
f 190/605/4 189/606/4 80/607/4 79/608/4
f 52/305/5 159/306/5 162/307/5 49/308/5
f 56/321/5 163/322/5 166/323/5 53/324/5
f 60/325/5 167/326/5 170/327/5 57/328/5
f 64/365/5 173/366/5 174/367/5 63/368/5
f 66/369/5 175/370/5 176/371/5 65/372/5
f 68/373/5 177/374/5 178/375/5 67/376/5
f 84/397/5 191/398/5 194/399/5 81/400/5
f 96/401/5 203/402/5 206/403/5 93/404/5
f 18/389/5 129/390/5 136/391/5 27/392/5
f 22/393/5 133/394/5 140/395/5 31/396/5
f 34/449/5 145/450/5 148/451/5 39/452/5
f 42/437/5 153/438/5 156/439/5 47/440/5
f 32/473/5 139/474/5 142/475/5 29/476/5
f 40/493/5 147/494/5 150/495/5 37/496/5
f 48/489/5 155/490/5 158/491/5 45/492/5
f 104/589/5 212/590/5 214/591/5 102/592/5
f 103/577/5 213/578/5 219/579/5 109/580/5
f 110/565/5 218/566/5 220/567/5 108/568/5
f 98/609/5 207/610/5 202/611/5 89/612/5
f 76/597/5 185/598/5 184/599/5 73/600/5
f 80/601/5 189/602/5 188/603/5 77/604/5
f 160/309/6 51/310/6 50/311/6 161/312/6
f 164/313/6 55/314/6 54/315/6 165/316/6
f 168/317/6 59/318/6 58/319/6 169/320/6
f 171/345/6 62/346/6 61/347/6 172/348/6
f 200/385/6 91/386/6 90/387/6 201/388/6
f 130/377/6 17/378/6 28/379/6 135/380/6
f 134/381/6 21/382/6 32/383/6 139/384/6
f 114/425/6 1/426/6 8/427/6 115/428/6
f 146/421/6 33/422/6 40/423/6 147/424/6
f 122/433/6 9/434/6 16/435/6 123/436/6
f 154/429/6 41/430/6 48/431/6 155/432/6
f 112/469/6 3/470/6 2/471/6 113/472/6
f 116/465/6 7/466/6 6/467/6 117/468/6
f 120/461/6 11/462/6 10/463/6 121/464/6
f 124/477/6 15/478/6 14/479/6 125/480/6
f 192/545/6 83/546/6 72/547/6 179/548/6
f 180/541/6 71/542/6 70/543/6 181/544/6
f 182/553/6 69/554/6 82/555/6 193/556/6
f 209/549/6 101/550/6 100/551/6 210/552/6
f 211/537/6 99/538/6 107/539/6 215/540/6
f 216/525/6 106/526/6 105/527/6 217/528/6
f 208/521/6 97/522/6 94/523/6 205/524/6
f 186/533/6 75/534/6 30/535/6 141/536/6
f 190/529/6 79/530/6 46/531/6 157/532/6
